OpenSans-CondensedExtraBold.ufo
<glyph name="ampersand" format="2">
	<unicode hex="0026"/>
	<advance width="1342"/>
	<outline>
		<contour>
			<point x="523" y="-20" type="curve" smooth="yes"/>
			<point x="662" y="-20"/>
			<point x="786" y="16"/>
			<point x="875" y="69" type="curve"/>
			<point x="934" y="0" type="line"/>
			<point x="1314" y="0" type="line"/>
			<point x="1104" y="275" type="line"/>
			<point x="1203" y="440"/>
			<point x="1264" y="608"/>
			<point x="1299" y="821" type="curve"/>
			<point x="1009" y="821" type="line"/>
			<point x="986" y="728"/>
			<point x="957" y="618"/>
			<point x="910" y="534" type="curve"/>
			<point x="720" y="762" type="line"/>
			<point x="923" y="905"/>
			<point x="991" y="1020"/>
			<point x="991" y="1151" type="curve" smooth="yes"/>
			<point x="991" y="1348"/>
			<point x="839" y="1483"/>
			<point x="600" y="1483" type="curve" smooth="yes"/>
			<point x="350" y="1483"/>
			<point x="181" y="1335"/>
			<point x="181" y="1114" type="curve" smooth="yes"/>
			<point x="181" y="1029"/>
			<point x="206" y="966"/>
			<point x="309" y="819" type="curve"/>
			<point x="311" y="816" type="line"/>
			<point x="156" y="718"/>
			<point x="55" y="578"/>
			<point x="55" y="396" type="curve" smooth="yes"/>
			<point x="55" y="144"/>
			<point x="225" y="-20"/>
		</contour>
		<contour>
			<point x="565" y="278" type="curve" smooth="yes"/>
			<point x="459" y="278"/>
			<point x="399" y="343"/>
			<point x="399" y="437" type="curve" smooth="yes"/>
			<point x="399" y="506"/>
			<point x="432" y="567"/>
			<point x="471" y="603" type="curve"/>
			<point x="706" y="304" type="line"/>
			<point x="662" y="288"/>
			<point x="607" y="278"/>
		</contour>
		<contour>
			<point x="573" y="969" type="curve"/>
			<point x="524" y="1017"/>
			<point x="494" y="1047"/>
			<point x="494" y="1103" type="curve" smooth="yes"/>
			<point x="494" y="1166"/>
			<point x="538" y="1199"/>
			<point x="592" y="1199" type="curve" smooth="yes"/>
			<point x="639" y="1199"/>
			<point x="680" y="1174"/>
			<point x="680" y="1104" type="curve" smooth="yes"/>
			<point x="680" y="1046"/>
			<point x="652" y="1022"/>
		</contour>
	</outline>
	<note>
		ampersand
	</note>
</glyph>
<glyph name="parenleft" format="2">
	<unicode hex="0028"/>
	<advance width="709"/>
	<outline>
		<contour>
			<point x="364" y="-324" type="curve"/>
			<point x="664" y="-324" type="line"/>
			<point x="484" y="-79"/>
			<point x="377" y="231"/>
			<point x="377" y="563" type="curve" smooth="yes"/>
			<point x="377" y="892"/>
			<point x="475" y="1209"/>
			<point x="666" y="1462" type="curve"/>
			<point x="364" y="1462" type="line"/>
			<point x="166" y="1227"/>
			<point x="61" y="918"/>
			<point x="61" y="561" type="curve" smooth="yes"/>
			<point x="61" y="210"/>
			<point x="165" y="-94"/>
		</contour>
	</outline>
	<note>
		parenleft
	</note>
</glyph>
<glyph name="plus" format="2">
	<unicode hex="002B"/>
	<advance width="960"/>
	<outline>
		<contour>
			<point x="356" y="250" type="line"/>
			<point x="603" y="250" type="line"/>
			<point x="603" y="590" type="line"/>
			<point x="833" y="590" type="line"/>
			<point x="833" y="852" type="line"/>
			<point x="603" y="852" type="line"/>
			<point x="603" y="1198" type="line"/>
			<point x="356" y="1198" type="line"/>
			<point x="356" y="852" type="line"/>
			<point x="126" y="852" type="line"/>
			<point x="126" y="590" type="line"/>
			<point x="356" y="590" type="line"/>
		</contour>
	</outline>
	<note>
		plus
	</note>
</glyph>
<glyph name="one" format="2">
	<unicode hex="0031"/>
	<advance width="1004"/>
	<outline>
		<contour>
			<point x="480" y="0" type="line"/>
			<point x="823" y="0" type="line"/>
			<point x="823" y="1462" type="line"/>
			<point x="511" y="1462" type="line"/>
			<point x="75" y="1059" type="line"/>
			<point x="272" y="850" type="line"/>
			<point x="394" y="976"/>
			<point x="437" y="1027"/>
			<point x="466" y="1062" type="curve" smooth="yes"/>
			<point x="477" y="1075"/>
			<point x="482" y="1082"/>
			<point x="497" y="1104" type="curve"/>
			<point x="486" y="974"/>
			<point x="480" y="860"/>
			<point x="480" y="764" type="curve" smooth="yes"/>
		</contour>
	</outline>
</glyph>
<glyph name="five" format="2">
	<unicode hex="0035"/>
	<advance width="1004"/>
	<outline>
		<contour>
			<point x="426" y="-20" type="curve" smooth="yes"/>
			<point x="738" y="-20"/>
			<point x="917" y="163"/>
			<point x="917" y="494" type="curve" smooth="yes"/>
			<point x="917" y="766"/>
			<point x="776" y="933"/>
			<point x="556" y="933" type="curve" smooth="yes"/>
			<point x="509" y="933"/>
			<point x="473" y="930"/>
			<point x="446" y="925" type="curve"/>
			<point x="458" y="1156" type="line"/>
			<point x="840" y="1156" type="line"/>
			<point x="840" y="1462" type="line"/>
			<point x="161" y="1462" type="line"/>
			<point x="116" y="690" type="line"/>
			<point x="220" y="623" type="line"/>
			<point x="278" y="646"/>
			<point x="333" y="657"/>
			<point x="382" y="657" type="curve" smooth="yes"/>
			<point x="511" y="657"/>
			<point x="568" y="591"/>
			<point x="568" y="464" type="curve" smooth="yes"/>
			<point x="568" y="325"/>
			<point x="513" y="275"/>
			<point x="385" y="275" type="curve" smooth="yes"/>
			<point x="292" y="275"/>
			<point x="152" y="328"/>
			<point x="86" y="377" type="curve"/>
			<point x="86" y="61" type="line"/>
			<point x="174" y="7"/>
			<point x="288" y="-20"/>
		</contour>
	</outline>
</glyph>
<glyph name="semicolon" format="2">
	<unicode hex="003B"/>
	<advance width="609"/>
	<outline>
		<contour>
			<point x="40" y="-264" type="curve"/>
			<point x="302" y="-264" type="line"/>
			<point x="393" y="-63"/>
			<point x="452" y="100"/>
			<point x="483" y="229" type="curve"/>
			<point x="469" y="252" type="line"/>
			<point x="141" y="252" type="line"/>
			<point x="114" y="90"/>
			<point x="79" y="-83"/>
		</contour>
		<contour>
			<point x="304" y="781" type="curve" smooth="yes"/>
			<point x="436" y="781"/>
			<point x="508" y="854"/>
			<point x="508" y="969" type="curve" smooth="yes"/>
			<point x="508" y="1089"/>
			<point x="437" y="1159"/>
			<point x="304" y="1159" type="curve" smooth="yes"/>
			<point x="171" y="1159"/>
			<point x="101" y="1088"/>
			<point x="101" y="969" type="curve" smooth="yes"/>
			<point x="101" y="852"/>
			<point x="172" y="781"/>
		</contour>
	</outline>
	<note>
		semicolon
	</note>
</glyph>
<glyph name="equal" format="2">
	<unicode hex="003D"/>
	<advance width="960"/>
	<outline>
		<contour>
			<point x="126" y="403" type="line"/>
			<point x="833" y="403" type="line"/>
			<point x="833" y="664" type="line"/>
			<point x="126" y="664" type="line"/>
		</contour>
		<contour>
			<point x="126" y="781" type="line"/>
			<point x="833" y="781" type="line"/>
			<point x="833" y="1039" type="line"/>
			<point x="126" y="1039" type="line"/>
		</contour>
	</outline>
	<note>
		equal
	</note>
</glyph>
<glyph name="E" format="2">
	<unicode hex="0045"/>
	<advance width="907"/>
	<outline>
		<contour>
			<point x="830" y="300" type="line"/>
			<point x="462" y="300" type="line"/>
			<point x="462" y="610" type="line"/>
			<point x="801" y="610" type="line"/>
			<point x="801" y="907" type="line"/>
			<point x="462" y="907" type="line"/>
			<point x="462" y="1166" type="line"/>
			<point x="830" y="1166" type="line"/>
			<point x="830" y="1462" type="line"/>
			<point x="115" y="1462" type="line"/>
			<point x="115" y="0" type="line"/>
			<point x="830" y="0" type="line"/>
		</contour>
	</outline>
	<anchor name="bottom" x="454" y="0"/>
	<anchor name="ogonek" x="816" y="10"/>
	<anchor name="top" x="454" y="1462"/>
	<anchor name="topleft" x="20" y="1462"/>
</glyph>
<glyph name="F" format="2">
	<unicode hex="0046"/>
	<advance width="885"/>
	<outline>
		<contour>
			<point x="460" y="557" type="line"/>
			<point x="796" y="557" type="line"/>
			<point x="796" y="853" type="line"/>
			<point x="460" y="853" type="line"/>
			<point x="460" y="1166" type="line"/>
			<point x="823" y="1166" type="line"/>
			<point x="823" y="1462" type="line"/>
			<point x="115" y="1462" type="line"/>
			<point x="115" y="0" type="line"/>
			<point x="460" y="0" type="line"/>
		</contour>
	</outline>
	<anchor name="bottom" x="442" y="0"/>
	<anchor name="top" x="442" y="1462"/>
</glyph>
<glyph name="P" format="2">
	<unicode hex="0050"/>
	<advance width="1042"/>
	<outline>
		<contour>
			<point x="115" y="0" type="line"/>
			<point x="462" y="0" type="line"/>
			<point x="462" y="498" type="line"/>
			<point x="515" y="498" type="line" smooth="yes"/>
			<point x="822" y="498"/>
			<point x="992" y="683"/>
			<point x="992" y="999" type="curve" smooth="yes"/>
			<point x="992" y="1303"/>
			<point x="844" y="1462"/>
			<point x="560" y="1462" type="curve" smooth="yes"/>
			<point x="115" y="1462" type="line"/>
		</contour>
		<contour>
			<point x="462" y="796" type="line"/>
			<point x="462" y="1165" type="line"/>
			<point x="510" y="1165" type="line" smooth="yes"/>
			<point x="600" y="1165"/>
			<point x="642" y="1101"/>
			<point x="642" y="983" type="curve" smooth="yes"/>
			<point x="642" y="852"/>
			<point x="587" y="796"/>
			<point x="495" y="796" type="curve" smooth="yes"/>
		</contour>
	</outline>
	<anchor name="bottom" x="521" y="0"/>
	<anchor name="top" x="521" y="1462"/>
</glyph>
<glyph name="U" format="2">
	<unicode hex="0055"/>
	<advance width="1211"/>
	<outline>
		<contour>
			<point x="594" y="-20" type="curve" smooth="yes"/>
			<point x="918" y="-20"/>
			<point x="1098" y="178"/>
			<point x="1098" y="534" type="curve" smooth="yes"/>
			<point x="1098" y="1462" type="line"/>
			<point x="754" y="1462" type="line"/>
			<point x="754" y="505" type="line" smooth="yes"/>
			<point x="754" y="367"/>
			<point x="699" y="284"/>
			<point x="607" y="284" type="curve" smooth="yes"/>
			<point x="504" y="284"/>
			<point x="456" y="358"/>
			<point x="456" y="516" type="curve" smooth="yes"/>
			<point x="456" y="1462" type="line"/>
			<point x="113" y="1462" type="line"/>
			<point x="113" y="539" type="line" smooth="yes"/>
			<point x="113" y="168"/>
			<point x="281" y="-20"/>
		</contour>
	</outline>
	<anchor name="bottom" x="606" y="0"/>
	<anchor name="ogonek" x="811" y="10"/>
	<anchor name="top" x="606" y="1462"/>
	<anchor name="topright" x="1191" y="1462"/>
</glyph>
<glyph name="V" format="2">
	<unicode hex="0056"/>
	<advance width="1132"/>
	<outline>
		<contour>
			<point x="341" y="0" type="line"/>
			<point x="789" y="0" type="line"/>
			<point x="1132" y="1462" type="line"/>
			<point x="783" y="1462" type="line"/>
			<point x="629" y="672" type="line" smooth="yes"/>
			<point x="604" y="545"/>
			<point x="582" y="421"/>
			<point x="568" y="294" type="curve"/>
			<point x="553" y="421"/>
			<point x="523" y="608"/>
			<point x="519" y="627" type="curve" smooth="yes"/>
			<point x="348" y="1462" type="line"/>
			<point x="0" y="1462" type="line"/>
		</contour>
	</outline>
	<anchor name="bottom" x="565" y="0"/>
	<anchor name="top" x="565" y="1462"/>
</glyph>
<glyph name="X" format="2">
	<unicode hex="0058"/>
	<advance width="1078"/>
	<outline>
		<contour>
			<point x="720" y="745" type="line"/>
			<point x="1052" y="1462" type="line"/>
			<point x="687" y="1462" type="line"/>
			<point x="539" y="1036" type="line"/>
			<point x="356" y="1462" type="line"/>
			<point x="9" y="1462" type="line"/>
			<point x="338" y="752" type="line"/>
			<point x="-9" y="0" type="line"/>
			<point x="353" y="0" type="line"/>
			<point x="521" y="461" type="line"/>
			<point x="727" y="0" type="line"/>
			<point x="1087" y="0" type="line"/>
		</contour>
	</outline>
	<anchor name="bottom" x="540" y="0"/>
	<anchor name="cyrillicbighook" x="956" y="0"/>
	<anchor name="top" x="540" y="1462"/>
</glyph>
<glyph name="Y" format="2">
	<unicode hex="0059"/>
	<advance width="1079"/>
	<outline>
		<contour>
			<point x="366" y="1462" type="line"/>
			<point x="0" y="1462" type="line"/>
			<point x="369" y="578" type="line"/>
			<point x="369" y="0" type="line"/>
			<point x="710" y="0" type="line"/>
			<point x="710" y="592" type="line"/>
			<point x="1079" y="1462" type="line"/>
			<point x="717" y="1462" type="line"/>
			<point x="539" y="961" type="line"/>
		</contour>
	</outline>
	<anchor name="bottom" x="541" y="0"/>
	<anchor name="top" x="541" y="1462"/>
	<anchor name="topleft" x="20" y="1462"/>
</glyph>
<glyph name="asciicircum" format="2">
	<unicode hex="005E"/>
	<advance width="1207"/>
	<outline>
		<contour>
			<point x="4" y="426" type="line"/>
			<point x="278" y="426" type="line"/>
			<point x="573" y="1116" type="line"/>
			<point x="929" y="426" type="line"/>
			<point x="1206" y="426" type="line"/>
			<point x="648" y="1475" type="line"/>
			<point x="484" y="1475" type="line"/>
		</contour>
	</outline>
	<note>
		asciicircum
	</note>
</glyph>
<glyph name="b" format="2">
	<unicode hex="0062"/>
	<advance width="1069"/>
	<outline>
		<contour>
			<point x="654" y="-20" type="curve" smooth="yes"/>
			<point x="877" y="-20"/>
			<point x="1003" y="196"/>
			<point x="1003" y="561" type="curve" smooth="yes"/>
			<point x="1003" y="928"/>
			<point x="876" y="1149"/>
			<point x="668" y="1149" type="curve" smooth="yes"/>
			<point x="572" y="1149"/>
			<point x="500" y="1102"/>
			<point x="437" y="980" type="curve"/>
			<point x="421" y="980" type="line"/>
			<point x="431" y="1093"/>
			<point x="439" y="1193"/>
			<point x="439" y="1243" type="curve" smooth="yes"/>
			<point x="439" y="1556" type="line"/>
			<point x="99" y="1556" type="line"/>
			<point x="99" y="0" type="line"/>
			<point x="346" y="0" type="line"/>
			<point x="405" y="117" type="line"/>
			<point x="426" y="117" type="line"/>
			<point x="496" y="11"/>
			<point x="570" y="-20"/>
		</contour>
		<contour>
			<point x="544" y="270" type="curve" smooth="yes"/>
			<point x="446" y="270"/>
			<point x="439" y="415"/>
			<point x="439" y="579" type="curve" smooth="yes"/>
			<point x="439" y="607" type="line" smooth="yes"/>
			<point x="439" y="742"/>
			<point x="456" y="863"/>
			<point x="541" y="863" type="curve" smooth="yes"/>
			<point x="620" y="863"/>
			<point x="657" y="762"/>
			<point x="657" y="568" type="curve" smooth="yes"/>
			<point x="657" y="435"/>
			<point x="640" y="270"/>
		</contour>
	</outline>
	<anchor name="bottom" x="535" y="0"/>
	<anchor name="top" x="535" y="1127"/>
</glyph>
<glyph name="d" format="2">
	<unicode hex="0064"/>
	<advance width="1069"/>
	<outline>
		<contour>
			<point x="409" y="-20" type="curve" smooth="yes"/>
			<point x="497" y="-20"/>
			<point x="589" y="19"/>
			<point x="653" y="141" type="curve"/>
			<point x="662" y="141" type="line"/>
			<point x="723" y="0" type="line"/>
			<point x="972" y="0" type="line"/>
			<point x="972" y="1556" type="line"/>
			<point x="633" y="1556" type="line"/>
			<point x="633" y="1233" type="line" smooth="yes"/>
			<point x="633" y="1177"/>
			<point x="637" y="1107"/>
			<point x="648" y="981" type="curve"/>
			<point x="629" y="981" type="line"/>
			<point x="567" y="1098"/>
			<point x="505" y="1148"/>
			<point x="405" y="1148" type="curve" smooth="yes"/>
			<point x="192" y="1148"/>
			<point x="65" y="920"/>
			<point x="65" y="566" type="curve" smooth="yes"/>
			<point x="65" y="202"/>
			<point x="199" y="-20"/>
		</contour>
		<contour>
			<point x="526" y="266" type="curve" smooth="yes"/>
			<point x="430" y="266"/>
			<point x="414" y="412"/>
			<point x="414" y="553" type="curve" smooth="yes"/>
			<point x="414" y="705"/>
			<point x="431" y="857"/>
			<point x="523" y="857" type="curve" smooth="yes"/>
			<point x="629" y="857"/>
			<point x="629" y="710"/>
			<point x="629" y="558" type="curve" smooth="yes"/>
			<point x="629" y="534" type="line" smooth="yes"/>
			<point x="629" y="398"/>
			<point x="622" y="266"/>
		</contour>
	</outline>
	<anchor name="bottom" x="535" y="0"/>
	<anchor name="center" x="535" y="563"/>
	<anchor name="top" x="535" y="1127"/>
	<anchor name="topright" x="1049" y="1127"/>
</glyph>
<glyph name="k" format="2">
	<unicode hex="006B"/>
	<advance width="1074"/>
	<outline>
		<contour>
			<point x="99" y="0" type="line"/>
			<point x="439" y="0" type="line"/>
			<point x="439" y="350" type="line"/>
			<point x="536" y="416" type="line"/>
			<point x="722" y="0" type="line"/>
			<point x="1077" y="0" type="line"/>
			<point x="765" y="644" type="line"/>
			<point x="1059" y="1127" type="line"/>
			<point x="701" y="1127" type="line"/>
			<point x="502" y="770" type="line" smooth="yes"/>
			<point x="476" y="723"/>
			<point x="455" y="675"/>
			<point x="432" y="627" type="curve"/>
			<point x="424" y="627" type="line"/>
			<point x="429" y="707"/>
			<point x="439" y="787"/>
			<point x="439" y="867" type="curve" smooth="yes"/>
			<point x="439" y="1556" type="line"/>
			<point x="99" y="1556" type="line"/>
		</contour>
	</outline>
	<anchor name="bottom" x="538" y="0"/>
	<anchor name="top" x="538" y="1127"/>
</glyph>
<glyph name="m" format="2">
	<unicode hex="006D"/>
	<advance width="1712"/>
	<outline>
		<contour>
			<point x="99" y="0" type="line"/>
			<point x="439" y="0" type="line"/>
			<point x="439" y="508" type="line" smooth="yes"/>
			<point x="439" y="636"/>
			<point x="450" y="727"/>
			<point x="474" y="783" type="curve" smooth="yes"/>
			<point x="500" y="844"/>
			<point x="540" y="865"/>
			<point x="580" y="865" type="curve" smooth="yes"/>
			<point x="655" y="865"/>
			<point x="691" y="791"/>
			<point x="691" y="632" type="curve" smooth="yes"/>
			<point x="691" y="0" type="line"/>
			<point x="1034" y="0" type="line"/>
			<point x="1034" y="500" type="line" smooth="yes"/>
			<point x="1034" y="628"/>
			<point x="1047" y="727"/>
			<point x="1068" y="781" type="curve" smooth="yes"/>
			<point x="1093" y="845"/>
			<point x="1136" y="865"/>
			<point x="1175" y="865" type="curve" smooth="yes"/>
			<point x="1250" y="865"/>
			<point x="1284" y="792"/>
			<point x="1284" y="632" type="curve" smooth="yes"/>
			<point x="1284" y="0" type="line"/>
			<point x="1626" y="0" type="line"/>
			<point x="1626" y="735" type="line" smooth="yes"/>
			<point x="1626" y="999"/>
			<point x="1507" y="1148"/>
			<point x="1304" y="1148" type="curve" smooth="yes"/>
			<point x="1176" y="1148"/>
			<point x="1078" y="1089"/>
			<point x="1013" y="952" type="curve"/>
			<point x="999" y="952" type="line"/>
			<point x="949" y="1084"/>
			<point x="842" y="1148"/>
			<point x="709" y="1148" type="curve" smooth="yes"/>
			<point x="591" y="1148"/>
			<point x="487" y="1097"/>
			<point x="429" y="987" type="curve"/>
			<point x="409" y="987" type="line"/>
			<point x="366" y="1127" type="line"/>
			<point x="99" y="1127" type="line"/>
		</contour>
	</outline>
	<anchor name="bottom" x="856" y="0"/>
	<anchor name="top" x="856" y="1127"/>
</glyph>
<glyph name="p" format="2">
	<unicode hex="0070"/>
	<advance width="1069"/>
	<outline>
		<contour>
			<point x="99" y="-492" type="line"/>
			<point x="442" y="-492" type="line"/>
			<point x="442" y="-66" type="line" smooth="yes"/>
			<point x="442" y="-47"/>
			<point x="437" y="4"/>
			<point x="422" y="117" type="curve"/>
			<point x="437" y="117" type="line"/>
			<point x="504" y="13"/>
			<point x="569" y="-20"/>
			<point x="653" y="-20" type="curve" smooth="yes"/>
			<point x="872" y="-20"/>
			<point x="1003" y="204"/>
			<point x="1003" y="570" type="curve" smooth="yes"/>
			<point x="1003" y="927"/>
			<point x="878" y="1148"/>
			<point x="673" y="1148" type="curve" smooth="yes"/>
			<point x="573" y="1148"/>
			<point x="490" y="1096"/>
			<point x="435" y="983" type="curve"/>
			<point x="422" y="983" type="line"/>
			<point x="360" y="1127" type="line"/>
			<point x="99" y="1127" type="line"/>
		</contour>
		<contour>
			<point x="547" y="270" type="curve" smooth="yes"/>
			<point x="455" y="270"/>
			<point x="439" y="410"/>
			<point x="439" y="566" type="curve" smooth="yes"/>
			<point x="439" y="602" type="line" smooth="yes"/>
			<point x="439" y="735"/>
			<point x="456" y="863"/>
			<point x="547" y="863" type="curve" smooth="yes"/>
			<point x="646" y="863"/>
			<point x="657" y="715"/>
			<point x="657" y="573" type="curve" smooth="yes"/>
			<point x="657" y="425"/>
			<point x="641" y="270"/>
		</contour>
	</outline>
	<anchor name="bottom" x="535" y="0"/>
	<anchor name="top" x="535" y="1127"/>
</glyph>
<glyph name="u" format="2">
	<unicode hex="0075"/>
	<advance width="1034"/>
	<outline>
		<contour>
			<point x="406" y="-20" type="curve" smooth="yes"/>
			<point x="548" y="-20"/>
			<point x="639" y="50"/>
			<point x="687" y="139" type="curve"/>
			<point x="704" y="139" type="line"/>
			<point x="745" y="0" type="line"/>
			<point x="1014" y="0" type="line"/>
			<point x="1014" y="1127" type="line"/>
			<point x="672" y="1127" type="line"/>
			<point x="672" y="619" type="line" smooth="yes"/>
			<point x="672" y="493"/>
			<point x="661" y="399"/>
			<point x="643" y="349" type="curve" smooth="yes"/>
			<point x="621" y="288"/>
			<point x="579" y="263"/>
			<point x="536" y="263" type="curve" smooth="yes"/>
			<point x="459" y="263"/>
			<point x="429" y="342"/>
			<point x="429" y="483" type="curve" smooth="yes"/>
			<point x="429" y="1127" type="line"/>
			<point x="86" y="1127" type="line"/>
			<point x="86" y="392" type="line" smooth="yes"/>
			<point x="86" y="121"/>
			<point x="205" y="-20"/>
		</contour>
	</outline>
	<anchor name="bottom" x="517" y="0"/>
	<anchor name="ogonek" x="1031" y="10"/>
	<anchor name="top" x="517" y="1127"/>
	<anchor name="topright" x="1014" y="1127"/>
</glyph>
<glyph name="v" format="2">
	<unicode hex="0076"/>
	<advance width="1026"/>
	<outline>
		<contour>
			<point x="302" y="0" type="line"/>
			<point x="724" y="0" type="line"/>
			<point x="1031" y="1127" type="line"/>
			<point x="678" y="1127" type="line"/>
			<point x="543" y="504" type="line" smooth="yes"/>
			<point x="532" y="453"/>
			<point x="514" y="284"/>
			<point x="514" y="251" type="curve"/>
			<point x="512" y="251" type="line"/>
			<point x="512" y="284"/>
			<point x="494" y="453"/>
			<point x="483" y="504" type="curve" smooth="yes"/>
			<point x="348" y="1127" type="line"/>
			<point x="-5" y="1127" type="line"/>
		</contour>
	</outline>
	<anchor name="bottom" x="513" y="0"/>
	<anchor name="top" x="513" y="1127"/>
</glyph>
<glyph name="exclamdown" format="2">
	<unicode hex="00A1"/>
	<advance width="599"/>
	<outline>
		<contour>
			<point x="91" y="-359" type="line"/>
			<point x="499" y="-359" type="line"/>
			<point x="442" y="586" type="line"/>
			<point x="150" y="586" type="line"/>
		</contour>
		<contour>
			<point x="296" y="756" type="curve" smooth="yes"/>
			<point x="432" y="756"/>
			<point x="502" y="826"/>
			<point x="502" y="943" type="curve" smooth="yes"/>
			<point x="502" y="1057"/>
			<point x="432" y="1132"/>
			<point x="296" y="1132" type="curve" smooth="yes"/>
			<point x="173" y="1132"/>
			<point x="96" y="1061"/>
			<point x="96" y="943" type="curve" smooth="yes"/>
			<point x="96" y="822"/>
			<point x="169" y="756"/>
		</contour>
	</outline>
	<note>
		exclamdown
	</note>
</glyph>
<glyph name="currency" format="2">
	<unicode hex="00A4"/>
	<advance width="1102"/>
	<outline>
		<contour>
			<point x="854" y="251" type="line"/>
			<point x="1023" y="419" type="line"/>
			<point x="902" y="539" type="line"/>
			<point x="929" y="593"/>
			<point x="942" y="655"/>
			<point x="942" y="724" type="curve" smooth="yes"/>
			<point x="942" y="787"/>
			<point x="929" y="849"/>
			<point x="902" y="907" type="curve"/>
			<point x="1028" y="1033" type="line"/>
			<point x="855" y="1199" type="line"/>
			<point x="729" y="1073" type="line"/>
			<point x="671" y="1102"/>
			<point x="611" y="1116"/>
			<point x="551" y="1116" type="curve" smooth="yes"/>
			<point x="488" y="1116"/>
			<point x="427" y="1103"/>
			<point x="370" y="1076" type="curve"/>
			<point x="246" y="1199" type="line"/>
			<point x="75" y="1027" type="line"/>
			<point x="201" y="905" type="line"/>
			<point x="171" y="842"/>
			<point x="157" y="780"/>
			<point x="157" y="724" type="curve" smooth="yes"/>
			<point x="157" y="658"/>
			<point x="171" y="598"/>
			<point x="201" y="542" type="curve"/>
			<point x="77" y="421" type="line"/>
			<point x="246" y="253" type="line"/>
			<point x="367" y="371" type="line"/>
			<point x="416" y="346"/>
			<point x="475" y="333"/>
			<point x="552" y="333" type="curve" smooth="yes"/>
			<point x="610" y="333"/>
			<point x="670" y="346"/>
			<point x="729" y="371" type="curve"/>
		</contour>
		<contour>
			<point x="550" y="573" type="curve" smooth="yes"/>
			<point x="467" y="573"/>
			<point x="400" y="640"/>
			<point x="400" y="722" type="curve" smooth="yes"/>
			<point x="400" y="809"/>
			<point x="467" y="875"/>
			<point x="550" y="875" type="curve" smooth="yes"/>
			<point x="638" y="875"/>
			<point x="703" y="807"/>
			<point x="703" y="722" type="curve" smooth="yes"/>
			<point x="703" y="642"/>
			<point x="635" y="573"/>
		</contour>
	</outline>
	<note>
		currency
	</note>
</glyph>
<glyph name="brokenbar" format="2">
	<unicode hex="00A6"/>
	<advance width="1132"/>
	<outline>
		<contour>
			<point x="439" y="-462" type="line"/>
			<point x="694" y="-462" type="line"/>
			<point x="694" y="352" type="line"/>
			<point x="439" y="352" type="line"/>
		</contour>
		<contour>
			<point x="439" y="737" type="line"/>
			<point x="694" y="737" type="line"/>
			<point x="694" y="1549" type="line"/>
			<point x="439" y="1549" type="line"/>
		</contour>
	</outline>
	<note>
		brokenbar
	</note>
</glyph>
<glyph name="paragraph" format="2">
	<unicode hex="00B6"/>
	<advance width="1132"/>
	<outline>
		<contour>
			<point x="498" y="-260" type="line"/>
			<point x="677" y="-260" type="line"/>
			<point x="677" y="1323" type="line"/>
			<point x="847" y="1323" type="line"/>
			<point x="847" y="-260" type="line"/>
			<point x="1025" y="-260" type="line"/>
			<point x="1025" y="1556" type="line"/>
			<point x="393" y="1556" type="line" smooth="yes"/>
			<point x="138" y="1556"/>
			<point x="26" y="1386"/>
			<point x="26" y="1042" type="curve" smooth="yes"/>
			<point x="26" y="746"/>
			<point x="115" y="541"/>
			<point x="377" y="541" type="curve" smooth="yes"/>
			<point x="424" y="541"/>
			<point x="464" y="547"/>
			<point x="498" y="559" type="curve"/>
		</contour>
	</outline>
	<note>
		paragraph
	</note>
</glyph>
<glyph name="guillemetright" format="2">
	<unicode hex="00BB"/>
	<advance width="1263"/>
	<outline>
		<contour>
			<point x="328" y="76" type="line"/>
			<point x="645" y="556" type="line"/>
			<point x="645" y="582" type="line"/>
			<point x="328" y="1063" type="line"/>
			<point x="70" y="919" type="line"/>
			<point x="290" y="570" type="line"/>
			<point x="70" y="220" type="line"/>
		</contour>
		<contour>
			<point x="877" y="76" type="line"/>
			<point x="1192" y="556" type="line"/>
			<point x="1192" y="582" type="line"/>
			<point x="877" y="1063" type="line"/>
			<point x="619" y="919" type="line"/>
			<point x="838" y="570" type="line"/>
			<point x="619" y="220" type="line"/>
		</contour>
	</outline>
	<note>
		guillemotright
	</note>
</glyph>
<glyph name="Eth" format="2">
	<unicode hex="00D0"/>
	<advance width="1206"/>
	<outline>
		<contour>
			<point x="115" y="0" type="line"/>
			<point x="516" y="0" type="line" smooth="yes"/>
			<point x="911" y="0"/>
			<point x="1134" y="268"/>
			<point x="1134" y="745" type="curve" smooth="yes"/>
			<point x="1134" y="1190"/>
			<point x="917" y="1462"/>
			<point x="561" y="1462" type="curve" smooth="yes"/>
			<point x="115" y="1462" type="line"/>
			<point x="115" y="864" type="line"/>
			<point x="-27" y="864" type="line"/>
			<point x="-27" y="563" type="line"/>
			<point x="115" y="563" type="line"/>
		</contour>
		<contour>
			<point x="462" y="301" type="line"/>
			<point x="462" y="563" type="line"/>
			<point x="627" y="563" type="line"/>
			<point x="627" y="864" type="line"/>
			<point x="462" y="864" type="line"/>
			<point x="462" y="1165" type="line"/>
			<point x="548" y="1165" type="line" smooth="yes"/>
			<point x="704" y="1165"/>
			<point x="779" y="1027"/>
			<point x="779" y="736" type="curve" smooth="yes"/>
			<point x="779" y="442"/>
			<point x="697" y="301"/>
			<point x="521" y="301" type="curve" smooth="yes"/>
		</contour>
	</outline>
	<note>
		Eth
	</note>
</glyph>
<glyph name="ldot" format="2">
	<unicode hex="0140"/>
	<advance width="938"/>
	<outline>
		<contour>
			<point x="439" y="1556" type="line"/>
			<point x="99" y="1556" type="line"/>
			<point x="99" y="0" type="line"/>
			<point x="439" y="0" type="line"/>
		</contour>
		<contour>
			<point x="540" y="702" type="curve" smooth="yes"/>
			<point x="540" y="589"/>
			<point x="606" y="537"/>
			<point x="732" y="537" type="curve" smooth="yes"/>
			<point x="856" y="537"/>
			<point x="926" y="589"/>
			<point x="926" y="702" type="curve" smooth="yes"/>
			<point x="926" y="811"/>
			<point x="862" y="865"/>
			<point x="732" y="865" type="curve" smooth="yes"/>
			<point x="601" y="865"/>
			<point x="540" y="811"/>
		</contour>
	</outline>
	<note>
		ldot
	</note>
</glyph>
<glyph name="eng" format="2">
	<unicode hex="014B"/>
	<advance width="1110"/>
	<outline>
		<contour>
			<point x="658" y="-492" type="curve" smooth="yes"/>
			<point x="894" y="-492"/>
			<point x="1025" y="-345"/>
			<point x="1025" y="-99" type="curve" smooth="yes"/>
			<point x="1025" y="735" type="line" smooth="yes"/>
			<point x="1025" y="1004"/>
			<point x="906" y="1148"/>
			<point x="702" y="1148" type="curve" smooth="yes"/>
			<point x="577" y="1148"/>
			<point x="482" y="1094"/>
			<point x="430" y="987" type="curve"/>
			<point x="409" y="987" type="line"/>
			<point x="366" y="1127" type="line"/>
			<point x="99" y="1127" type="line"/>
			<point x="99" y="0" type="line"/>
			<point x="439" y="0" type="line"/>
			<point x="439" y="508" type="line" smooth="yes"/>
			<point x="439" y="643"/>
			<point x="450" y="730"/>
			<point x="470" y="781" type="curve" smooth="yes"/>
			<point x="490" y="832"/>
			<point x="527" y="865"/>
			<point x="577" y="865" type="curve" smooth="yes"/>
			<point x="655" y="865"/>
			<point x="682" y="787"/>
			<point x="682" y="629" type="curve" smooth="yes"/>
			<point x="682" y="-42" type="line" smooth="yes"/>
			<point x="682" y="-153"/>
			<point x="651" y="-206"/>
			<point x="584" y="-206" type="curve" smooth="yes"/>
			<point x="556" y="-206"/>
			<point x="519" y="-197"/>
			<point x="488" y="-186" type="curve"/>
			<point x="488" y="-463" type="line"/>
			<point x="532" y="-483"/>
			<point x="599" y="-492"/>
		</contour>
	</outline>
	<note>
		eng
	</note>
</glyph>
<glyph name="tbar" format="2">
	<unicode hex="0167"/>
	<advance width="757"/>
	<outline>
		<contour>
			<point x="477" y="-20" type="curve" smooth="yes"/>
			<point x="580" y="-20"/>
			<point x="657" y="-1"/>
			<point x="706" y="36" type="curve"/>
			<point x="706" y="299" type="line"/>
			<point x="654" y="275"/>
			<point x="607" y="263"/>
			<point x="567" y="263" type="curve" smooth="yes"/>
			<point x="515" y="263"/>
			<point x="485" y="298"/>
			<point x="485" y="342" type="curve" smooth="yes"/>
			<point x="485" y="473" type="line"/>
			<point x="671" y="473" type="line"/>
			<point x="671" y="705" type="line"/>
			<point x="485" y="705" type="line"/>
			<point x="485" y="861" type="line"/>
			<point x="699" y="861" type="line"/>
			<point x="699" y="1127" type="line"/>
			<point x="485" y="1127" type="line"/>
			<point x="485" y="1359" type="line"/>
			<point x="270" y="1359" type="line"/>
			<point x="186" y="1132" type="line"/>
			<point x="28" y="1007" type="line"/>
			<point x="28" y="861" type="line"/>
			<point x="141" y="861" type="line"/>
			<point x="141" y="705" type="line"/>
			<point x="28" y="705" type="line"/>
			<point x="28" y="473" type="line"/>
			<point x="141" y="473" type="line"/>
			<point x="141" y="367" type="line" smooth="yes"/>
			<point x="141" y="109"/>
			<point x="248" y="-20"/>
		</contour>
	</outline>
	<note>
		tbar
	</note>
</glyph>
<glyph name="ohorn" format="2">
	<unicode hex="01A1"/>
	<advance width="1235"/>
	<outline>
		<contour>
			<point x="544" y="-20" type="curve" smooth="yes"/>
			<point x="830" y="-20"/>
			<point x="1015" y="200"/>
			<point x="1015" y="563" type="curve" smooth="yes"/>
			<point x="1015" y="673"/>
			<point x="998" y="768"/>
			<point x="964" y="849" type="curve"/>
			<point x="1144" y="917"/>
			<point x="1245" y="1027"/>
			<point x="1311" y="1279" type="curve"/>
			<point x="1297" y="1298" type="line"/>
			<point x="933" y="1298" type="line"/>
			<point x="930" y="1177"/>
			<point x="896" y="1089"/>
			<point x="840" y="1043" type="curve"/>
			<point x="757" y="1111"/>
			<point x="658" y="1148"/>
			<point x="541" y="1148" type="curve" smooth="yes"/>
			<point x="251" y="1148"/>
			<point x="65" y="921"/>
			<point x="65" y="569" type="curve" smooth="yes"/>
			<point x="65" y="245"/>
			<point x="234" y="-20"/>
		</contour>
		<contour>
			<point x="539" y="268" type="curve" smooth="yes"/>
			<point x="502" y="268"/>
			<point x="468" y="285"/>
			<point x="447" y="328" type="curve" smooth="yes"/>
			<point x="426" y="371"/>
			<point x="412" y="453"/>
			<point x="412" y="568" type="curve" smooth="yes"/>
			<point x="412" y="661"/>
			<point x="421" y="736"/>
			<point x="444" y="789" type="curve" smooth="yes"/>
			<point x="465" y="837"/>
			<point x="497" y="860"/>
			<point x="541" y="860" type="curve" smooth="yes"/>
			<point x="588" y="860"/>
			<point x="623" y="833"/>
			<point x="642" y="786" type="curve" smooth="yes"/>
			<point x="660" y="742"/>
			<point x="670" y="664"/>
			<point x="670" y="565" type="curve" smooth="yes"/>
			<point x="670" y="469"/>
			<point x="662" y="396"/>
			<point x="641" y="348" type="curve" smooth="yes"/>
			<point x="618" y="294"/>
			<point x="586" y="268"/>
		</contour>
	</outline>
	<anchor name="bottom" x="539" y="0"/>
	<anchor name="top" x="543" y="1127"/>
	<note>
		ohorn
	</note>
</glyph>
<glyph name="acutecomb" format="2">
	<unicode hex="0301"/>
	<outline>
		<contour>
			<point x="-282" y="1241" type="line"/>
			<point x="-35" y="1241" type="line"/>
			<point x="93" y="1344"/>
			<point x="259" y="1504"/>
			<point x="282" y="1545" type="curve"/>
			<point x="282" y="1569" type="line"/>
			<point x="-119" y="1569" type="line"/>
			<point x="-143" y="1513"/>
			<point x="-238" y="1326"/>
			<point x="-282" y="1271" type="curve"/>
		</contour>
	</outline>
	<anchor name="_top" x="-69" y="1158"/>
	<anchor name="top" x="0" y="1569"/>
	<note>
		acutecomb
	</note>
</glyph>
<glyph name="dieresiscomb" format="2">
	<unicode hex="0308"/>
	<outline>
		<contour>
			<point x="985" y="1263" type="curve" smooth="yes"/>
			<point x="1088" y="1263"/>
			<point x="1147" y="1320"/>
			<point x="1147" y="1409" type="curve" smooth="yes"/>
			<point x="1147" y="1502"/>
			<point x="1085" y="1559"/>
			<point x="985" y="1559" type="curve" smooth="yes"/>
			<point x="879" y="1559"/>
			<point x="821" y="1501"/>
			<point x="821" y="1409" type="curve" smooth="yes"/>
			<point x="821" y="1322"/>
			<point x="880" y="1263"/>
		</contour>
		<contour>
			<point x="544" y="1263" type="curve" smooth="yes"/>
			<point x="648" y="1263"/>
			<point x="708" y="1324"/>
			<point x="708" y="1409" type="curve" smooth="yes"/>
			<point x="708" y="1496"/>
			<point x="648" y="1559"/>
			<point x="544" y="1559" type="curve" smooth="yes"/>
			<point x="440" y="1559"/>
			<point x="383" y="1502"/>
			<point x="383" y="1409" type="curve" smooth="yes"/>
			<point x="383" y="1318"/>
			<point x="440" y="1263"/>
		</contour>
	</outline>
	<anchor name="_top" x="765" y="1152"/>
	<anchor name="top" x="765" y="1559"/>
	<note>
		dieresis
	</note>
</glyph>
<glyph name="hungarumlautcomb" format="2">
	<unicode hex="030B"/>
	<outline>
		<contour>
			<point x="694" y="1241" type="line"/>
			<point x="887" y="1241" type="line"/>
			<point x="1016" y="1346"/>
			<point x="1193" y="1506"/>
			<point x="1219" y="1545" type="curve"/>
			<point x="1219" y="1569" type="line"/>
			<point x="870" y="1569" type="line"/>
			<point x="842" y="1510"/>
			<point x="756" y="1359"/>
			<point x="694" y="1271" type="curve"/>
		</contour>
		<contour>
			<point x="250" y="1241" type="line"/>
			<point x="445" y="1241" type="line"/>
			<point x="539" y="1311"/>
			<point x="737" y="1490"/>
			<point x="775" y="1545" type="curve"/>
			<point x="775" y="1569" type="line"/>
			<point x="425" y="1569" type="line"/>
			<point x="397" y="1509"/>
			<point x="312" y="1359"/>
			<point x="250" y="1271" type="curve"/>
		</contour>
	</outline>
	<anchor name="_top" x="735" y="1127"/>
	<anchor name="top" x="735" y="1569"/>
	<note>
		hungarumlaut
	</note>
</glyph>
<glyph name="commaturnedabovecomb" format="2">
	<unicode hex="0312"/>
	<outline>
		<contour>
			<point x="222" y="1241" type="line"/>
			<point x="553" y="1241" type="line"/>
			<point x="562" y="1312"/>
			<point x="581" y="1436"/>
			<point x="605" y="1539" type="curve"/>
			<point x="605" y="1569" type="line"/>
			<point x="389" y="1569" type="line"/>
			<point x="321" y="1452"/>
			<point x="277" y="1374"/>
			<point x="222" y="1262" type="curve"/>
		</contour>
	</outline>
	<anchor name="_top" x="414" y="1127"/>
	<anchor name="top" x="414" y="1569"/>
</glyph>
<glyph name="cedillacomb" format="2">
	<unicode hex="0327"/>
	<outline>
		<contour>
			<point x="146" y="-492" type="curve" smooth="yes"/>
			<point x="368" y="-492"/>
			<point x="461" y="-394"/>
			<point x="461" y="-246" type="curve" smooth="yes"/>
			<point x="461" y="-142"/>
			<point x="391" y="-81"/>
			<point x="307" y="-60" type="curve"/>
			<point x="339" y="0" type="line"/>
			<point x="124" y="0" type="line"/>
			<point x="41" y="-157" type="line"/>
			<point x="145" y="-174"/>
			<point x="195" y="-209"/>
			<point x="195" y="-257" type="curve" smooth="yes"/>
			<point x="195" y="-288"/>
			<point x="176" y="-300"/>
			<point x="135" y="-300" type="curve" smooth="yes"/>
			<point x="91" y="-300"/>
			<point x="44" y="-293"/>
			<point x="-6" y="-280" type="curve"/>
			<point x="-6" y="-466" type="line"/>
			<point x="42" y="-484"/>
			<point x="92" y="-492"/>
		</contour>
	</outline>
	<anchor name="_bottom" x="228" y="0"/>
	<anchor name="bottom" x="228" y="-492"/>
	<note>
		cedilla
	</note>
</glyph>
<glyph name="ogonekcomb" format="2">
	<unicode hex="0328"/>
	<outline>
		<contour>
			<point x="395" y="-499" type="curve" smooth="yes"/>
			<point x="432" y="-499"/>
			<point x="478" y="-493"/>
			<point x="537" y="-481" type="curve"/>
			<point x="537" y="-272" type="line"/>
			<point x="502" y="-283"/>
			<point x="474" y="-289"/>
			<point x="447" y="-289" type="curve" smooth="yes"/>
			<point x="417" y="-289"/>
			<point x="385" y="-269"/>
			<point x="385" y="-215" type="curve" smooth="yes"/>
			<point x="385" y="-160"/>
			<point x="428" y="-84"/>
			<point x="510" y="0" type="curve"/>
			<point x="302" y="0" type="line"/>
			<point x="186" y="-91"/>
			<point x="138" y="-169"/>
			<point x="138" y="-261" type="curve" smooth="yes"/>
			<point x="138" y="-404"/>
			<point x="245" y="-499"/>
		</contour>
	</outline>
	<anchor name="_ogonek" x="554" y="10"/>
	<note>
		ogonek
	</note>
</glyph>
<glyph name="tildebelowcomb" format="2">
	<unicode hex="0330"/>
	<outline>
		<contour>
			<point x="-376" y="-377" type="curve"/>
			<point x="-271" y="-377" type="line"/>
			<point x="-253" y="-297"/>
			<point x="-224" y="-258"/>
			<point x="-159" y="-258" type="curve" smooth="yes"/>
			<point x="-69" y="-258"/>
			<point x="38" y="-375"/>
			<point x="153" y="-375" type="curve" smooth="yes"/>
			<point x="282" y="-375"/>
			<point x="359" y="-272"/>
			<point x="376" y="-113" type="curve"/>
			<point x="273" y="-113" type="line"/>
			<point x="253" y="-193"/>
			<point x="224" y="-231"/>
			<point x="161" y="-231" type="curve" smooth="yes"/>
			<point x="75" y="-231"/>
			<point x="-30" y="-115"/>
			<point x="-151" y="-115" type="curve" smooth="yes"/>
			<point x="-280" y="-115"/>
			<point x="-359" y="-215"/>
		</contour>
	</outline>
	<anchor name="_bottom" x="1" y="0"/>
	<anchor name="bottom" x="5" y="-377"/>
</glyph>
<glyph name="tonos" format="2">
	<unicode hex="0384"/>
	<advance width="1063"/>
	<outline>
		<contour>
			<point x="337" y="1241" type="line"/>
			<point x="548" y="1241" type="line"/>
			<point x="632" y="1365"/>
			<point x="685" y="1444"/>
			<point x="726" y="1522" type="curve"/>
			<point x="726" y="1548" type="line"/>
			<point x="399" y="1548" type="line"/>
			<point x="378" y="1421"/>
			<point x="365" y="1361"/>
			<point x="337" y="1277" type="curve"/>
		</contour>
	</outline>
	<anchor name="_top" x="532" y="1127"/>
	<anchor name="_topleft" x="711" y="1556"/>
	<note>
		tonos
	</note>
</glyph>
<glyph name="eta" format="2">
	<unicode hex="03B7"/>
	<advance width="1110"/>
	<outline>
		<contour>
			<point x="682" y="-492" type="line"/>
			<point x="1025" y="-492" type="line"/>
			<point x="1025" y="717" type="line" smooth="yes"/>
			<point x="1025" y="991"/>
			<point x="922" y="1148"/>
			<point x="691" y="1148" type="curve" smooth="yes"/>
			<point x="581" y="1148"/>
			<point x="478" y="1092"/>
			<point x="429" y="987" type="curve"/>
			<point x="409" y="987" type="line"/>
			<point x="366" y="1127" type="line"/>
			<point x="99" y="1127" type="line"/>
			<point x="99" y="0" type="line"/>
			<point x="439" y="0" type="line"/>
			<point x="439" y="508" type="line" smooth="yes"/>
			<point x="439" y="645"/>
			<point x="450" y="740"/>
			<point x="476" y="792" type="curve" smooth="yes"/>
			<point x="499" y="839"/>
			<point x="527" y="862"/>
			<point x="579" y="862" type="curve" smooth="yes"/>
			<point x="654" y="862"/>
			<point x="682" y="777"/>
			<point x="682" y="629" type="curve" smooth="yes"/>
		</contour>
	</outline>
	<anchor name="top" x="554" y="1127"/>
	<note>
		eta
	</note>
</glyph>
<glyph name="iota" format="2">
	<unicode hex="03B9"/>
	<advance width="646"/>
	<outline>
		<contour>
			<point x="434" y="-20" type="curve" smooth="yes"/>
			<point x="503" y="-20"/>
			<point x="565" y="-9"/>
			<point x="618" y="15" type="curve"/>
			<point x="618" y="281" type="line"/>
			<point x="569" y="267"/>
			<point x="546" y="263"/>
			<point x="521" y="263" type="curve" smooth="yes"/>
			<point x="477" y="263"/>
			<point x="439" y="308"/>
			<point x="439" y="385" type="curve" smooth="yes"/>
			<point x="439" y="1127" type="line"/>
			<point x="96" y="1127" type="line"/>
			<point x="96" y="374" type="line" smooth="yes"/>
			<point x="96" y="99"/>
			<point x="201" y="-20"/>
		</contour>
	</outline>
	<anchor name="top" x="323" y="1127"/>
	<note>
		iota
	</note>
</glyph>
<glyph name="nu" format="2">
	<unicode hex="03BD"/>
	<advance width="1042"/>
	<outline>
		<contour>
			<point x="307" y="0" type="line"/>
			<point x="640" y="0" type="line"/>
			<point x="885" y="306"/>
			<point x="991" y="631"/>
			<point x="991" y="1127" type="curve"/>
			<point x="656" y="1127" type="line"/>
			<point x="656" y="697"/>
			<point x="618" y="502"/>
			<point x="515" y="311" type="curve"/>
			<point x="508" y="311" type="line"/>
			<point x="494" y="436"/>
			<point x="487" y="480"/>
			<point x="473" y="540" type="curve" smooth="yes"/>
			<point x="339" y="1127" type="line"/>
			<point x="-14" y="1127" type="line"/>
		</contour>
	</outline>
	<note>
		nu
	</note>
</glyph>
<glyph name="sigmafinal" format="2">
	<unicode hex="03C2"/>
	<advance width="801"/>
	<outline>
		<contour>
			<point x="334" y="-367" type="curve"/>
			<point x="657" y="-367" type="line"/>
			<point x="737" y="-263"/>
			<point x="790" y="-126"/>
			<point x="790" y="3" type="curve" smooth="yes"/>
			<point x="790" y="70"/>
			<point x="776" y="131"/>
			<point x="738" y="181" type="curve" smooth="yes"/>
			<point x="709" y="219"/>
			<point x="664" y="252"/>
			<point x="598" y="289" type="curve" smooth="yes"/>
			<point x="550" y="316"/>
			<point x="515" y="337"/>
			<point x="488" y="355" type="curve" smooth="yes"/>
			<point x="419" y="404"/>
			<point x="411" y="443"/>
			<point x="411" y="565" type="curve" smooth="yes"/>
			<point x="411" y="617"/>
			<point x="414" y="714"/>
			<point x="427" y="765" type="curve" smooth="yes"/>
			<point x="442" y="824"/>
			<point x="482" y="860"/>
			<point x="539" y="860" type="curve" smooth="yes"/>
			<point x="579" y="860"/>
			<point x="632" y="842"/>
			<point x="690" y="805" type="curve"/>
			<point x="787" y="1062" type="line"/>
			<point x="690" y="1120"/>
			<point x="596" y="1148"/>
			<point x="489" y="1148" type="curve" smooth="yes"/>
			<point x="205" y="1148"/>
			<point x="64" y="949"/>
			<point x="64" y="555" type="curve" smooth="yes"/>
			<point x="64" y="440"/>
			<point x="76" y="360"/>
			<point x="107" y="289" type="curve" smooth="yes"/>
			<point x="131" y="234"/>
			<point x="174" y="171"/>
			<point x="260" y="110" type="curve" smooth="yes"/>
			<point x="289" y="89"/>
			<point x="322" y="69"/>
			<point x="361" y="49" type="curve" smooth="yes"/>
			<point x="429" y="15"/>
			<point x="463" y="-3"/>
			<point x="463" y="-60" type="curve" smooth="yes"/>
			<point x="463" y="-121"/>
			<point x="425" y="-217"/>
		</contour>
	</outline>
	<note>
		sigma1
	</note>
</glyph>
<glyph name="ThetaSymbol" format="2">
	<unicode hex="03F4"/>
	<advance width="1602"/>
	<outline>
		<contour>
			<point x="801" y="-20" type="curve" smooth="yes"/>
			<point x="1241" y="-20"/>
			<point x="1475" y="281"/>
			<point x="1475" y="733" type="curve" smooth="yes"/>
			<point x="1475" y="1188"/>
			<point x="1241" y="1485"/>
			<point x="803" y="1485" type="curve" smooth="yes"/>
			<point x="344" y="1485"/>
			<point x="125" y="1184"/>
			<point x="125" y="735" type="curve" smooth="yes"/>
			<point x="125" y="283"/>
			<point x="344" y="-20"/>
		</contour>
		<contour>
			<point x="801" y="139" type="curve" smooth="yes"/>
			<point x="487" y="139"/>
			<point x="338" y="336"/>
			<point x="322" y="666" type="curve"/>
			<point x="1278" y="666" type="line"/>
			<point x="1262" y="336"/>
			<point x="1112" y="139"/>
		</contour>
		<contour>
			<point x="322" y="825" type="line"/>
			<point x="346" y="1137"/>
			<point x="496" y="1323"/>
			<point x="803" y="1323" type="curve" smooth="yes"/>
			<point x="1106" y="1323"/>
			<point x="1251" y="1137"/>
			<point x="1276" y="825" type="curve"/>
		</contour>
	</outline>
</glyph>
<glyph name="Zhe-cy" format="2">
	<unicode hex="0416"/>
	<advance width="1651"/>
	<outline>
		<contour>
			<point x="374" y="0" type="line"/>
			<point x="664" y="737" type="line"/>
			<point x="664" y="0" type="line"/>
			<point x="985" y="0" type="line"/>
			<point x="985" y="737" type="line"/>
			<point x="1278" y="0" type="line"/>
			<point x="1651" y="0" type="line"/>
			<point x="1307" y="763" type="line"/>
			<point x="1648" y="1462" type="line"/>
			<point x="1292" y="1462" type="line"/>
			<point x="985" y="753" type="line"/>
			<point x="985" y="1462" type="line"/>
			<point x="664" y="1462" type="line"/>
			<point x="664" y="753" type="line"/>
			<point x="356" y="1462" type="line"/>
			<point x="3" y="1462" type="line"/>
			<point x="345" y="759" type="line"/>
			<point x="0" y="0" type="line"/>
		</contour>
	</outline>
	<anchor name="bottomright" x="1631" y="0"/>
	<anchor name="top" x="827" y="1462"/>
	<note>
		afii10024
	</note>
</glyph>
<glyph name="Ze-cy" format="2">
	<unicode hex="0417"/>
	<advance width="1067"/>
	<outline>
		<contour>
			<point x="491" y="-20" type="curve" smooth="yes"/>
			<point x="815" y="-20"/>
			<point x="1020" y="151"/>
			<point x="1020" y="424" type="curve" smooth="yes"/>
			<point x="1020" y="618"/>
			<point x="880" y="738"/>
			<point x="643" y="766" type="curve"/>
			<point x="643" y="774" type="line"/>
			<point x="865" y="815"/>
			<point x="982" y="934"/>
			<point x="982" y="1111" type="curve" smooth="yes"/>
			<point x="982" y="1332"/>
			<point x="807" y="1483"/>
			<point x="549" y="1483" type="curve" smooth="yes"/>
			<point x="355" y="1483"/>
			<point x="208" y="1439"/>
			<point x="51" y="1311" type="curve"/>
			<point x="208" y="1080" type="line"/>
			<point x="301" y="1160"/>
			<point x="391" y="1195"/>
			<point x="485" y="1195" type="curve" smooth="yes"/>
			<point x="590" y="1195"/>
			<point x="645" y="1141"/>
			<point x="645" y="1055" type="curve" smooth="yes"/>
			<point x="645" y="945"/>
			<point x="563" y="898"/>
			<point x="367" y="898" type="curve" smooth="yes"/>
			<point x="287" y="898" type="line"/>
			<point x="287" y="619" type="line"/>
			<point x="383" y="619" type="line" smooth="yes"/>
			<point x="572" y="619"/>
			<point x="674" y="557"/>
			<point x="674" y="453" type="curve" smooth="yes"/>
			<point x="674" y="324"/>
			<point x="588" y="261"/>
			<point x="415" y="261" type="curve" smooth="yes"/>
			<point x="297" y="261"/>
			<point x="188" y="289"/>
			<point x="76" y="349" type="curve"/>
			<point x="76" y="55" type="line"/>
			<point x="168" y="6"/>
			<point x="308" y="-20"/>
		</contour>
	</outline>
	<anchor name="bottom" x="548" y="0"/>
	<anchor name="top" x="534" y="1462"/>
	<note>
		afii10025
	</note>
</glyph>
<glyph name="Ii-cy" format="2">
	<unicode hex="0418"/>
	<advance width="1364"/>
	<outline>
		<contour>
			<point x="115" y="0" type="line"/>
			<point x="542" y="0" type="line"/>
			<point x="945" y="953" type="line"/>
			<point x="960" y="953" type="line"/>
			<point x="943" y="886"/>
			<point x="932" y="800"/>
			<point x="932" y="695" type="curve" smooth="yes"/>
			<point x="932" y="0" type="line"/>
			<point x="1249" y="0" type="line"/>
			<point x="1249" y="1462" type="line"/>
			<point x="827" y="1462" type="line"/>
			<point x="424" y="517" type="line"/>
			<point x="411" y="517" type="line"/>
			<point x="427" y="577"/>
			<point x="434" y="677"/>
			<point x="434" y="753" type="curve" smooth="yes"/>
			<point x="434" y="1462" type="line"/>
			<point x="115" y="1462" type="line"/>
		</contour>
	</outline>
	<anchor name="bottomright" x="1344" y="0"/>
	<anchor name="top" x="682" y="1462"/>
	<note>
		afii10026
	</note>
</glyph>
<glyph name="Ef-cy" format="2">
	<unicode hex="0424"/>
	<advance width="1528"/>
	<outline>
		<contour>
			<point x="603" y="-20" type="line"/>
			<point x="926" y="-20" type="line"/>
			<point x="926" y="205" type="line"/>
			<point x="940" y="205" type="line" smooth="yes"/>
			<point x="1049" y="205"/>
			<point x="1136" y="224"/>
			<point x="1212" y="264" type="curve" smooth="yes"/>
			<point x="1375" y="350"/>
			<point x="1466" y="521"/>
			<point x="1466" y="764" type="curve" smooth="yes"/>
			<point x="1466" y="920"/>
			<point x="1428" y="1047"/>
			<point x="1357" y="1138" type="curve" smooth="yes"/>
			<point x="1275" y="1244"/>
			<point x="1147" y="1302"/>
			<point x="980" y="1302" type="curve" smooth="yes"/>
			<point x="926" y="1302" type="line"/>
			<point x="926" y="1483" type="line"/>
			<point x="603" y="1483" type="line"/>
			<point x="603" y="1303" type="line"/>
			<point x="556" y="1303" type="line" smooth="yes"/>
			<point x="451" y="1303"/>
			<point x="363" y="1279"/>
			<point x="291" y="1235" type="curve" smooth="yes"/>
			<point x="142" y="1144"/>
			<point x="60" y="970"/>
			<point x="60" y="744" type="curve" smooth="yes"/>
			<point x="60" y="597"/>
			<point x="95" y="466"/>
			<point x="167" y="374" type="curve" smooth="yes"/>
			<point x="258" y="257"/>
			<point x="405" y="204"/>
			<point x="585" y="204" type="curve" smooth="yes"/>
			<point x="603" y="204" type="line"/>
		</contour>
		<contour>
			<point x="589" y="459" type="line" smooth="yes"/>
			<point x="481" y="459"/>
			<point x="413" y="568"/>
			<point x="413" y="762" type="curve" smooth="yes"/>
			<point x="413" y="936"/>
			<point x="468" y="1047"/>
			<point x="563" y="1047" type="curve" smooth="yes"/>
			<point x="603" y="1047" type="line"/>
			<point x="603" y="459" type="line"/>
		</contour>
		<contour>
			<point x="926" y="459" type="line"/>
			<point x="926" y="1045" type="line"/>
			<point x="964" y="1045" type="line" smooth="yes"/>
			<point x="1056" y="1045"/>
			<point x="1112" y="938"/>
			<point x="1112" y="760" type="curve" smooth="yes"/>
			<point x="1112" y="569"/>
			<point x="1048" y="459"/>
			<point x="937" y="459" type="curve" smooth="yes"/>
		</contour>
	</outline>
	<note>
		afii10038
	</note>
</glyph>
<glyph name="Softsign-cy" format="2">
	<unicode hex="042C"/>
	<advance width="1030"/>
	<outline>
		<contour>
			<point x="115" y="0" type="line"/>
			<point x="504" y="0" type="line" smooth="yes"/>
			<point x="812" y="0"/>
			<point x="982" y="180"/>
			<point x="982" y="483" type="curve" smooth="yes"/>
			<point x="982" y="776"/>
			<point x="820" y="924"/>
			<point x="495" y="924" type="curve" smooth="yes"/>
			<point x="462" y="924" type="line"/>
			<point x="462" y="1462" type="line"/>
			<point x="115" y="1462" type="line"/>
		</contour>
		<contour>
			<point x="462" y="298" type="line"/>
			<point x="462" y="623" type="line"/>
			<point x="471" y="623" type="line" smooth="yes"/>
			<point x="594" y="623"/>
			<point x="632" y="583"/>
			<point x="632" y="471" type="curve" smooth="yes"/>
			<point x="632" y="356"/>
			<point x="586" y="298"/>
			<point x="491" y="298" type="curve" smooth="yes"/>
		</contour>
	</outline>
	<note>
		afii10046
	</note>
</glyph>
<glyph name="zhe-cy" format="2">
	<unicode hex="0436"/>
	<advance width="1596"/>
	<outline>
		<contour>
			<point x="-5" y="0" type="line"/>
			<point x="361" y="0" type="line"/>
			<point x="636" y="576" type="line"/>
			<point x="636" y="0" type="line"/>
			<point x="962" y="0" type="line"/>
			<point x="962" y="576" type="line"/>
			<point x="1235" y="0" type="line"/>
			<point x="1601" y="0" type="line"/>
			<point x="1287" y="591" type="line"/>
			<point x="1585" y="1127" type="line"/>
			<point x="1237" y="1127" type="line"/>
			<point x="962" y="583" type="line"/>
			<point x="962" y="1127" type="line"/>
			<point x="636" y="1127" type="line"/>
			<point x="636" y="583" type="line"/>
			<point x="363" y="1127" type="line"/>
			<point x="12" y="1127" type="line"/>
			<point x="308" y="591" type="line"/>
		</contour>
	</outline>
	<anchor name="bottomright" x="1576" y="0"/>
	<anchor name="top" x="799" y="1127"/>
	<note>
		afii10072
	</note>
</glyph>
<glyph name="softsign-cy" format="2">
	<unicode hex="044C"/>
	<advance width="1046"/>
	<outline>
		<contour>
			<point x="99" y="0" type="line"/>
			<point x="502" y="0" type="line" smooth="yes"/>
			<point x="834" y="0"/>
			<point x="992" y="120"/>
			<point x="992" y="372" type="curve" smooth="yes"/>
			<point x="992" y="601"/>
			<point x="846" y="707"/>
			<point x="512" y="707" type="curve" smooth="yes"/>
			<point x="439" y="707" type="line"/>
			<point x="439" y="1127" type="line"/>
			<point x="99" y="1127" type="line"/>
		</contour>
		<contour>
			<point x="439" y="247" type="line"/>
			<point x="439" y="460" type="line"/>
			<point x="487" y="460" type="line" smooth="yes"/>
			<point x="599" y="460"/>
			<point x="644" y="436"/>
			<point x="644" y="364" type="curve" smooth="yes"/>
			<point x="644" y="273"/>
			<point x="586" y="247"/>
			<point x="493" y="247" type="curve" smooth="yes"/>
		</contour>
	</outline>
	<note>
		afii10094
	</note>
</glyph>
<glyph name="ereversed-cy" format="2">
	<unicode hex="044D"/>
	<advance width="963"/>
	<outline>
		<contour>
			<point x="366" y="-20" type="curve" smooth="yes"/>
			<point x="711" y="-20"/>
			<point x="899" y="201"/>
			<point x="899" y="578" type="curve" smooth="yes"/>
			<point x="899" y="959"/>
			<point x="733" y="1148"/>
			<point x="396" y="1148" type="curve" smooth="yes"/>
			<point x="282" y="1148"/>
			<point x="169" y="1118"/>
			<point x="55" y="1058" type="curve"/>
			<point x="146" y="811" type="line"/>
			<point x="243" y="858"/>
			<point x="299" y="885"/>
			<point x="389" y="885" type="curve" smooth="yes"/>
			<point x="488" y="885"/>
			<point x="549" y="815"/>
			<point x="549" y="685" type="curve"/>
			<point x="222" y="685" type="line"/>
			<point x="222" y="443" type="line"/>
			<point x="549" y="443" type="line"/>
			<point x="533" y="331"/>
			<point x="457" y="248"/>
			<point x="350" y="248" type="curve" smooth="yes"/>
			<point x="277" y="248"/>
			<point x="218" y="259"/>
			<point x="54" y="338" type="curve"/>
			<point x="54" y="65" type="line"/>
			<point x="148" y="8"/>
			<point x="248" y="-20"/>
		</contour>
	</outline>
	<anchor name="top" x="482" y="1127"/>
	<note>
		afii10095
	</note>
</glyph>
<glyph name="iu-cy" format="2">
	<unicode hex="044E"/>
	<advance width="1566"/>
	<outline>
		<contour>
			<point x="1040" y="-20" type="curve" smooth="yes"/>
			<point x="1331" y="-20"/>
			<point x="1501" y="196"/>
			<point x="1501" y="565" type="curve" smooth="yes"/>
			<point x="1501" y="936"/>
			<point x="1330" y="1148"/>
			<point x="1043" y="1148" type="curve" smooth="yes"/>
			<point x="788" y="1148"/>
			<point x="622" y="982"/>
			<point x="586" y="710" type="curve"/>
			<point x="439" y="710" type="line"/>
			<point x="439" y="1127" type="line"/>
			<point x="99" y="1127" type="line"/>
			<point x="99" y="0" type="line"/>
			<point x="439" y="0" type="line"/>
			<point x="439" y="443" type="line"/>
			<point x="582" y="443" type="line"/>
			<point x="616" y="136"/>
			<point x="792" y="-20"/>
		</contour>
		<contour>
			<point x="1041" y="268" type="curve" smooth="yes"/>
			<point x="962" y="268"/>
			<point x="924" y="361"/>
			<point x="924" y="565" type="curve" smooth="yes"/>
			<point x="924" y="659"/>
			<point x="932" y="739"/>
			<point x="951" y="788" type="curve" smooth="yes"/>
			<point x="968" y="832"/>
			<point x="998" y="860"/>
			<point x="1040" y="860" type="curve" smooth="yes"/>
			<point x="1077" y="860"/>
			<point x="1115" y="838"/>
			<point x="1134" y="773" type="curve" smooth="yes"/>
			<point x="1149" y="722"/>
			<point x="1154" y="639"/>
			<point x="1154" y="566" type="curve" smooth="yes"/>
			<point x="1154" y="487"/>
			<point x="1148" y="406"/>
			<point x="1137" y="362" type="curve" smooth="yes"/>
			<point x="1123" y="305"/>
			<point x="1091" y="268"/>
		</contour>
	</outline>
	<anchor name="top" x="782" y="1127"/>
	<note>
		afii10096
	</note>
</glyph>
<glyph name="ia-cy" format="2">
	<unicode hex="044F"/>
	<advance width="1105"/>
	<outline>
		<contour>
			<point x="-13" y="0" type="line"/>
			<point x="370" y="0" type="line"/>
			<point x="581" y="395" type="line"/>
			<point x="666" y="395" type="line"/>
			<point x="666" y="0" type="line"/>
			<point x="1005" y="0" type="line"/>
			<point x="1005" y="1127" type="line"/>
			<point x="514" y="1127" type="line" smooth="yes"/>
			<point x="245" y="1127"/>
			<point x="78" y="989"/>
			<point x="78" y="762" type="curve" smooth="yes"/>
			<point x="78" y="613"/>
			<point x="138" y="507"/>
			<point x="259" y="444" type="curve"/>
		</contour>
		<contour>
			<point x="556" y="638" type="line" smooth="yes"/>
			<point x="467" y="638"/>
			<point x="422" y="679"/>
			<point x="422" y="758" type="curve" smooth="yes"/>
			<point x="422" y="838"/>
			<point x="456" y="880"/>
			<point x="524" y="880" type="curve" smooth="yes"/>
			<point x="666" y="880" type="line"/>
			<point x="666" y="638" type="line"/>
		</contour>
	</outline>
	<anchor name="top" x="552" y="1127"/>
	<note>
		afii10097
	</note>
</glyph>
<glyph name="Yat-cy" format="2">
	<unicode hex="0462"/>
	<advance width="1118"/>
	<outline>
		<contour>
			<point x="218" y="0" type="line"/>
			<point x="574" y="0" type="line" smooth="yes"/>
			<point x="904" y="0"/>
			<point x="1066" y="155"/>
			<point x="1066" y="469" type="curve" smooth="yes"/>
			<point x="1066" y="750"/>
			<point x="887" y="924"/>
			<point x="592" y="924" type="curve" smooth="yes"/>
			<point x="566" y="924" type="line"/>
			<point x="566" y="1110" type="line"/>
			<point x="794" y="1110" type="line"/>
			<point x="794" y="1382" type="line"/>
			<point x="566" y="1382" type="line"/>
			<point x="566" y="1556" type="line"/>
			<point x="218" y="1556" type="line"/>
			<point x="218" y="1382" type="line"/>
			<point x="3" y="1382" type="line"/>
			<point x="3" y="1110" type="line"/>
			<point x="218" y="1110" type="line"/>
		</contour>
		<contour>
			<point x="566" y="298" type="line"/>
			<point x="566" y="623" type="line"/>
			<point x="546" y="623" type="line" smooth="yes"/>
			<point x="678" y="623"/>
			<point x="716" y="580"/>
			<point x="716" y="469" type="curve" smooth="yes"/>
			<point x="716" y="334"/>
			<point x="667" y="298"/>
			<point x="573" y="298" type="curve" smooth="yes"/>
		</contour>
	</outline>
	<note>
		afii10146
	</note>
</glyph>
<glyph name="eiotified-cy" format="2">
	<unicode hex="0465"/>
	<advance width="1427"/>
	<outline>
		<contour>
			<point x="1026" y="-20" type="curve" smooth="yes"/>
			<point x="1134" y="-20"/>
			<point x="1230" y="8"/>
			<point x="1337" y="65" type="curve"/>
			<point x="1337" y="342" type="line"/>
			<point x="1241" y="289"/>
			<point x="1156" y="248"/>
			<point x="1042" y="248" type="curve" smooth="yes"/>
			<point x="949" y="248"/>
			<point x="905" y="311"/>
			<point x="885" y="443" type="curve"/>
			<point x="1222" y="443" type="line"/>
			<point x="1222" y="710" type="line"/>
			<point x="889" y="710" type="line"/>
			<point x="910" y="823"/>
			<point x="963" y="881"/>
			<point x="1047" y="881" type="curve" smooth="yes"/>
			<point x="1123" y="881"/>
			<point x="1187" y="851"/>
			<point x="1283" y="805" type="curve"/>
			<point x="1374" y="1060" type="line"/>
			<point x="1270" y="1119"/>
			<point x="1160" y="1148"/>
			<point x="1041" y="1148" type="curve" smooth="yes"/>
			<point x="767" y="1148"/>
			<point x="591" y="1006"/>
			<point x="545" y="710" type="curve"/>
			<point x="439" y="710" type="line"/>
			<point x="439" y="1127" type="line"/>
			<point x="99" y="1127" type="line"/>
			<point x="99" y="0" type="line"/>
			<point x="439" y="0" type="line"/>
			<point x="439" y="443" type="line"/>
			<point x="539" y="443" type="line"/>
			<point x="567" y="128"/>
			<point x="724" y="-20"/>
		</contour>
	</outline>
	<note>
		uni0465
	</note>
</glyph>
<glyph name="yuslittle-cy" format="2">
	<unicode hex="0467"/>
	<advance width="1115"/>
	<outline>
		<contour>
			<point x="-2" y="0" type="line"/>
			<point x="312" y="0" type="line"/>
			<point x="413" y="387" type="line"/>
			<point x="436" y="387" type="line"/>
			<point x="436" y="0" type="line"/>
			<point x="681" y="0" type="line"/>
			<point x="681" y="387" type="line"/>
			<point x="703" y="387" type="line"/>
			<point x="800" y="0" type="line"/>
			<point x="1117" y="0" type="line"/>
			<point x="753" y="1127" type="line"/>
			<point x="354" y="1127" type="line"/>
		</contour>
		<contour>
			<point x="480" y="617" type="line"/>
			<point x="485" y="637"/>
			<point x="502" y="701"/>
			<point x="518" y="762" type="curve" smooth="yes"/>
			<point x="533" y="817"/>
			<point x="547" y="872"/>
			<point x="553" y="892" type="curve"/>
			<point x="561" y="892" type="line"/>
			<point x="570" y="857"/>
			<point x="582" y="817"/>
			<point x="597" y="765" type="curve" smooth="yes"/>
			<point x="610" y="724"/>
			<point x="624" y="675"/>
			<point x="642" y="617" type="curve"/>
		</contour>
	</outline>
	<note>
		uni0467
	</note>
</glyph>
<glyph name="Izhitsa-cy" format="2">
	<unicode hex="0474"/>
	<advance width="1229"/>
	<outline>
		<contour>
			<point x="341" y="0" type="line"/>
			<point x="791" y="0" type="line"/>
			<point x="1027" y="1011" type="line" smooth="yes"/>
			<point x="1038" y="1059"/>
			<point x="1052" y="1100"/>
			<point x="1063" y="1123" type="curve" smooth="yes"/>
			<point x="1083" y="1165"/>
			<point x="1103" y="1174"/>
			<point x="1109" y="1174" type="curve" smooth="yes"/>
			<point x="1170" y="1174"/>
			<point x="1191" y="1164"/>
			<point x="1239" y="1140" type="curve"/>
			<point x="1239" y="1421" type="line"/>
			<point x="1203" y="1446"/>
			<point x="1128" y="1474"/>
			<point x="1041" y="1474" type="curve" smooth="yes"/>
			<point x="969" y="1474"/>
			<point x="911" y="1455"/>
			<point x="864" y="1414" type="curve" smooth="yes"/>
			<point x="794" y="1353"/>
			<point x="737" y="1237"/>
			<point x="696" y="1030" type="curve" smooth="yes"/>
			<point x="622" y="657" type="line" smooth="yes"/>
			<point x="617" y="633"/>
			<point x="576" y="380"/>
			<point x="567" y="294" type="curve"/>
			<point x="556" y="395"/>
			<point x="544" y="492"/>
			<point x="516" y="629" type="curve" smooth="yes"/>
			<point x="348" y="1462" type="line"/>
			<point x="0" y="1462" type="line"/>
		</contour>
	</outline>
	<anchor name="top" x="614" y="1462"/>
	<note>
		afii10148
	</note>
</glyph>
<glyph name="psilipneumatacomb-cy" format="2">
	<unicode hex="0486"/>
	<outline>
		<contour>
			<point x="735" y="1213" type="line"/>
			<point x="912" y="1213"/>
			<point x="1077" y="1326"/>
			<point x="1077" y="1468" type="curve" smooth="yes"/>
			<point x="1077" y="1554"/>
			<point x="1017" y="1631"/>
			<point x="889" y="1631" type="curve" smooth="yes"/>
			<point x="795" y="1631"/>
			<point x="725" y="1590"/>
			<point x="725" y="1513" type="curve" smooth="yes"/>
			<point x="725" y="1479"/>
			<point x="737" y="1461"/>
			<point x="791" y="1446" type="curve" smooth="yes"/>
			<point x="824" y="1437"/>
			<point x="854" y="1428"/>
			<point x="854" y="1405" type="curve" smooth="yes"/>
			<point x="854" y="1380"/>
			<point x="817" y="1331"/>
			<point x="735" y="1310" type="curve"/>
		</contour>
	</outline>
	<note>
		uni0486
	</note>
</glyph>
<glyph name="Iishorttail-cy" format="2">
	<unicode hex="048A"/>
	<advance width="1522"/>
	<outline>
		<contour>
			<point x="892" y="-440" type="line"/>
			<point x="1303" y="-440" type="line"/>
			<point x="1499" y="311" type="line"/>
			<point x="1249" y="311" type="line"/>
			<point x="1249" y="1462" type="line"/>
			<point x="827" y="1462" type="line"/>
			<point x="424" y="458" type="line"/>
			<point x="411" y="458" type="line"/>
			<point x="427" y="518"/>
			<point x="434" y="619"/>
			<point x="434" y="694" type="curve" smooth="yes"/>
			<point x="434" y="1462" type="line"/>
			<point x="115" y="1462" type="line"/>
			<point x="115" y="0" type="line"/>
			<point x="542" y="0" type="line"/>
			<point x="945" y="1013" type="line"/>
			<point x="960" y="1013" type="line"/>
			<point x="943" y="945"/>
			<point x="932" y="859"/>
			<point x="932" y="753" type="curve" smooth="yes"/>
			<point x="932" y="0" type="line"/>
			<point x="1106" y="0" type="line"/>
		</contour>
		<contour>
			<point x="671" y="1579" type="curve" smooth="yes"/>
			<point x="969" y="1579"/>
			<point x="1128" y="1692"/>
			<point x="1154" y="1958" type="curve"/>
			<point x="840" y="1958" type="line"/>
			<point x="828" y="1832"/>
			<point x="777" y="1780"/>
			<point x="680" y="1780" type="curve" smooth="yes"/>
			<point x="567" y="1780"/>
			<point x="527" y="1830"/>
			<point x="519" y="1958" type="curve"/>
			<point x="211" y="1958" type="line"/>
			<point x="229" y="1682"/>
			<point x="364" y="1579"/>
		</contour>
	</outline>
	<note>
		uni048A
	</note>
</glyph>
<glyph name="ghestroke-cy" format="2">
	<unicode hex="0493"/>
	<advance width="804"/>
	<outline>
		<contour>
			<point x="116" y="0" type="line"/>
			<point x="459" y="0" type="line"/>
			<point x="459" y="395" type="line"/>
			<point x="678" y="395" type="line"/>
			<point x="678" y="670" type="line"/>
			<point x="459" y="670" type="line"/>
			<point x="459" y="860" type="line"/>
			<point x="761" y="860" type="line"/>
			<point x="761" y="1127" type="line"/>
			<point x="116" y="1127" type="line"/>
			<point x="116" y="670" type="line"/>
			<point x="7" y="670" type="line"/>
			<point x="7" y="395" type="line"/>
			<point x="116" y="395" type="line"/>
		</contour>
	</outline>
	<anchor name="cyrillicbighook" x="533" y="0"/>
	<note>
		uni0493
	</note>
</glyph>
<glyph name="Ghemiddlehook-cy" format="2">
	<unicode hex="0494"/>
	<advance width="1035"/>
	<outline>
		<contour>
			<point x="546" y="-512" type="curve" smooth="yes"/>
			<point x="610" y="-512"/>
			<point x="688" y="-494"/>
			<point x="749" y="-466" type="curve" smooth="yes"/>
			<point x="915" y="-390"/>
			<point x="1015" y="-151"/>
			<point x="1015" y="143" type="curve" smooth="yes"/>
			<point x="1015" y="247"/>
			<point x="997" y="348"/>
			<point x="960" y="444" type="curve" smooth="yes"/>
			<point x="875" y="662"/>
			<point x="668" y="806"/>
			<point x="475" y="806" type="curve"/>
			<point x="470" y="806"/>
			<point x="465" y="806"/>
			<point x="460" y="806" type="curve"/>
			<point x="460" y="1166" type="line"/>
			<point x="830" y="1166" type="line"/>
			<point x="830" y="1462" type="line"/>
			<point x="115" y="1462" type="line"/>
			<point x="115" y="0" type="line"/>
			<point x="460" y="0" type="line"/>
			<point x="460" y="498" type="line"/>
			<point x="401" y="486" type="line"/>
			<point x="406" y="485"/>
			<point x="430" y="486"/>
			<point x="436" y="486" type="curve" smooth="yes"/>
			<point x="603" y="456"/>
			<point x="684" y="346"/>
			<point x="684" y="140" type="curve" smooth="yes"/>
			<point x="684" y="40"/>
			<point x="659" y="-44"/>
			<point x="622" y="-101" type="curve" smooth="yes"/>
			<point x="586" y="-156"/>
			<point x="535" y="-193"/>
			<point x="477" y="-193" type="curve" smooth="yes"/>
			<point x="397" y="-193"/>
			<point x="314" y="-172"/>
			<point x="215" y="-133" type="curve"/>
			<point x="215" y="-456" type="line"/>
			<point x="315" y="-499"/>
			<point x="372" y="-512"/>
		</contour>
	</outline>
	<note>
		uni0494
	</note>
</glyph>
<glyph name="Kastroke-cy" format="2">
	<unicode hex="049E"/>
	<advance width="1151"/>
	<outline>
		<contour>
			<point x="132" y="0" type="line"/>
			<point x="481" y="0" type="line"/>
			<point x="481" y="488" type="line"/>
			<point x="587" y="581" type="line"/>
			<point x="779" y="0" type="line"/>
			<point x="1151" y="0" type="line"/>
			<point x="831" y="834" type="line"/>
			<point x="1155" y="1462" type="line"/>
			<point x="787" y="1462" type="line"/>
			<point x="689" y="1258"/>
			<point x="616" y="1103"/>
			<point x="540" y="940" type="curve" smooth="yes"/>
			<point x="515" y="886"/>
			<point x="497" y="822"/>
			<point x="481" y="759" type="curve"/>
			<point x="481" y="1021" type="line"/>
			<point x="577" y="1021" type="line"/>
			<point x="577" y="1319" type="line"/>
			<point x="481" y="1319" type="line"/>
			<point x="481" y="1462" type="line"/>
			<point x="132" y="1462" type="line"/>
			<point x="132" y="1319" type="line"/>
			<point x="36" y="1319" type="line"/>
			<point x="36" y="1021" type="line"/>
			<point x="132" y="1021" type="line"/>
		</contour>
	</outline>
	<note>
		uni049E
	</note>
</glyph>
<glyph name="kabashkir-cy" format="2">
	<unicode hex="04A1"/>
	<advance width="1311"/>
	<outline>
		<contour>
			<point x="326" y="0" type="line"/>
			<point x="669" y="0" type="line"/>
			<point x="669" y="579" type="line"/>
			<point x="944" y="0" type="line"/>
			<point x="1313" y="0" type="line"/>
			<point x="999" y="591" type="line"/>
			<point x="1298" y="1127" type="line"/>
			<point x="942" y="1127" type="line"/>
			<point x="669" y="579" type="line"/>
			<point x="669" y="1127" type="line"/>
			<point x="1" y="1127" type="line"/>
			<point x="1" y="856" type="line"/>
			<point x="326" y="856" type="line"/>
		</contour>
	</outline>
	<note>
		uni04A1
	</note>
</glyph>
<glyph name="endescender-cy" format="2">
	<unicode hex="04A3"/>
	<advance width="1206"/>
	<outline>
		<contour>
			<point x="852" y="-410" type="line"/>
			<point x="1190" y="-410" type="line"/>
			<point x="1190" y="260" type="line"/>
			<point x="1039" y="260" type="line"/>
			<point x="1039" y="1127" type="line"/>
			<point x="696" y="1127" type="line"/>
			<point x="696" y="710" type="line"/>
			<point x="439" y="710" type="line"/>
			<point x="439" y="1127" type="line"/>
			<point x="99" y="1127" type="line"/>
			<point x="99" y="0" type="line"/>
			<point x="439" y="0" type="line"/>
			<point x="439" y="443" type="line"/>
			<point x="696" y="443" type="line"/>
			<point x="696" y="0" type="line"/>
			<point x="852" y="0" type="line"/>
		</contour>
	</outline>
	<note>
		uni04A3
	</note>
</glyph>
<glyph name="Pemiddlehook-cy" format="2">
	<unicode hex="04A6"/>
	<advance width="1719"/>
	<outline>
		<contour>
			<point x="1226" y="-512" type="curve" smooth="yes"/>
			<point x="1278" y="-512"/>
			<point x="1368" y="-497"/>
			<point x="1437" y="-457" type="curve" smooth="yes"/>
			<point x="1605" y="-359"/>
			<point x="1698" y="-126"/>
			<point x="1698" y="146" type="curve" smooth="yes"/>
			<point x="1698" y="214"/>
			<point x="1692" y="313"/>
			<point x="1660" y="409" type="curve" smooth="yes"/>
			<point x="1582" y="644"/>
			<point x="1361" y="806"/>
			<point x="1155" y="806" type="curve" smooth="yes"/>
			<point x="1135" y="806"/>
			<point x="1129" y="808"/>
			<point x="1128" y="810" type="curve"/>
			<point x="1128" y="1462" type="line"/>
			<point x="115" y="1462" type="line"/>
			<point x="115" y="0" type="line"/>
			<point x="462" y="0" type="line"/>
			<point x="462" y="1161" type="line"/>
			<point x="784" y="1161" type="line"/>
			<point x="784" y="0" type="line"/>
			<point x="1128" y="0" type="line"/>
			<point x="1128" y="498" type="line"/>
			<point x="1121" y="490"/>
			<point x="1114" y="488"/>
			<point x="1109" y="488" type="curve" smooth="yes"/>
			<point x="1284" y="454"/>
			<point x="1364" y="346"/>
			<point x="1364" y="140" type="curve" smooth="yes"/>
			<point x="1364" y="63"/>
			<point x="1348" y="-17"/>
			<point x="1316" y="-78" type="curve" smooth="yes"/>
			<point x="1277" y="-153"/>
			<point x="1212" y="-193"/>
			<point x="1159" y="-193" type="curve" smooth="yes"/>
			<point x="1077" y="-193"/>
			<point x="995" y="-172"/>
			<point x="899" y="-133" type="curve"/>
			<point x="899" y="-456" type="line"/>
			<point x="1011" y="-504"/>
			<point x="1069" y="-512"/>
		</contour>
	</outline>
	<note>
		uni04A6
	</note>
</glyph>
<glyph name="ustraitstroke-cy" format="2">
	<unicode hex="04B1"/>
	<advance width="1026"/>
	<outline>
		<contour>
			<point x="344" y="-492" type="line"/>
			<point x="683" y="-492" type="line"/>
			<point x="683" y="-267" type="line"/>
			<point x="899" y="-267" type="line"/>
			<point x="899" y="0" type="line"/>
			<point x="537" y="0" type="line"/>
			<point x="652" y="-153" type="line"/>
			<point x="1031" y="1127" type="line"/>
			<point x="678" y="1127" type="line"/>
			<point x="543" y="504" type="line" smooth="yes"/>
			<point x="532" y="453"/>
			<point x="514" y="284"/>
			<point x="514" y="251" type="curve"/>
			<point x="512" y="251" type="line"/>
			<point x="512" y="284"/>
			<point x="494" y="453"/>
			<point x="483" y="504" type="curve" smooth="yes"/>
			<point x="348" y="1127" type="line"/>
			<point x="-5" y="1127" type="line"/>
			<point x="377" y="-153" type="line"/>
			<point x="491" y="0" type="line"/>
			<point x="127" y="0" type="line"/>
			<point x="127" y="-267" type="line"/>
			<point x="344" y="-267" type="line"/>
		</contour>
	</outline>
	<note>
		uni04B1
	</note>
</glyph>
<glyph name="Hadescender-cy" format="2">
	<unicode hex="04B2"/>
	<advance width="1282"/>
	<outline>
		<contour>
			<point x="908" y="-440" type="line"/>
			<point x="1244" y="-440" type="line"/>
			<point x="1244" y="287" type="line"/>
			<point x="953" y="287" type="line"/>
			<point x="720" y="745" type="line"/>
			<point x="1052" y="1462" type="line"/>
			<point x="687" y="1462" type="line"/>
			<point x="539" y="1036" type="line"/>
			<point x="356" y="1462" type="line"/>
			<point x="9" y="1462" type="line"/>
			<point x="338" y="752" type="line"/>
			<point x="-9" y="0" type="line"/>
			<point x="353" y="0" type="line"/>
			<point x="521" y="461" type="line"/>
			<point x="727" y="0" type="line"/>
			<point x="908" y="0" type="line"/>
		</contour>
	</outline>
	<note>
		uni04B2
	</note>
</glyph>
<glyph name="hadescender-cy" format="2">
	<unicode hex="04B3"/>
	<advance width="1175"/>
	<outline>
		<contour>
			<point x="808" y="-410" type="line"/>
			<point x="1147" y="-410" type="line"/>
			<point x="1147" y="260" type="line"/>
			<point x="837" y="260" type="line"/>
			<point x="666" y="577" type="line"/>
			<point x="962" y="1127" type="line"/>
			<point x="613" y="1127" type="line"/>
			<point x="499" y="830" type="line"/>
			<point x="365" y="1127" type="line"/>
			<point x="14" y="1127" type="line"/>
			<point x="310" y="572" type="line"/>
			<point x="5" y="0" type="line"/>
			<point x="358" y="0" type="line"/>
			<point x="481" y="308" type="line"/>
			<point x="620" y="0" type="line"/>
			<point x="808" y="0" type="line"/>
		</contour>
	</outline>
	<note>
		uni04B3
	</note>
</glyph>
<glyph name="cheverticalstroke-cy" format="2">
	<unicode hex="04B9"/>
	<advance width="1111"/>
	<outline>
		<contour>
			<point x="672" y="0" type="line"/>
			<point x="1015" y="0" type="line"/>
			<point x="1015" y="1127" type="line"/>
			<point x="672" y="1127" type="line"/>
			<point x="672" y="647" type="line"/>
			<point x="651" y="631"/>
			<point x="641" y="626"/>
			<point x="631" y="623" type="curve"/>
			<point x="631" y="833" type="line"/>
			<point x="488" y="833" type="line"/>
			<point x="488" y="592" type="line"/>
			<point x="497" y="595" type="line"/>
			<point x="489" y="595" type="line"/>
			<point x="447" y="609"/>
			<point x="434" y="650"/>
			<point x="434" y="727" type="curve" smooth="yes"/>
			<point x="434" y="1127" type="line"/>
			<point x="93" y="1127" type="line"/>
			<point x="93" y="687" type="line" smooth="yes"/>
			<point x="93" y="453"/>
			<point x="199" y="331"/>
			<point x="395" y="331" type="curve" smooth="yes"/>
			<point x="437" y="331"/>
			<point x="468" y="336"/>
			<point x="488" y="343" type="curve"/>
			<point x="488" y="132" type="line"/>
			<point x="631" y="132" type="line"/>
			<point x="631" y="403" type="line"/>
			<point x="642" y="409"/>
			<point x="654" y="417"/>
			<point x="672" y="431" type="curve"/>
		</contour>
	</outline>
	<note>
		uni04B9
	</note>
</glyph>
<glyph name="cheabkhasian-cy" format="2">
	<unicode hex="04BD"/>
	<advance width="1278"/>
	<outline>
		<contour>
			<point x="367" y="466" type="line"/>
			<point x="366" y="705" type="line"/>
			<point x="333" y="705" type="line" smooth="yes"/>
			<point x="282" y="705"/>
			<point x="256" y="728"/>
			<point x="256" y="775" type="curve" smooth="yes"/>
			<point x="256" y="812"/>
			<point x="265" y="847"/>
			<point x="280" y="880" type="curve"/>
			<point x="50" y="880" type="line"/>
			<point x="19" y="833"/>
			<point x="5" y="773"/>
			<point x="5" y="704" type="curve" smooth="yes"/>
			<point x="5" y="546"/>
			<point x="123" y="465"/>
			<point x="363" y="466" type="curve"/>
		</contour>
		<component base="e" xOffset="276"/>
	</outline>
	<anchor name="bottom" x="829" y="0"/>
	<anchor name="ogonek" x="1048" y="18"/>
	<anchor name="top" x="776" y="1127"/>
	<note>
		uni04BD
	</note>
</glyph>
<glyph name="Chedescenderabkhasian-cy" format="2">
	<unicode hex="04BE"/>
	<advance width="1639"/>
	<outline>
		<contour>
			<point x="819" y="-440" type="line"/>
			<point x="1172" y="-440" type="line"/>
			<point x="1172" y="7" type="line"/>
			<point x="819" y="20" type="line"/>
		</contour>
		<component base="Cheabkhasian-cy"/>
	</outline>
	<note>
		uni04BE
	</note>
</glyph>
<glyph name="chedescenderabkhasian-cy" format="2">
	<unicode hex="04BF"/>
	<advance width="1278"/>
	<outline>
		<contour>
			<point x="621" y="-410" type="line"/>
			<point x="957" y="-410" type="line"/>
			<point x="959" y="5" type="line"/>
			<point x="621" y="36" type="line"/>
		</contour>
		<component base="cheabkhasian-cy"/>
	</outline>
	<anchor name="bottom" x="829" y="0"/>
	<anchor name="ogonek" x="1048" y="18"/>
	<anchor name="top" x="776" y="1127"/>
	<note>
		uni04BF
	</note>
</glyph>
<glyph name="hastroke-cy" format="2">
	<unicode hex="04FF"/>
	<advance width="980"/>
	<outline>
		<contour>
			<point x="5" y="0" type="line"/>
			<point x="358" y="0" type="line"/>
			<point x="481" y="303" type="line"/>
			<point x="620" y="0" type="line"/>
			<point x="974" y="0" type="line"/>
			<point x="735" y="431" type="line"/>
			<point x="875" y="431" type="line"/>
			<point x="875" y="700" type="line"/>
			<point x="727" y="700" type="line"/>
			<point x="962" y="1127" type="line"/>
			<point x="613" y="1127" type="line"/>
			<point x="499" y="834" type="line"/>
			<point x="365" y="1127" type="line"/>
			<point x="14" y="1127" type="line"/>
			<point x="250" y="700" type="line"/>
			<point x="98" y="700" type="line"/>
			<point x="98" y="431" type="line"/>
			<point x="242" y="431" type="line"/>
		</contour>
	</outline>
	<note>
		uni04FF
	</note>
</glyph>
<glyph name="Komide-cy" format="2">
	<unicode hex="0500"/>
	<advance width="1052"/>
	<outline>
		<contour>
			<point x="553" y="0" type="curve" smooth="yes"/>
			<point x="937" y="0" type="line"/>
			<point x="937" y="1462" type="line"/>
			<point x="594" y="1462" type="line"/>
			<point x="594" y="905" type="line"/>
			<point x="551" y="905" type="line" smooth="yes"/>
			<point x="235" y="905"/>
			<point x="63" y="756"/>
			<point x="63" y="479" type="curve" smooth="yes"/>
			<point x="63" y="176"/>
			<point x="243" y="0"/>
		</contour>
		<contour>
			<point x="565" y="298" type="line" smooth="yes"/>
			<point x="459" y="298"/>
			<point x="412" y="362"/>
			<point x="412" y="464" type="curve" smooth="yes"/>
			<point x="412" y="556"/>
			<point x="460" y="604"/>
			<point x="572" y="604" type="curve" smooth="yes"/>
			<point x="594" y="604" type="line"/>
			<point x="594" y="298" type="line"/>
		</contour>
	</outline>
	<note>
		uni0500
	</note>
</glyph>
<glyph name="komidzje-cy" format="2">
	<unicode hex="0507"/>
	<advance width="1052"/>
	<outline>
		<contour>
			<point x="699" y="-410" type="line"/>
			<point x="1034" y="-410" type="line"/>
			<point x="1034" y="260" type="line"/>
			<point x="871" y="260" type="line"/>
			<point x="871" y="325" type="line" smooth="yes"/>
			<point x="871" y="457"/>
			<point x="811" y="532"/>
			<point x="658" y="587" type="curve"/>
			<point x="658" y="597" type="line"/>
			<point x="792" y="643"/>
			<point x="851" y="720"/>
			<point x="851" y="843" type="curve" smooth="yes"/>
			<point x="851" y="1025"/>
			<point x="690" y="1148"/>
			<point x="450" y="1148" type="curve" smooth="yes"/>
			<point x="300" y="1148"/>
			<point x="161" y="1115"/>
			<point x="31" y="1050" type="curve"/>
			<point x="115" y="786" type="line"/>
			<point x="225" y="850"/>
			<point x="325" y="882"/>
			<point x="414" y="882" type="curve" smooth="yes"/>
			<point x="509" y="882"/>
			<point x="550" y="853"/>
			<point x="550" y="797" type="curve" smooth="yes"/>
			<point x="550" y="714"/>
			<point x="481" y="707"/>
			<point x="345" y="707" type="curve" smooth="yes"/>
			<point x="193" y="707" type="line"/>
			<point x="193" y="459" type="line"/>
			<point x="351" y="459" type="line" smooth="yes"/>
			<point x="485" y="459"/>
			<point x="545" y="422"/>
			<point x="545" y="327" type="curve" smooth="yes"/>
			<point x="545" y="0" type="line"/>
			<point x="699" y="0" type="line"/>
		</contour>
	</outline>
	<note>
		uni0507
	</note>
</glyph>
<glyph name="kominje-cy" format="2">
	<unicode hex="050B"/>
	<advance width="1578"/>
	<outline>
		<contour>
			<point x="1121" y="-20" type="curve" smooth="yes"/>
			<point x="1226" y="-20"/>
			<point x="1313" y="2"/>
			<point x="1380" y="44" type="curve" smooth="yes"/>
			<point x="1487" y="112"/>
			<point x="1543" y="232"/>
			<point x="1543" y="400" type="curve" smooth="yes"/>
			<point x="1543" y="700" type="line"/>
			<point x="1200" y="700" type="line"/>
			<point x="1200" y="479" type="line" smooth="yes"/>
			<point x="1200" y="405"/>
			<point x="1200" y="372"/>
			<point x="1194" y="341" type="curve" smooth="yes"/>
			<point x="1185" y="298"/>
			<point x="1158" y="278"/>
			<point x="1117" y="278" type="curve" smooth="yes"/>
			<point x="1054" y="278"/>
			<point x="1039" y="324"/>
			<point x="1039" y="395" type="curve" smooth="yes"/>
			<point x="1039" y="1127" type="line"/>
			<point x="696" y="1127" type="line"/>
			<point x="696" y="710" type="line"/>
			<point x="439" y="710" type="line"/>
			<point x="439" y="1127" type="line"/>
			<point x="99" y="1127" type="line"/>
			<point x="99" y="0" type="line"/>
			<point x="439" y="0" type="line"/>
			<point x="439" y="443" type="line"/>
			<point x="696" y="443" type="line"/>
			<point x="696" y="387" type="line" smooth="yes"/>
			<point x="696" y="231"/>
			<point x="751" y="116"/>
			<point x="852" y="49" type="curve" smooth="yes"/>
			<point x="921" y="4"/>
			<point x="1011" y="-20"/>
		</contour>
	</outline>
	<note>
		uni050B
	</note>
</glyph>
<glyph name="Komisje-cy" format="2">
	<unicode hex="050C"/>
	<advance width="1309"/>
	<outline>
		<contour>
			<point x="683" y="-20" type="curve" smooth="yes"/>
			<point x="1051" y="-20"/>
			<point x="1244" y="229"/>
			<point x="1244" y="712" type="curve" smooth="yes"/>
			<point x="1244" y="839" type="line"/>
			<point x="571" y="839" type="line"/>
			<point x="571" y="537" type="line"/>
			<point x="890" y="537" type="line"/>
			<point x="888" y="483"/>
			<point x="874" y="416"/>
			<point x="845" y="371" type="curve" smooth="yes"/>
			<point x="807" y="311"/>
			<point x="740" y="281"/>
			<point x="695" y="281" type="curve" smooth="yes"/>
			<point x="624" y="281"/>
			<point x="567" y="304"/>
			<point x="523" y="348" type="curve" smooth="yes"/>
			<point x="455" y="416"/>
			<point x="425" y="541"/>
			<point x="425" y="730" type="curve" smooth="yes"/>
			<point x="425" y="999"/>
			<point x="542" y="1180"/>
			<point x="700" y="1180" type="curve" smooth="yes"/>
			<point x="789" y="1180"/>
			<point x="835" y="1177"/>
			<point x="985" y="1103" type="curve"/>
			<point x="1120" y="1359" type="line"/>
			<point x="1019" y="1436"/>
			<point x="864" y="1483"/>
			<point x="731" y="1483" type="curve" smooth="yes"/>
			<point x="320" y="1483"/>
			<point x="73" y="1193"/>
			<point x="73" y="737" type="curve" smooth="yes"/>
			<point x="73" y="289"/>
			<point x="268" y="-20"/>
		</contour>
	</outline>
	<note>
		uni050C
	</note>
</glyph>
<glyph name="komitje-cy" format="2">
	<unicode hex="050F"/>
	<advance width="1195"/>
	<outline>
		<contour>
			<point x="739" y="-20" type="curve" smooth="yes"/>
			<point x="1015" y="-20"/>
			<point x="1161" y="128"/>
			<point x="1161" y="400" type="curve" smooth="yes"/>
			<point x="1161" y="700" type="line"/>
			<point x="818" y="700" type="line"/>
			<point x="818" y="401" type="line" smooth="yes"/>
			<point x="818" y="323"/>
			<point x="793" y="278"/>
			<point x="739" y="278" type="curve" smooth="yes"/>
			<point x="676" y="278"/>
			<point x="657" y="315"/>
			<point x="657" y="395" type="curve" smooth="yes"/>
			<point x="657" y="856" type="line"/>
			<point x="928" y="856" type="line"/>
			<point x="928" y="1127" type="line"/>
			<point x="46" y="1127" type="line"/>
			<point x="46" y="856" type="line"/>
			<point x="318" y="856" type="line"/>
			<point x="318" y="387" type="line" smooth="yes"/>
			<point x="318" y="126"/>
			<point x="466" y="-20"/>
		</contour>
	</outline>
	<note>
		uni050F
	</note>
</glyph>
<glyph name="hiriq-hb" format="2">
	<unicode hex="05B4"/>
	<outline>
		<contour>
			<point x="106" y="-307" type="curve" smooth="yes"/>
			<point x="172" y="-307"/>
			<point x="217" y="-269"/>
			<point x="217" y="-217" type="curve" smooth="yes"/>
			<point x="217" y="-164"/>
			<point x="172" y="-125"/>
			<point x="108" y="-125" type="curve" smooth="yes"/>
			<point x="42" y="-125"/>
			<point x="0" y="-159"/>
			<point x="0" y="-217" type="curve" smooth="yes"/>
			<point x="0" y="-273"/>
			<point x="39" y="-307"/>
		</contour>
	</outline>
	<anchor name="_bottom" x="109" y="-105"/>
	<note>
		afii57793
	</note>
</glyph>
<glyph name="tsere-hb" format="2">
	<unicode hex="05B5"/>
	<outline>
		<contour>
			<point x="408" y="-280" type="curve" smooth="yes"/>
			<point x="473" y="-280"/>
			<point x="517" y="-242"/>
			<point x="517" y="-189" type="curve" smooth="yes"/>
			<point x="517" y="-137"/>
			<point x="473" y="-97"/>
			<point x="408" y="-97" type="curve" smooth="yes"/>
			<point x="340" y="-97"/>
			<point x="298" y="-133"/>
			<point x="298" y="-189" type="curve" smooth="yes"/>
			<point x="298" y="-247"/>
			<point x="340" y="-280"/>
		</contour>
		<contour>
			<point x="106" y="-280" type="curve" smooth="yes"/>
			<point x="172" y="-280"/>
			<point x="213" y="-242"/>
			<point x="213" y="-188" type="curve" smooth="yes"/>
			<point x="213" y="-135"/>
			<point x="171" y="-97"/>
			<point x="106" y="-97" type="curve" smooth="yes"/>
			<point x="48" y="-97"/>
			<point x="0" y="-126"/>
			<point x="0" y="-188" type="curve" smooth="yes"/>
			<point x="0" y="-243"/>
			<point x="41" y="-280"/>
		</contour>
	</outline>
	<anchor name="_bottom" x="259" y="-77"/>
	<note>
		afii57794
	</note>
</glyph>
<glyph name="segol-hb" format="2">
	<unicode hex="05B6"/>
	<outline>
		<contour>
			<point x="263" y="-545" type="curve" smooth="yes"/>
			<point x="327" y="-545"/>
			<point x="369" y="-507"/>
			<point x="369" y="-454" type="curve" smooth="yes"/>
			<point x="369" y="-401"/>
			<point x="327" y="-363"/>
			<point x="263" y="-363" type="curve" smooth="yes"/>
			<point x="197" y="-363"/>
			<point x="155" y="-401"/>
			<point x="155" y="-455" type="curve" smooth="yes"/>
			<point x="155" y="-510"/>
			<point x="197" y="-545"/>
		</contour>
		<contour>
			<point x="406" y="-314" type="curve" smooth="yes"/>
			<point x="474" y="-314"/>
			<point x="517" y="-278"/>
			<point x="517" y="-223" type="curve" smooth="yes"/>
			<point x="517" y="-171"/>
			<point x="474" y="-131"/>
			<point x="406" y="-131" type="curve" smooth="yes"/>
			<point x="339" y="-131"/>
			<point x="298" y="-167"/>
			<point x="298" y="-223" type="curve" smooth="yes"/>
			<point x="298" y="-281"/>
			<point x="339" y="-314"/>
		</contour>
		<contour>
			<point x="106" y="-314" type="curve" smooth="yes"/>
			<point x="172" y="-314"/>
			<point x="213" y="-278"/>
			<point x="213" y="-223" type="curve" smooth="yes"/>
			<point x="213" y="-169"/>
			<point x="171" y="-131"/>
			<point x="106" y="-131" type="curve" smooth="yes"/>
			<point x="48" y="-131"/>
			<point x="0" y="-160"/>
			<point x="0" y="-222" type="curve" smooth="yes"/>
			<point x="0" y="-278"/>
			<point x="42" y="-314"/>
		</contour>
	</outline>
	<anchor name="_bottom" x="258" y="-111"/>
	<note>
		afii57795
	</note>
</glyph>
<glyph name="qubuts-hb" format="2">
	<unicode hex="05BB"/>
	<outline>
		<contour>
			<point x="106" y="-330" type="curve" smooth="yes"/>
			<point x="171" y="-330"/>
			<point x="211" y="-294"/>
			<point x="211" y="-239" type="curve" smooth="yes"/>
			<point x="211" y="-185"/>
			<point x="169" y="-147"/>
			<point x="106" y="-147" type="curve" smooth="yes"/>
			<point x="48" y="-147"/>
			<point x="0" y="-175"/>
			<point x="0" y="-238" type="curve" smooth="yes"/>
			<point x="0" y="-294"/>
			<point x="41" y="-330"/>
		</contour>
		<contour>
			<point x="306" y="-525" type="curve" smooth="yes"/>
			<point x="370" y="-525"/>
			<point x="411" y="-486"/>
			<point x="411" y="-433" type="curve" smooth="yes"/>
			<point x="411" y="-380"/>
			<point x="370" y="-342"/>
			<point x="306" y="-342" type="curve" smooth="yes"/>
			<point x="240" y="-342"/>
			<point x="198" y="-380"/>
			<point x="198" y="-434" type="curve" smooth="yes"/>
			<point x="198" y="-489"/>
			<point x="240" y="-525"/>
		</contour>
		<contour>
			<point x="506" y="-718" type="curve" smooth="yes"/>
			<point x="573" y="-718"/>
			<point x="616" y="-680"/>
			<point x="616" y="-628" type="curve" smooth="yes"/>
			<point x="616" y="-575"/>
			<point x="573" y="-536"/>
			<point x="507" y="-536" type="curve" smooth="yes"/>
			<point x="443" y="-536"/>
			<point x="399" y="-571"/>
			<point x="399" y="-628" type="curve" smooth="yes"/>
			<point x="399" y="-685"/>
			<point x="439" y="-718"/>
		</contour>
	</outline>
	<anchor name="_bottom" x="308" y="-127"/>
	<note>
		afii57796
	</note>
</glyph>
<glyph name="siluqleft-hb" format="2">
	<unicode hex="05BD"/>
	<outline>
		<contour>
			<point x="-52" y="-537" type="line"/>
			<point x="60" y="-537" type="line"/>
			<point x="60" y="-166" type="line"/>
			<point x="-52" y="-166" type="line"/>
		</contour>
	</outline>
	<anchor name="_bottom" x="4" y="-146"/>
	<note>
		afii57839
	</note>
</glyph>
<glyph name="sindot-hb" format="2">
	<unicode hex="05C2"/>
	<outline>
		<contour>
			<point x="107" y="1410" type="curve" smooth="yes"/>
			<point x="174" y="1410"/>
			<point x="217" y="1448"/>
			<point x="217" y="1501" type="curve" smooth="yes"/>
			<point x="217" y="1554"/>
			<point x="174" y="1593"/>
			<point x="109" y="1593" type="curve" smooth="yes"/>
			<point x="42" y="1593"/>
			<point x="0" y="1559"/>
			<point x="0" y="1501" type="curve" smooth="yes"/>
			<point x="0" y="1444"/>
			<point x="40" y="1410"/>
		</contour>
	</outline>
	<anchor name="_topleft" x="237" y="1390"/>
	<note>
		afii57803
	</note>
</glyph>
<glyph name="dalet-hb" format="2">
	<unicode hex="05D3"/>
	<advance width="915"/>
	<outline>
		<contour>
			<point x="433" y="0" type="line"/>
			<point x="773" y="0" type="line"/>
			<point x="773" y="772" type="line" smooth="yes"/>
			<point x="773" y="868"/>
			<point x="795" y="939"/>
			<point x="837" y="988" type="curve" smooth="yes"/>
			<point x="859" y="1014"/>
			<point x="882" y="1025"/>
			<point x="897" y="1031" type="curve"/>
			<point x="897" y="1290" type="line"/>
			<point x="27" y="1290" type="line"/>
			<point x="27" y="1019" type="line"/>
			<point x="591" y="1019" type="line"/>
			<point x="553" y="1001"/>
			<point x="519" y="976"/>
			<point x="488" y="944" type="curve" smooth="yes"/>
			<point x="458" y="914"/>
			<point x="433" y="847"/>
			<point x="433" y="783" type="curve" smooth="yes"/>
		</contour>
	</outline>
	<anchor name="bottom" x="452" y="0"/>
	<anchor name="bottomleft" x="15" y="0"/>
	<anchor name="center" x="316" y="621"/>
	<anchor name="top" x="452" y="1127"/>
	<anchor name="topleft" x="15" y="1127"/>
	<note>
		afii57667
	</note>
</glyph>
<glyph name="lamed-hb" format="2">
	<unicode hex="05DC"/>
	<advance width="872"/>
	<outline>
		<contour>
			<point x="247" y="0" type="line"/>
			<point x="574" y="0" type="line"/>
			<point x="681" y="492" type="line"/>
			<point x="853" y="1077" type="line"/>
			<point x="853" y="1287" type="line"/>
			<point x="367" y="1287" type="line"/>
			<point x="367" y="1550" type="line"/>
			<point x="28" y="1550" type="line"/>
			<point x="28" y="1019" type="line"/>
			<point x="509" y="1019" type="line"/>
			<point x="354" y="498" type="line"/>
		</contour>
	</outline>
	<anchor name="bottom" x="445" y="0"/>
	<anchor name="bottomleft" x="6" y="0"/>
	<anchor name="center" x="265" y="620"/>
	<anchor name="top" x="445" y="1127"/>
	<anchor name="topleft" x="6" y="1127"/>
	<note>
		afii57676
	</note>
</glyph>
<glyph name="geresh-hb" format="2">
	<unicode hex="05F3"/>
	<advance width="393"/>
	<outline>
		<contour>
			<point x="37" y="766" type="curve"/>
			<point x="242" y="766" type="line"/>
			<point x="276" y="884"/>
			<point x="301" y="972"/>
			<point x="326" y="1070" type="curve" smooth="yes"/>
			<point x="341" y="1127"/>
			<point x="356" y="1194"/>
			<point x="372" y="1271" type="curve"/>
			<point x="362" y="1295" type="line"/>
			<point x="109" y="1295" type="line"/>
			<point x="98" y="1179"/>
			<point x="85" y="1057"/>
			<point x="73" y="979" type="curve" smooth="yes"/>
			<point x="64" y="920"/>
			<point x="52" y="849"/>
		</contour>
	</outline>
	<note>
		gereshhb
	</note>
</glyph>
<glyph name="quotedblright" format="2">
	<unicode hex="201D"/>
	<advance width="964"/>
	<outline>
		<contour>
			<point x="10" y="947" type="curve"/>
			<point x="274" y="947" type="line"/>
			<point x="364" y="1150"/>
			<point x="424" y="1315"/>
			<point x="454" y="1440" type="curve"/>
			<point x="440" y="1462" type="line"/>
			<point x="111" y="1462" type="line"/>
			<point x="83" y="1290"/>
			<point x="50" y="1118"/>
		</contour>
		<contour>
			<point x="511" y="947" type="curve"/>
			<point x="772" y="947" type="line"/>
			<point x="864" y="1155"/>
			<point x="925" y="1320"/>
			<point x="953" y="1440" type="curve"/>
			<point x="938" y="1462" type="line"/>
			<point x="611" y="1462" type="line"/>
			<point x="582" y="1281"/>
			<point x="548" y="1109"/>
		</contour>
	</outline>
	<note>
		quotedblright
	</note>
</glyph>
<glyph name="dagger" format="2">
	<unicode hex="2020"/>
	<advance width="1085"/>
	<outline>
		<contour>
			<point x="366" y="0" type="line"/>
			<point x="697" y="0" type="line"/>
			<point x="629" y="930" type="line"/>
			<point x="976" y="891" type="line"/>
			<point x="976" y="1179" type="line"/>
			<point x="629" y="1144" type="line"/>
			<point x="697" y="1556" type="line"/>
			<point x="366" y="1556" type="line"/>
			<point x="435" y="1144" type="line"/>
			<point x="108" y="1179" type="line"/>
			<point x="108" y="891" type="line"/>
			<point x="435" y="930" type="line"/>
		</contour>
	</outline>
	<note>
		dagger
	</note>
</glyph>
<glyph name="daggerdbl" format="2">
	<unicode hex="2021"/>
	<advance width="1085"/>
	<outline>
		<contour>
			<point x="382" y="0" type="line"/>
			<point x="712" y="0" type="line"/>
			<point x="643" y="374" type="line"/>
			<point x="992" y="337" type="line"/>
			<point x="992" y="626" type="line"/>
			<point x="643" y="587" type="line"/>
			<point x="707" y="786" type="line"/>
			<point x="643" y="970" type="line"/>
			<point x="992" y="930" type="line"/>
			<point x="992" y="1218" type="line"/>
			<point x="643" y="1183" type="line"/>
			<point x="712" y="1556" type="line"/>
			<point x="382" y="1556" type="line"/>
			<point x="450" y="1183" type="line"/>
			<point x="93" y="1218" type="line"/>
			<point x="93" y="930" type="line"/>
			<point x="450" y="970" type="line"/>
			<point x="388" y="786" type="line"/>
			<point x="450" y="587" type="line"/>
			<point x="93" y="626" type="line"/>
			<point x="93" y="337" type="line"/>
			<point x="450" y="374" type="line"/>
		</contour>
	</outline>
	<note>
		daggerdbl
	</note>
</glyph>
<glyph name="tripleprime" format="2">
	<unicode hex="2034"/>
	<advance width="1435"/>
	<outline>
		<contour>
			<point x="854" y="934" type="line"/>
			<point x="973" y="934" type="line"/>
			<point x="1302" y="1462" type="line"/>
			<point x="1118" y="1462" type="line"/>
		</contour>
		<contour>
			<point x="133" y="934" type="line"/>
			<point x="252" y="934" type="line"/>
			<point x="581" y="1462" type="line"/>
			<point x="397" y="1462" type="line"/>
		</contour>
		<contour>
			<point x="493" y="934" type="line"/>
			<point x="612" y="934" type="line"/>
			<point x="942" y="1462" type="line"/>
			<point x="758" y="1462" type="line"/>
		</contour>
	</outline>
</glyph>
<glyph name="guilsinglleft" format="2">
	<unicode hex="2039"/>
	<advance width="714"/>
	<outline>
		<contour>
			<point x="386" y="76" type="line"/>
			<point x="645" y="220" type="line"/>
			<point x="423" y="570" type="line"/>
			<point x="645" y="919" type="line"/>
			<point x="386" y="1063" type="line"/>
			<point x="70" y="582" type="line"/>
			<point x="70" y="556" type="line"/>
		</contour>
	</outline>
	<note>
		guilsinglleft
	</note>
</glyph>
<glyph name="exclamdouble" format="2">
	<unicode hex="203C"/>
	<advance width="1225"/>
	<outline>
		<contour>
			<point x="155" y="515" type="line"/>
			<point x="445" y="515" type="line"/>
			<point x="503" y="1462" type="line"/>
			<point x="100" y="1462" type="line"/>
		</contour>
		<contour>
			<point x="298" y="-32" type="curve" smooth="yes"/>
			<point x="429" y="-32"/>
			<point x="502" y="42"/>
			<point x="502" y="157" type="curve" smooth="yes"/>
			<point x="502" y="274"/>
			<point x="436" y="345"/>
			<point x="298" y="345" type="curve" smooth="yes"/>
			<point x="164" y="345"/>
			<point x="96" y="275"/>
			<point x="96" y="157" type="curve" smooth="yes"/>
			<point x="96" y="40"/>
			<point x="165" y="-32"/>
		</contour>
		<contour>
			<point x="925" y="-32" type="curve" smooth="yes"/>
			<point x="1055" y="-32"/>
			<point x="1128" y="42"/>
			<point x="1128" y="157" type="curve" smooth="yes"/>
			<point x="1128" y="274"/>
			<point x="1062" y="345"/>
			<point x="925" y="345" type="curve" smooth="yes"/>
			<point x="790" y="345"/>
			<point x="722" y="275"/>
			<point x="722" y="157" type="curve" smooth="yes"/>
			<point x="722" y="40"/>
			<point x="791" y="-32"/>
		</contour>
		<contour>
			<point x="781" y="515" type="line"/>
			<point x="1071" y="515" type="line"/>
			<point x="1129" y="1462" type="line"/>
			<point x="727" y="1462" type="line"/>
		</contour>
	</outline>
	<note>
		exclamdbl
	</note>
</glyph>
<glyph name="anticlockwisearrowabovecomb" format="2">
	<unicode hex="20D4"/>
	<outline>
		<contour>
			<point x="-623" y="1245" type="line"/>
			<point x="-354" y="1245" type="line"/>
			<point x="-446" y="1335" type="line"/>
			<point x="-332" y="1462"/>
			<point x="-160" y="1528"/>
			<point x="20" y="1528" type="curve" smooth="yes"/>
			<point x="227" y="1528"/>
			<point x="416" y="1436"/>
			<point x="520" y="1290" type="curve"/>
			<point x="623" y="1356" type="line"/>
			<point x="485" y="1538"/>
			<point x="264" y="1649"/>
			<point x="20" y="1649" type="curve" smooth="yes"/>
			<point x="-199" y="1649"/>
			<point x="-383" y="1575"/>
			<point x="-532" y="1423" type="curve"/>
			<point x="-623" y="1513" type="line"/>
		</contour>
	</outline>
	<note>
		anticlockwisearrowabovecomb
	</note>
</glyph>
<glyph name="ringoverlaycomb" format="2">
	<unicode hex="20D8"/>
	<outline>
		<contour>
			<point x="0" y="84" type="curve" smooth="yes"/>
			<point x="256" y="84"/>
			<point x="465" y="293"/>
			<point x="465" y="549" type="curve" smooth="yes"/>
			<point x="465" y="805"/>
			<point x="256" y="1014"/>
			<point x="0" y="1014" type="curve" smooth="yes"/>
			<point x="-256" y="1014"/>
			<point x="-465" y="805"/>
			<point x="-465" y="549" type="curve" smooth="yes"/>
			<point x="-465" y="293"/>
			<point x="-256" y="84"/>
		</contour>
		<contour>
			<point x="0" y="203" type="curve" smooth="yes"/>
			<point x="-186" y="203"/>
			<point x="-346" y="362"/>
			<point x="-346" y="549" type="curve" smooth="yes"/>
			<point x="-346" y="735"/>
			<point x="-186" y="895"/>
			<point x="0" y="895" type="curve" smooth="yes"/>
			<point x="186" y="895"/>
			<point x="346" y="735"/>
			<point x="346" y="549" type="curve" smooth="yes"/>
			<point x="346" y="362"/>
			<point x="186" y="203"/>
		</contour>
	</outline>
	<note>
		ringoverlaycomb
	</note>
</glyph>
<glyph name="fourdotsabovecomb" format="2">
	<unicode hex="20DC"/>
	<outline>
		<contour>
			<point x="588" y="1280" type="curve" smooth="yes"/>
			<point x="643" y="1280"/>
			<point x="692" y="1315"/>
			<point x="692" y="1395" type="curve" smooth="yes"/>
			<point x="692" y="1475"/>
			<point x="643" y="1509"/>
			<point x="588" y="1509" type="curve" smooth="yes"/>
			<point x="528" y="1509"/>
			<point x="481" y="1475"/>
			<point x="481" y="1395" type="curve" smooth="yes"/>
			<point x="481" y="1315"/>
			<point x="528" y="1280"/>
		</contour>
		<contour>
			<point x="-586" y="1280" type="curve" smooth="yes"/>
			<point x="-530" y="1280"/>
			<point x="-481" y="1315"/>
			<point x="-481" y="1395" type="curve" smooth="yes"/>
			<point x="-481" y="1475"/>
			<point x="-530" y="1509"/>
			<point x="-586" y="1509" type="curve" smooth="yes"/>
			<point x="-645" y="1509"/>
			<point x="-692" y="1475"/>
			<point x="-692" y="1395" type="curve" smooth="yes"/>
			<point x="-692" y="1315"/>
			<point x="-645" y="1280"/>
		</contour>
		<contour>
			<point x="-195" y="1280" type="curve" smooth="yes"/>
			<point x="-139" y="1280"/>
			<point x="-90" y="1315"/>
			<point x="-90" y="1395" type="curve" smooth="yes"/>
			<point x="-90" y="1475"/>
			<point x="-139" y="1509"/>
			<point x="-195" y="1509" type="curve" smooth="yes"/>
			<point x="-254" y="1509"/>
			<point x="-301" y="1475"/>
			<point x="-301" y="1395" type="curve" smooth="yes"/>
			<point x="-301" y="1315"/>
			<point x="-254" y="1280"/>
		</contour>
		<contour>
			<point x="197" y="1280" type="curve" smooth="yes"/>
			<point x="252" y="1280"/>
			<point x="301" y="1315"/>
			<point x="301" y="1395" type="curve" smooth="yes"/>
			<point x="301" y="1475"/>
			<point x="252" y="1509"/>
			<point x="197" y="1509" type="curve" smooth="yes"/>
			<point x="137" y="1509"/>
			<point x="90" y="1475"/>
			<point x="90" y="1395" type="curve" smooth="yes"/>
			<point x="90" y="1315"/>
			<point x="137" y="1280"/>
		</contour>
	</outline>
	<note>
		fourdotsabovecomb
	</note>
</glyph>
<glyph name="AnnuitySymbol" format="2">
	<unicode hex="20E7"/>
	<outline>
		<contour>
			<point x="1473" y="-178" type="line"/>
			<point x="1602" y="-178" type="line"/>
			<point x="1602" y="1319" type="line"/>
			<point x="105" y="1319" type="line"/>
			<point x="105" y="1190" type="line"/>
			<point x="1473" y="1190" type="line"/>
		</contour>
	</outline>
	<note>
		AnnuitySymbol
	</note>
</glyph>
<glyph name="tripleunderdotcomb" format="2">
	<unicode hex="20E8"/>
	<outline>
		<contour>
			<point x="392" y="-385" type="curve" smooth="yes"/>
			<point x="447" y="-385"/>
			<point x="497" y="-350"/>
			<point x="497" y="-270" type="curve" smooth="yes"/>
			<point x="497" y="-190"/>
			<point x="447" y="-156"/>
			<point x="392" y="-156" type="curve" smooth="yes"/>
			<point x="333" y="-156"/>
			<point x="286" y="-190"/>
			<point x="286" y="-270" type="curve" smooth="yes"/>
			<point x="286" y="-350"/>
			<point x="333" y="-385"/>
		</contour>
		<contour>
			<point x="-390" y="-385" type="curve" smooth="yes"/>
			<point x="-335" y="-385"/>
			<point x="-286" y="-350"/>
			<point x="-286" y="-270" type="curve" smooth="yes"/>
			<point x="-286" y="-190"/>
			<point x="-335" y="-156"/>
			<point x="-390" y="-156" type="curve" smooth="yes"/>
			<point x="-450" y="-156"/>
			<point x="-497" y="-190"/>
			<point x="-497" y="-270" type="curve" smooth="yes"/>
			<point x="-497" y="-350"/>
			<point x="-450" y="-385"/>
		</contour>
		<contour>
			<point x="1" y="-385" type="curve" smooth="yes"/>
			<point x="56" y="-385"/>
			<point x="105" y="-350"/>
			<point x="105" y="-270" type="curve" smooth="yes"/>
			<point x="105" y="-190"/>
			<point x="56" y="-156"/>
			<point x="1" y="-156" type="curve" smooth="yes"/>
			<point x="-58" y="-156"/>
			<point x="-105" y="-190"/>
			<point x="-105" y="-270" type="curve" smooth="yes"/>
			<point x="-105" y="-350"/>
			<point x="-58" y="-385"/>
		</contour>
	</outline>
	<note>
		tripleunderdotcomb
	</note>
</glyph>
<glyph name="widebridgeabovecomb" format="2">
	<unicode hex="20E9"/>
	<outline>
		<contour>
			<point x="-457" y="1241" type="line"/>
			<point x="-342" y="1241" type="line"/>
			<point x="-342" y="1444" type="line"/>
			<point x="340" y="1444" type="line"/>
			<point x="340" y="1241" type="line"/>
			<point x="457" y="1241" type="line"/>
			<point x="457" y="1579" type="line"/>
			<point x="-457" y="1579" type="line"/>
		</contour>
	</outline>
	<note>
		widebridgeabovecomb
	</note>
</glyph>
<glyph name="leftarrowbelowcomb" format="2">
	<unicode hex="20EE"/>
	<outline>
		<contour>
			<point x="-115" y="-449" type="line"/>
			<point x="-115" y="-322" type="line"/>
			<point x="371" y="-322" type="line"/>
			<point x="371" y="-199" type="line"/>
			<point x="-115" y="-199" type="line"/>
			<point x="-115" y="-72" type="line"/>
			<point x="-371" y="-260" type="line"/>
		</contour>
	</outline>
	<note>
		leftarrowbelowcomb
	</note>
</glyph>
<glyph name="planckconstant" format="2">
	<unicode hex="210E"/>
	<advance width="1227"/>
	<outline>
		<contour>
			<point x="928" y="-20" type="curve" smooth="yes"/>
			<point x="1006" y="-20"/>
			<point x="1090" y="18"/>
			<point x="1178" y="96" type="curve"/>
			<point x="1141" y="156" type="line"/>
			<point x="1094" y="125"/>
			<point x="1049" y="109"/>
			<point x="1010" y="109" type="curve" smooth="yes"/>
			<point x="963" y="109"/>
			<point x="938" y="141"/>
			<point x="938" y="207" type="curve" smooth="yes"/>
			<point x="938" y="268"/>
			<point x="946" y="340"/>
			<point x="965" y="422" type="curve" smooth="yes"/>
			<point x="1018" y="664" type="line" smooth="yes"/>
			<point x="1040" y="770"/>
			<point x="1055" y="846"/>
			<point x="1055" y="889" type="curve" smooth="yes"/>
			<point x="1055" y="1040"/>
			<point x="981" y="1116"/>
			<point x="836" y="1116" type="curve" smooth="yes"/>
			<point x="696" y="1116"/>
			<point x="569" y="1024"/>
			<point x="457" y="840" type="curve"/>
			<point x="434" y="840" type="line"/>
			<point x="465" y="954"/>
			<point x="492" y="1067"/>
			<point x="516" y="1180" type="curve" smooth="yes"/>
			<point x="596" y="1556" type="line"/>
			<point x="219" y="1556" type="line"/>
			<point x="201" y="1470" type="line"/>
			<point x="217" y="1470" type="line" smooth="yes"/>
			<point x="313" y="1470"/>
			<point x="360" y="1438"/>
			<point x="360" y="1374" type="curve" smooth="yes"/>
			<point x="360" y="1362"/>
			<point x="354" y="1325"/>
			<point x="342" y="1266" type="curve" smooth="yes"/>
			<point x="76" y="0" type="line"/>
			<point x="266" y="0" type="line"/>
			<point x="377" y="524" type="line" smooth="yes"/>
			<point x="397" y="625"/>
			<point x="449" y="725"/>
			<point x="528" y="829" type="curve" smooth="yes"/>
			<point x="608" y="934"/>
			<point x="688" y="985"/>
			<point x="764" y="985" type="curve" smooth="yes"/>
			<point x="827" y="985"/>
			<point x="858" y="944"/>
			<point x="858" y="864" type="curve" smooth="yes"/>
			<point x="858" y="819"/>
			<point x="846" y="756"/>
			<point x="827" y="674" type="curve" smooth="yes"/>
			<point x="780" y="461" type="line" smooth="yes"/>
			<point x="754" y="340"/>
			<point x="741" y="248"/>
			<point x="741" y="184" type="curve" smooth="yes"/>
			<point x="741" y="59"/>
			<point x="813" y="-20"/>
		</contour>
	</outline>
</glyph>
<glyph name="I-fraktur" format="2">
	<unicode hex="2111"/>
	<advance width="1145"/>
	<outline>
		<contour>
			<point x="428" y="-16" type="curve" smooth="yes"/>
			<point x="487" y="-16"/>
			<point x="543" y="-8"/>
			<point x="690" y="92" type="curve" smooth="yes"/>
			<point x="911" y="244"/>
			<point x="965" y="362"/>
			<point x="965" y="520" type="curve" smooth="yes"/>
			<point x="965" y="588"/>
			<point x="956" y="688"/>
			<point x="944" y="782" type="curve" smooth="yes"/>
			<point x="928" y="901"/>
			<point x="913" y="1014"/>
			<point x="913" y="1042" type="curve" smooth="yes"/>
			<point x="913" y="1090"/>
			<point x="958" y="1139"/>
			<point x="1053" y="1210" type="curve"/>
			<point x="1028" y="1245" type="line"/>
			<point x="961" y="1202"/>
			<point x="727" y="1030"/>
			<point x="727" y="971" type="curve" smooth="yes"/>
			<point x="727" y="915"/>
			<point x="737" y="834"/>
			<point x="750" y="741" type="curve" smooth="yes"/>
			<point x="762" y="653"/>
			<point x="770" y="559"/>
			<point x="770" y="469" type="curve" smooth="yes"/>
			<point x="770" y="274"/>
			<point x="729" y="98"/>
			<point x="524" y="98" type="curve" smooth="yes"/>
			<point x="416" y="98"/>
			<point x="356" y="217"/>
			<point x="340" y="268" type="curve" smooth="yes"/>
			<point x="328" y="307"/>
			<point x="319" y="330"/>
			<point x="313" y="332" type="curve"/>
			<point x="307" y="330"/>
			<point x="289" y="309"/>
			<point x="279" y="297" type="curve" smooth="yes"/>
			<point x="66" y="43" type="line"/>
			<point x="98" y="10" type="line"/>
			<point x="199" y="98" type="line"/>
			<point x="236" y="66"/>
			<point x="360" y="-16"/>
		</contour>
		<contour>
			<point x="104" y="1020" type="line"/>
			<point x="137" y="1118"/>
			<point x="252" y="1286"/>
			<point x="401" y="1286" type="curve" smooth="yes"/>
			<point x="455" y="1286"/>
			<point x="524" y="1268"/>
			<point x="592" y="1239" type="curve" smooth="yes"/>
			<point x="670" y="1206"/>
			<point x="739" y="1178"/>
			<point x="770" y="1178" type="curve" smooth="yes"/>
			<point x="807" y="1178"/>
			<point x="909" y="1253"/>
			<point x="1106" y="1403" type="curve"/>
			<point x="1079" y="1440" type="line"/>
			<point x="1057" y="1419"/>
			<point x="944" y="1325"/>
			<point x="870" y="1325" type="curve" smooth="yes"/>
			<point x="815" y="1325"/>
			<point x="731" y="1364"/>
			<point x="643" y="1407" type="curve" smooth="yes"/>
			<point x="565" y="1444"/>
			<point x="487" y="1475"/>
			<point x="422" y="1475" type="curve" smooth="yes"/>
			<point x="223" y="1475"/>
			<point x="80" y="1098"/>
			<point x="66" y="1036" type="curve"/>
		</contour>
	</outline>
</glyph>
<glyph name="alephsymbol" format="2">
	<unicode hex="2135"/>
	<advance width="1247"/>
	<outline>
		<contour>
			<point x="1071" y="-53" type="curve"/>
			<point x="1180" y="41" type="line"/>
			<point x="1090" y="166"/>
			<point x="979" y="317"/>
			<point x="852" y="481" type="curve"/>
			<point x="1040" y="682"/>
			<point x="1143" y="969"/>
			<point x="1159" y="1194" type="curve"/>
			<point x="999" y="1194" type="line"/>
			<point x="997" y="1028"/>
			<point x="926" y="778"/>
			<point x="768" y="590" type="curve"/>
			<point x="584" y="825"/>
			<point x="375" y="1065"/>
			<point x="199" y="1231" type="curve"/>
			<point x="88" y="1124" type="line"/>
			<point x="176" y="1044"/>
			<point x="276" y="944"/>
			<point x="381" y="827" type="curve"/>
			<point x="166" y="557"/>
			<point x="84" y="254"/>
			<point x="76" y="-2" type="curve"/>
			<point x="225" y="-2" type="line"/>
			<point x="236" y="217"/>
			<point x="295" y="481"/>
			<point x="471" y="723" type="curve"/>
			<point x="694" y="459"/>
			<point x="913" y="162"/>
		</contour>
	</outline>
</glyph>
<glyph name="gammadoubleStruck" format="2">
	<unicode hex="213D"/>
	<advance width="1112"/>
	<outline>
		<contour>
			<point x="432" y="-492" type="curve"/>
			<point x="545" y="-492" type="line"/>
			<point x="545" y="-354"/>
			<point x="582" y="-139"/>
			<point x="645" y="27" type="curve" smooth="yes"/>
			<point x="1055" y="1098" type="line"/>
			<point x="938" y="1098" type="line"/>
			<point x="737" y="555" type="line" smooth="yes"/>
			<point x="727" y="526"/>
			<point x="702" y="455"/>
			<point x="696" y="430" type="curve"/>
			<point x="688" y="459"/>
			<point x="662" y="518"/>
			<point x="643" y="557" type="curve" smooth="yes"/>
			<point x="385" y="1098" type="line"/>
			<point x="10" y="1098" type="line"/>
			<point x="537" y="12" type="line"/>
			<point x="475" y="-156"/>
			<point x="432" y="-379"/>
		</contour>
		<contour>
			<point x="575" y="123" type="line"/>
			<point x="557" y="195"/>
			<point x="485" y="350"/>
			<point x="436" y="455" type="curve" smooth="yes"/>
			<point x="176" y="997" type="line"/>
			<point x="315" y="997" type="line"/>
			<point x="645" y="315" type="line"/>
			<point x="616" y="233"/>
			<point x="590" y="156"/>
			<point x="584" y="123" type="curve"/>
		</contour>
	</outline>
</glyph>
<glyph name="rightArrow" format="2">
	<unicode hex="2192"/>
	<advance width="1626"/>
	<outline>
		<contour>
			<point x="1090" y="403" type="curve"/>
			<point x="1180" y="403" type="line"/>
			<point x="1288" y="530"/>
			<point x="1403" y="625"/>
			<point x="1522" y="684" type="curve"/>
			<point x="1522" y="729" type="line"/>
			<point x="1403" y="788"/>
			<point x="1288" y="883"/>
			<point x="1180" y="1010" type="curve"/>
			<point x="1090" y="1010" type="line"/>
			<point x="1145" y="891"/>
			<point x="1200" y="801"/>
			<point x="1253" y="748" type="curve"/>
			<point x="1253" y="666" type="line"/>
			<point x="1200" y="612"/>
			<point x="1145" y="522"/>
		</contour>
		<contour>
			<point x="104" y="651" type="line"/>
			<point x="1315" y="651" type="line"/>
			<point x="1315" y="762" type="line"/>
			<point x="104" y="762" type="line"/>
		</contour>
	</outline>
	<note>
		rightArrow
	</note>
</glyph>
<glyph name="northWestArrow" format="2">
	<unicode hex="2196"/>
	<advance width="1266"/>
	<outline>
		<contour>
			<point x="1083" y="178" type="line"/>
			<point x="1161" y="256" type="line"/>
			<point x="305" y="1112" type="line"/>
			<point x="227" y="1034" type="line"/>
		</contour>
		<contour>
			<point x="211" y="700" type="line"/>
			<point x="256" y="823"/>
			<point x="281" y="926"/>
			<point x="281" y="1001" type="curve"/>
			<point x="338" y="1059" type="line"/>
			<point x="414" y="1059"/>
			<point x="516" y="1083"/>
			<point x="639" y="1128" type="curve"/>
			<point x="575" y="1192" type="line"/>
			<point x="410" y="1180"/>
			<point x="262" y="1194"/>
			<point x="135" y="1235" type="curve"/>
			<point x="104" y="1204" type="line"/>
			<point x="145" y="1077"/>
			<point x="160" y="930"/>
			<point x="147" y="764" type="curve"/>
		</contour>
	</outline>
	<note>
		northWestArrow
	</note>
</glyph>
<glyph name="northEastArrow" format="2">
	<unicode hex="2197"/>
	<advance width="1266"/>
	<outline>
		<contour>
			<point x="182" y="178" type="line"/>
			<point x="1038" y="1034" type="line"/>
			<point x="961" y="1112" type="line"/>
			<point x="104" y="256" type="line"/>
		</contour>
		<contour>
			<point x="1055" y="700" type="curve"/>
			<point x="1118" y="764" type="line"/>
			<point x="1106" y="930"/>
			<point x="1120" y="1077"/>
			<point x="1161" y="1204" type="curve"/>
			<point x="1130" y="1235" type="line"/>
			<point x="1004" y="1194"/>
			<point x="856" y="1180"/>
			<point x="690" y="1192" type="curve"/>
			<point x="627" y="1128" type="line"/>
			<point x="750" y="1083"/>
			<point x="852" y="1059"/>
			<point x="928" y="1059" type="curve"/>
			<point x="985" y="1001" type="line"/>
			<point x="985" y="926"/>
			<point x="1010" y="823"/>
		</contour>
	</outline>
	<note>
		northEastArrow
	</note>
</glyph>
<glyph name="southWestArrow" format="2">
	<unicode hex="2199"/>
	<advance width="1266"/>
	<outline>
		<contour>
			<point x="305" y="301" type="line"/>
			<point x="1161" y="1157" type="line"/>
			<point x="1083" y="1235" type="line"/>
			<point x="227" y="379" type="line"/>
		</contour>
		<contour>
			<point x="135" y="178" type="line"/>
			<point x="262" y="219"/>
			<point x="410" y="233"/>
			<point x="575" y="221" type="curve"/>
			<point x="639" y="285" type="line"/>
			<point x="516" y="330"/>
			<point x="414" y="354"/>
			<point x="338" y="354" type="curve"/>
			<point x="281" y="412" type="line"/>
			<point x="281" y="487"/>
			<point x="256" y="590"/>
			<point x="211" y="713" type="curve"/>
			<point x="147" y="649" type="line"/>
			<point x="160" y="483"/>
			<point x="145" y="336"/>
			<point x="104" y="209" type="curve"/>
		</contour>
	</outline>
	<note>
		southWestArrow
	</note>
</glyph>
<glyph name="rightWaveArrow" format="2">
	<unicode hex="219D"/>
	<advance width="1749"/>
	<outline>
		<contour>
			<point x="1065" y="430" type="curve" smooth="yes"/>
			<point x="1151" y="430"/>
			<point x="1210" y="475"/>
			<point x="1290" y="553" type="curve" smooth="yes"/>
			<point x="1522" y="782" type="line"/>
			<point x="1442" y="862" type="line"/>
			<point x="1212" y="631" type="line" smooth="yes"/>
			<point x="1151" y="569"/>
			<point x="1114" y="541"/>
			<point x="1065" y="541" type="curve" smooth="yes"/>
			<point x="1016" y="541"/>
			<point x="979" y="561"/>
			<point x="850" y="670" type="curve" smooth="yes"/>
			<point x="780" y="729" type="line" smooth="yes"/>
			<point x="692" y="803"/>
			<point x="610" y="862"/>
			<point x="524" y="862" type="curve" smooth="yes"/>
			<point x="438" y="862"/>
			<point x="377" y="819"/>
			<point x="299" y="739" type="curve" smooth="yes"/>
			<point x="104" y="541" type="line"/>
			<point x="184" y="463" type="line"/>
			<point x="377" y="662" type="line" smooth="yes"/>
			<point x="438" y="723"/>
			<point x="475" y="752"/>
			<point x="524" y="752" type="curve" smooth="yes"/>
			<point x="573" y="752"/>
			<point x="610" y="731"/>
			<point x="739" y="623" type="curve" smooth="yes"/>
			<point x="809" y="563" type="line" smooth="yes"/>
			<point x="897" y="489"/>
			<point x="979" y="430"/>
		</contour>
		<contour>
			<point x="1538" y="449" type="curve"/>
			<point x="1602" y="512" type="line"/>
			<point x="1597" y="551"/>
			<point x="1597" y="590"/>
			<point x="1597" y="629" type="curve" smooth="yes"/>
			<point x="1597" y="748"/>
			<point x="1614" y="856"/>
			<point x="1645" y="952" type="curve"/>
			<point x="1612" y="983" type="line"/>
			<point x="1516" y="952"/>
			<point x="1407" y="936"/>
			<point x="1286" y="936" type="curve" smooth="yes"/>
			<point x="1255" y="936"/>
			<point x="1212" y="938"/>
			<point x="1174" y="940" type="curve"/>
			<point x="1108" y="877" type="line"/>
			<point x="1233" y="831"/>
			<point x="1335" y="807"/>
			<point x="1411" y="807" type="curve"/>
			<point x="1468" y="750" type="line"/>
			<point x="1468" y="674"/>
			<point x="1493" y="571"/>
		</contour>
	</outline>
	<note>
		rightWaveArrow
	</note>
</glyph>
<glyph name="upTipLeftArrow" format="2">
	<unicode hex="21B0"/>
	<advance width="1237"/>
	<outline>
		<contour>
			<point x="891" y="0" type="line"/>
			<point x="1001" y="0" type="line"/>
			<point x="1001" y="1169" type="line"/>
			<point x="365" y="1169" type="line"/>
			<point x="365" y="1059" type="line"/>
			<point x="891" y="1059" type="line"/>
		</contour>
		<contour>
			<point x="578" y="811" type="curve"/>
			<point x="668" y="811" type="line"/>
			<point x="612" y="930"/>
			<point x="557" y="1020"/>
			<point x="504" y="1073" type="curve"/>
			<point x="504" y="1155" type="line"/>
			<point x="557" y="1208"/>
			<point x="612" y="1298"/>
			<point x="668" y="1417" type="curve"/>
			<point x="578" y="1417" type="line"/>
			<point x="469" y="1290"/>
			<point x="354" y="1196"/>
			<point x="236" y="1137" type="curve"/>
			<point x="236" y="1092" type="line"/>
			<point x="354" y="1032"/>
			<point x="469" y="938"/>
		</contour>
	</outline>
	<note>
		upTipLeftArrow
	</note>
</glyph>
<glyph name="carriagereturn" format="2">
	<unicode hex="21B5"/>
	<advance width="1237"/>
	<outline>
		<contour>
			<point x="365" y="481" type="line"/>
			<point x="1001" y="481" type="line"/>
			<point x="1001" y="1180" type="line"/>
			<point x="891" y="1180" type="line"/>
			<point x="891" y="592" type="line"/>
			<point x="365" y="592" type="line"/>
		</contour>
		<contour>
			<point x="578" y="233" type="curve"/>
			<point x="668" y="233" type="line"/>
			<point x="612" y="352"/>
			<point x="557" y="442"/>
			<point x="504" y="496" type="curve"/>
			<point x="504" y="578" type="line"/>
			<point x="557" y="631"/>
			<point x="612" y="721"/>
			<point x="668" y="840" type="curve"/>
			<point x="578" y="840" type="line"/>
			<point x="469" y="713"/>
			<point x="354" y="618"/>
			<point x="236" y="559" type="curve"/>
			<point x="236" y="514" type="line"/>
			<point x="354" y="455"/>
			<point x="469" y="360"/>
		</contour>
	</outline>
	<note>
		carriagereturn
	</note>
</glyph>
<glyph name="rightOverLeftArrow" format="2">
	<unicode hex="21C4"/>
	<advance width="1626"/>
	<outline>
		<contour>
			<point x="1090" y="739" type="curve"/>
			<point x="1180" y="739" type="line"/>
			<point x="1288" y="866"/>
			<point x="1403" y="961"/>
			<point x="1522" y="1020" type="curve"/>
			<point x="1522" y="1065" type="line"/>
			<point x="1403" y="1124"/>
			<point x="1288" y="1219"/>
			<point x="1180" y="1346" type="curve"/>
			<point x="1090" y="1346" type="line"/>
			<point x="1145" y="1227"/>
			<point x="1200" y="1137"/>
			<point x="1253" y="1083" type="curve"/>
			<point x="1253" y="1001" type="line"/>
			<point x="1200" y="948"/>
			<point x="1145" y="858"/>
		</contour>
		<contour>
			<point x="446" y="68" type="curve"/>
			<point x="537" y="68" type="line"/>
			<point x="481" y="186"/>
			<point x="426" y="276"/>
			<point x="373" y="330" type="curve"/>
			<point x="373" y="412" type="line"/>
			<point x="426" y="465"/>
			<point x="481" y="555"/>
			<point x="537" y="674" type="curve"/>
			<point x="446" y="674" type="line"/>
			<point x="338" y="547"/>
			<point x="223" y="453"/>
			<point x="104" y="393" type="curve"/>
			<point x="104" y="348" type="line"/>
			<point x="223" y="289"/>
			<point x="338" y="195"/>
		</contour>
		<contour>
			<point x="311" y="315" type="line"/>
			<point x="1522" y="315" type="line"/>
			<point x="1522" y="426" type="line"/>
			<point x="311" y="426" type="line"/>
		</contour>
		<contour>
			<point x="104" y="987" type="line"/>
			<point x="1315" y="987" type="line"/>
			<point x="1315" y="1098" type="line"/>
			<point x="104" y="1098" type="line"/>
		</contour>
	</outline>
	<note>
		rightOverLeftArrow
	</note>
</glyph>
<glyph name="leftAndRightArrow" format="2">
	<unicode hex="21C6"/>
	<advance width="1626"/>
	<outline>
		<contour>
			<point x="1090" y="68" type="curve"/>
			<point x="1180" y="68" type="line"/>
			<point x="1288" y="195"/>
			<point x="1403" y="289"/>
			<point x="1522" y="348" type="curve"/>
			<point x="1522" y="393" type="line"/>
			<point x="1403" y="453"/>
			<point x="1288" y="547"/>
			<point x="1180" y="674" type="curve"/>
			<point x="1090" y="674" type="line"/>
			<point x="1145" y="555"/>
			<point x="1200" y="465"/>
			<point x="1253" y="412" type="curve"/>
			<point x="1253" y="330" type="line"/>
			<point x="1200" y="276"/>
			<point x="1145" y="186"/>
		</contour>
		<contour>
			<point x="104" y="315" type="line"/>
			<point x="1315" y="315" type="line"/>
			<point x="1315" y="426" type="line"/>
			<point x="104" y="426" type="line"/>
		</contour>
		<contour>
			<point x="446" y="739" type="curve"/>
			<point x="537" y="739" type="line"/>
			<point x="481" y="858"/>
			<point x="426" y="948"/>
			<point x="373" y="1001" type="curve"/>
			<point x="373" y="1083" type="line"/>
			<point x="426" y="1137"/>
			<point x="481" y="1227"/>
			<point x="537" y="1346" type="curve"/>
			<point x="446" y="1346" type="line"/>
			<point x="338" y="1219"/>
			<point x="223" y="1124"/>
			<point x="104" y="1065" type="curve"/>
			<point x="104" y="1020" type="line"/>
			<point x="223" y="961"/>
			<point x="338" y="866"/>
		</contour>
		<contour>
			<point x="311" y="987" type="line"/>
			<point x="1522" y="987" type="line"/>
			<point x="1522" y="1098" type="line"/>
			<point x="311" y="1098" type="line"/>
		</contour>
	</outline>
	<note>
		leftAndRightArrow
	</note>
</glyph>
<glyph name="leftRightDoubleStrokeArrow" format="2">
	<unicode hex="21CE"/>
	<advance width="2015"/>
	<outline>
		<contour>
			<point x="1378" y="221" type="curve"/>
			<point x="1468" y="221" type="line"/>
			<point x="1579" y="348"/>
			<point x="1722" y="504"/>
			<point x="1911" y="686" type="curve"/>
			<point x="1911" y="727" type="line"/>
			<point x="1722" y="909"/>
			<point x="1579" y="1065"/>
			<point x="1468" y="1192" type="curve"/>
			<point x="1378" y="1192" type="line"/>
			<point x="1466" y="1020"/>
			<point x="1599" y="821"/>
			<point x="1733" y="674" type="curve"/>
			<point x="1733" y="739" type="line"/>
			<point x="1599" y="592"/>
			<point x="1466" y="393"/>
		</contour>
		<contour>
			<point x="547" y="221" type="curve"/>
			<point x="637" y="221" type="line"/>
			<point x="549" y="393"/>
			<point x="416" y="592"/>
			<point x="283" y="739" type="curve"/>
			<point x="283" y="674" type="line"/>
			<point x="416" y="821"/>
			<point x="549" y="1020"/>
			<point x="637" y="1192" type="curve"/>
			<point x="547" y="1192" type="line"/>
			<point x="436" y="1065"/>
			<point x="293" y="909"/>
			<point x="104" y="727" type="curve"/>
			<point x="104" y="686" type="line"/>
			<point x="293" y="504"/>
			<point x="436" y="348"/>
		</contour>
		<contour>
			<point x="340" y="506" type="line"/>
			<point x="1675" y="506" type="line"/>
			<point x="1675" y="616" type="line"/>
			<point x="340" y="616" type="line"/>
		</contour>
		<contour>
			<point x="782" y="403" type="line"/>
			<point x="907" y="403" type="line"/>
			<point x="1233" y="1010" type="line"/>
			<point x="1108" y="1010" type="line"/>
		</contour>
		<contour>
			<point x="340" y="797" type="line"/>
			<point x="1675" y="797" type="line"/>
			<point x="1675" y="907" type="line"/>
			<point x="340" y="907" type="line"/>
		</contour>
	</outline>
	<note>
		leftRightDoubleStrokeArrow
	</note>
</glyph>
<glyph name="upDoubleArrow" format="2">
	<unicode hex="21D1"/>
	<advance width="1257"/>
	<outline>
		<contour>
			<point x="143" y="885" type="line"/>
			<point x="315" y="973"/>
			<point x="514" y="1106"/>
			<point x="662" y="1239" type="curve"/>
			<point x="596" y="1239" type="line"/>
			<point x="743" y="1106"/>
			<point x="942" y="973"/>
			<point x="1114" y="885" type="curve"/>
			<point x="1114" y="975" type="line"/>
			<point x="987" y="1085"/>
			<point x="831" y="1229"/>
			<point x="649" y="1417" type="curve"/>
			<point x="608" y="1417" type="line"/>
			<point x="426" y="1229"/>
			<point x="270" y="1085"/>
			<point x="143" y="975" type="curve"/>
		</contour>
		<contour>
			<point x="428" y="0" type="line"/>
			<point x="539" y="0" type="line"/>
			<point x="539" y="1182" type="line"/>
			<point x="428" y="1182" type="line"/>
		</contour>
		<contour>
			<point x="719" y="0" type="line"/>
			<point x="829" y="0" type="line"/>
			<point x="829" y="1182" type="line"/>
			<point x="719" y="1182" type="line"/>
		</contour>
	</outline>
	<note>
		upDoubleArrow
	</note>
</glyph>
<glyph name="rightDoubleArrow" format="2">
	<unicode hex="21D2"/>
	<advance width="1667"/>
	<outline>
		<contour>
			<point x="1030" y="221" type="curve"/>
			<point x="1120" y="221" type="line"/>
			<point x="1231" y="348"/>
			<point x="1374" y="504"/>
			<point x="1563" y="686" type="curve"/>
			<point x="1563" y="727" type="line"/>
			<point x="1374" y="909"/>
			<point x="1231" y="1065"/>
			<point x="1120" y="1192" type="curve"/>
			<point x="1030" y="1192" type="line"/>
			<point x="1118" y="1020"/>
			<point x="1251" y="821"/>
			<point x="1384" y="674" type="curve"/>
			<point x="1384" y="739" type="line"/>
			<point x="1251" y="592"/>
			<point x="1118" y="393"/>
		</contour>
		<contour>
			<point x="104" y="506" type="line"/>
			<point x="1327" y="506" type="line"/>
			<point x="1327" y="616" type="line"/>
			<point x="104" y="616" type="line"/>
		</contour>
		<contour>
			<point x="104" y="797" type="line"/>
			<point x="1327" y="797" type="line"/>
			<point x="1327" y="907" type="line"/>
			<point x="104" y="907" type="line"/>
		</contour>
	</outline>
	<note>
		rightDoubleArrow
	</note>
</glyph>
<glyph name="rightTripleArrow" format="2">
	<unicode hex="21DB"/>
	<advance width="1647"/>
	<outline>
		<contour>
			<point x="1004" y="104" type="curve"/>
			<point x="1096" y="104" type="line"/>
			<point x="1243" y="305"/>
			<point x="1393" y="500"/>
			<point x="1542" y="686" type="curve"/>
			<point x="1542" y="727" type="line"/>
			<point x="1393" y="913"/>
			<point x="1243" y="1108"/>
			<point x="1096" y="1309" type="curve"/>
			<point x="1004" y="1309" type="line"/>
			<point x="1067" y="1141"/>
			<point x="1235" y="834"/>
			<point x="1354" y="676" type="curve"/>
			<point x="1354" y="737" type="line"/>
			<point x="1235" y="580"/>
			<point x="1067" y="272"/>
		</contour>
		<contour>
			<point x="104" y="373" type="line"/>
			<point x="1237" y="373" type="line"/>
			<point x="1237" y="483" type="line"/>
			<point x="104" y="483" type="line"/>
		</contour>
		<contour>
			<point x="104" y="651" type="line"/>
			<point x="1401" y="651" type="line"/>
			<point x="1401" y="762" type="line"/>
			<point x="104" y="762" type="line"/>
		</contour>
		<contour>
			<point x="104" y="930" type="line"/>
			<point x="1237" y="930" type="line"/>
			<point x="1237" y="1040" type="line"/>
			<point x="104" y="1040" type="line"/>
		</contour>
	</outline>
	<note>
		rightTripleArrow
	</note>
</glyph>
<glyph name="upDashArrow" format="2">
	<unicode hex="21E1"/>
	<advance width="893"/>
	<outline>
		<contour>
			<point x="143" y="1028" type="line"/>
			<point x="262" y="1083"/>
			<point x="352" y="1139"/>
			<point x="406" y="1192" type="curve"/>
			<point x="487" y="1192" type="line"/>
			<point x="541" y="1139"/>
			<point x="631" y="1083"/>
			<point x="750" y="1028" type="curve"/>
			<point x="750" y="1118" type="line"/>
			<point x="623" y="1227"/>
			<point x="528" y="1341"/>
			<point x="469" y="1460" type="curve"/>
			<point x="424" y="1460" type="line"/>
			<point x="365" y="1341"/>
			<point x="270" y="1227"/>
			<point x="143" y="1118" type="curve"/>
		</contour>
		<contour>
			<point x="391" y="-43" type="line"/>
			<point x="502" y="-43" type="line"/>
			<point x="502" y="184" type="line"/>
			<point x="391" y="184" type="line"/>
		</contour>
		<contour>
			<point x="391" y="295" type="line"/>
			<point x="502" y="295" type="line"/>
			<point x="502" y="520" type="line"/>
			<point x="391" y="520" type="line"/>
		</contour>
		<contour>
			<point x="391" y="631" type="line"/>
			<point x="502" y="631" type="line"/>
			<point x="502" y="856" type="line"/>
			<point x="391" y="856" type="line"/>
		</contour>
		<contour>
			<point x="391" y="967" type="line"/>
			<point x="502" y="967" type="line"/>
			<point x="502" y="1253" type="line"/>
			<point x="391" y="1253" type="line"/>
		</contour>
	</outline>
	<note>
		upDashArrow
	</note>
</glyph>
<glyph name="southEastArrowToCorner" format="2">
	<unicode hex="21F2"/>
	<advance width="1837"/>
	<outline>
		<contour>
			<point x="184" y="0" type="line"/>
			<point x="1602" y="0" type="line"/>
			<point x="1602" y="1417" type="line"/>
			<point x="1491" y="1417" type="line"/>
			<point x="1491" y="111" type="line"/>
			<point x="184" y="111" type="line"/>
		</contour>
		<contour>
			<point x="1114" y="416" type="line"/>
			<point x="1192" y="494" type="line"/>
			<point x="336" y="1350" type="line"/>
			<point x="258" y="1272" type="line"/>
		</contour>
		<contour>
			<point x="1284" y="293" type="curve"/>
			<point x="1315" y="324" type="line"/>
			<point x="1274" y="451"/>
			<point x="1260" y="598"/>
			<point x="1272" y="764" type="curve"/>
			<point x="1208" y="827" type="line"/>
			<point x="1163" y="705"/>
			<point x="1139" y="602"/>
			<point x="1139" y="526" type="curve"/>
			<point x="1081" y="469" type="line"/>
			<point x="1006" y="469"/>
			<point x="903" y="444"/>
			<point x="780" y="399" type="curve"/>
			<point x="844" y="336" type="line"/>
			<point x="1010" y="348"/>
			<point x="1157" y="334"/>
		</contour>
	</outline>
	<note>
		southEastArrowToCorner
	</note>
</glyph>
<glyph name="rightCircleArrow" format="2">
	<unicode hex="21F4"/>
	<advance width="1731"/>
	<outline>
		<contour>
			<point x="692" y="403" type="curve" smooth="yes"/>
			<point x="860" y="403"/>
			<point x="995" y="539"/>
			<point x="995" y="707" type="curve" smooth="yes"/>
			<point x="995" y="874"/>
			<point x="860" y="1010"/>
			<point x="692" y="1010" type="curve" smooth="yes"/>
			<point x="524" y="1010"/>
			<point x="389" y="874"/>
			<point x="389" y="707" type="curve" smooth="yes"/>
			<point x="389" y="539"/>
			<point x="524" y="403"/>
		</contour>
		<contour>
			<point x="692" y="514" type="curve" smooth="yes"/>
			<point x="586" y="514"/>
			<point x="500" y="600"/>
			<point x="500" y="707" type="curve" smooth="yes"/>
			<point x="500" y="813"/>
			<point x="586" y="899"/>
			<point x="692" y="899" type="curve" smooth="yes"/>
			<point x="799" y="899"/>
			<point x="885" y="813"/>
			<point x="885" y="707" type="curve" smooth="yes"/>
			<point x="885" y="600"/>
			<point x="799" y="514"/>
		</contour>
		<contour>
			<point x="104" y="651" type="line"/>
			<point x="1419" y="651" type="line"/>
			<point x="1419" y="762" type="line"/>
			<point x="104" y="762" type="line"/>
		</contour>
		<contour>
			<point x="104" y="651" type="line"/>
			<point x="1419" y="651" type="line"/>
			<point x="1419" y="762" type="line"/>
			<point x="104" y="762" type="line"/>
		</contour>
		<contour>
			<point x="1194" y="403" type="curve"/>
			<point x="1284" y="403" type="line"/>
			<point x="1393" y="530"/>
			<point x="1507" y="625"/>
			<point x="1626" y="684" type="curve"/>
			<point x="1626" y="729" type="line"/>
			<point x="1507" y="788"/>
			<point x="1393" y="883"/>
			<point x="1284" y="1010" type="curve"/>
			<point x="1194" y="1010" type="line"/>
			<point x="1249" y="891"/>
			<point x="1305" y="801"/>
			<point x="1358" y="748" type="curve"/>
			<point x="1358" y="666" type="line"/>
			<point x="1305" y="612"/>
			<point x="1249" y="522"/>
		</contour>
		<contour>
			<point x="1194" y="403" type="curve"/>
			<point x="1284" y="403" type="line"/>
			<point x="1393" y="530"/>
			<point x="1507" y="625"/>
			<point x="1626" y="684" type="curve"/>
			<point x="1626" y="729" type="line"/>
			<point x="1507" y="788"/>
			<point x="1393" y="883"/>
			<point x="1284" y="1010" type="curve"/>
			<point x="1194" y="1010" type="line"/>
			<point x="1249" y="891"/>
			<point x="1305" y="801"/>
			<point x="1358" y="748" type="curve"/>
			<point x="1358" y="666" type="line"/>
			<point x="1305" y="612"/>
			<point x="1249" y="522"/>
		</contour>
	</outline>
	<note>
		rightCircleArrow
	</note>
</glyph>
<glyph name="leftRightDoubleVerticalStrokeArrow" format="2">
	<unicode hex="21FC"/>
	<advance width="1810"/>
	<outline>
		<contour>
			<point x="1274" y="403" type="curve"/>
			<point x="1364" y="403" type="line"/>
			<point x="1473" y="530"/>
			<point x="1587" y="625"/>
			<point x="1706" y="684" type="curve"/>
			<point x="1706" y="729" type="line"/>
			<point x="1587" y="788"/>
			<point x="1473" y="883"/>
			<point x="1364" y="1010" type="curve"/>
			<point x="1274" y="1010" type="line"/>
			<point x="1329" y="891"/>
			<point x="1384" y="801"/>
			<point x="1438" y="748" type="curve"/>
			<point x="1438" y="666" type="line"/>
			<point x="1384" y="612"/>
			<point x="1329" y="522"/>
		</contour>
		<contour>
			<point x="446" y="403" type="curve"/>
			<point x="537" y="403" type="line"/>
			<point x="481" y="522"/>
			<point x="426" y="612"/>
			<point x="373" y="666" type="curve"/>
			<point x="373" y="748" type="line"/>
			<point x="426" y="801"/>
			<point x="481" y="891"/>
			<point x="537" y="1010" type="curve"/>
			<point x="446" y="1010" type="line"/>
			<point x="338" y="883"/>
			<point x="223" y="788"/>
			<point x="104" y="729" type="curve"/>
			<point x="104" y="684" type="line"/>
			<point x="223" y="625"/>
			<point x="338" y="530"/>
		</contour>
		<contour>
			<point x="723" y="403" type="line"/>
			<point x="834" y="403" type="line"/>
			<point x="834" y="1010" type="line"/>
			<point x="723" y="1010" type="line"/>
		</contour>
		<contour>
			<point x="311" y="651" type="line"/>
			<point x="1499" y="651" type="line"/>
			<point x="1499" y="762" type="line"/>
			<point x="311" y="762" type="line"/>
		</contour>
		<contour>
			<point x="977" y="403" type="line"/>
			<point x="1087" y="403" type="line"/>
			<point x="1087" y="1010" type="line"/>
			<point x="977" y="1010" type="line"/>
		</contour>
	</outline>
	<note>
		leftRightDoubleVerticalStrokeArrow
	</note>
</glyph>
<glyph name="leftOpenHeadedArrow" format="2">
	<unicode hex="21FD"/>
	<advance width="1753"/>
	<outline>
		<contour>
			<point x="598" y="446" type="line"/>
			<point x="598" y="967" type="line"/>
			<point x="104" y="707" type="line"/>
		</contour>
		<contour>
			<point x="500" y="608" type="line"/>
			<point x="299" y="707" type="line"/>
			<point x="500" y="805" type="line"/>
		</contour>
		<contour>
			<point x="557" y="651" type="line"/>
			<point x="1649" y="651" type="line"/>
			<point x="1649" y="762" type="line"/>
			<point x="557" y="762" type="line"/>
		</contour>
	</outline>
	<note>
		leftOpenHeadedArrow
	</note>
</glyph>
<glyph name="universal" format="2">
	<unicode hex="2200"/>
	<advance width="1536"/>
	<outline>
		<contour>
			<point x="680" y="-8" type="line"/>
			<point x="848" y="-8" type="line"/>
			<point x="1432" y="1464" type="line"/>
			<point x="1233" y="1464" type="line"/>
			<point x="1057" y="1008" type="line"/>
			<point x="471" y="1008" type="line"/>
			<point x="303" y="1464" type="line"/>
			<point x="104" y="1464" type="line"/>
		</contour>
		<contour>
			<point x="768" y="168" type="curve"/>
			<point x="766" y="182"/>
			<point x="756" y="217"/>
			<point x="737" y="270" type="curve" smooth="yes"/>
			<point x="719" y="324"/>
			<point x="653" y="512"/>
			<point x="537" y="840" type="curve"/>
			<point x="999" y="840" type="line"/>
			<point x="901" y="578"/>
			<point x="842" y="408"/>
			<point x="815" y="330" type="curve" smooth="yes"/>
			<point x="788" y="254"/>
			<point x="774" y="199"/>
		</contour>
	</outline>
	<note>
		universal
	</note>
</glyph>
<glyph name="element" format="2">
	<unicode hex="2208"/>
	<advance width="1432"/>
	<outline>
		<contour>
			<point x="807" y="125" type="curve" smooth="yes"/>
			<point x="1327" y="125" type="line"/>
			<point x="1327" y="270" type="line"/>
			<point x="782" y="270" type="line" smooth="yes"/>
			<point x="438" y="270"/>
			<point x="252" y="426"/>
			<point x="252" y="721" type="curve" smooth="yes"/>
			<point x="252" y="1016"/>
			<point x="434" y="1171"/>
			<point x="782" y="1171" type="curve" smooth="yes"/>
			<point x="1327" y="1171" type="line"/>
			<point x="1327" y="1317" type="line"/>
			<point x="807" y="1317" type="line" smooth="yes"/>
			<point x="346" y="1317"/>
			<point x="104" y="1112"/>
			<point x="104" y="721" type="curve" smooth="yes"/>
			<point x="104" y="330"/>
			<point x="350" y="125"/>
		</contour>
		<contour>
			<point x="178" y="649" type="line"/>
			<point x="1327" y="649" type="line"/>
			<point x="1327" y="795" type="line"/>
			<point x="178" y="795" type="line"/>
		</contour>
	</outline>
	<note>
		element
	</note>
</glyph>
<glyph name="elementSmall" format="2">
	<unicode hex="220A"/>
	<advance width="1139"/>
	<outline>
		<contour>
			<point x="631" y="272" type="curve" smooth="yes"/>
			<point x="1034" y="272" type="line"/>
			<point x="1034" y="418" type="line"/>
			<point x="631" y="418" type="line" smooth="yes"/>
			<point x="397" y="418"/>
			<point x="270" y="496"/>
			<point x="246" y="649" type="curve"/>
			<point x="1034" y="649" type="line"/>
			<point x="1034" y="795" type="line"/>
			<point x="246" y="795" type="line"/>
			<point x="272" y="948"/>
			<point x="401" y="1026"/>
			<point x="631" y="1026" type="curve" smooth="yes"/>
			<point x="1034" y="1026" type="line"/>
			<point x="1034" y="1171" type="line"/>
			<point x="631" y="1171" type="line" smooth="yes"/>
			<point x="291" y="1171"/>
			<point x="104" y="1018"/>
			<point x="104" y="721" type="curve" smooth="yes"/>
			<point x="104" y="428"/>
			<point x="287" y="272"/>
		</contour>
	</outline>
	<note>
		elementSmall
	</note>
</glyph>
<glyph name="notcontains" format="2">
	<unicode hex="220C"/>
	<advance width="1432"/>
	<outline>
		<contour>
			<point x="399" y="-88" type="line"/>
			<point x="481" y="125" type="line"/>
			<point x="625" y="125" type="line" smooth="yes"/>
			<point x="1081" y="125"/>
			<point x="1327" y="330"/>
			<point x="1327" y="721" type="curve" smooth="yes"/>
			<point x="1327" y="1012"/>
			<point x="1190" y="1204"/>
			<point x="926" y="1280" type="curve"/>
			<point x="1014" y="1507" type="line"/>
			<point x="889" y="1561" type="line"/>
			<point x="791" y="1307" type="line"/>
			<point x="739" y="1315"/>
			<point x="684" y="1317"/>
			<point x="625" y="1317" type="curve" smooth="yes"/>
			<point x="104" y="1317" type="line"/>
			<point x="104" y="1171" type="line"/>
			<point x="625" y="1171" type="line" smooth="yes"/>
			<point x="659" y="1171"/>
			<point x="696" y="1169"/>
			<point x="737" y="1165" type="curve"/>
			<point x="594" y="795" type="line"/>
			<point x="104" y="795" type="line"/>
			<point x="104" y="649" type="line"/>
			<point x="537" y="649" type="line"/>
			<point x="391" y="270" type="line"/>
			<point x="104" y="270" type="line"/>
			<point x="104" y="125" type="line"/>
			<point x="336" y="125" type="line"/>
			<point x="274" y="-35" type="line"/>
		</contour>
		<contour>
			<point x="537" y="270" type="line"/>
			<point x="682" y="649" type="line"/>
			<point x="1176" y="649" type="line"/>
			<point x="1149" y="395"/>
			<point x="965" y="270"/>
			<point x="625" y="270" type="curve" smooth="yes"/>
		</contour>
		<contour>
			<point x="739" y="795" type="line"/>
			<point x="872" y="1143" type="line"/>
			<point x="1053" y="1094"/>
			<point x="1153" y="979"/>
			<point x="1176" y="795" type="curve"/>
		</contour>
	</outline>
	<note>
		notcontains
	</note>
</glyph>
<glyph name="coproduct" format="2">
	<unicode hex="2210"/>
	<advance width="1329"/>
	<outline>
		<contour>
			<point x="104" y="-492" type="line"/>
			<point x="1225" y="-492" type="line"/>
			<point x="1225" y="1462" type="line"/>
			<point x="1040" y="1462" type="line"/>
			<point x="1040" y="-328" type="line"/>
			<point x="289" y="-328" type="line"/>
			<point x="289" y="1462" type="line"/>
			<point x="104" y="1462" type="line"/>
		</contour>
	</outline>
	<note>
		coproduct
	</note>
</glyph>
<glyph name="asteriskmath" format="2">
	<unicode hex="2217"/>
	<advance width="934"/>
	<outline>
		<contour>
			<point x="393" y="346" type="line"/>
			<point x="541" y="346" type="line"/>
			<point x="530" y="614" type="line"/>
			<point x="756" y="471" type="line"/>
			<point x="829" y="598" type="line"/>
			<point x="594" y="723" type="line"/>
			<point x="829" y="848" type="line"/>
			<point x="756" y="975" type="line"/>
			<point x="530" y="831" type="line"/>
			<point x="541" y="1100" type="line"/>
			<point x="393" y="1100" type="line"/>
			<point x="403" y="831" type="line"/>
			<point x="178" y="975" type="line"/>
			<point x="104" y="848" type="line"/>
			<point x="340" y="723" type="line"/>
			<point x="104" y="598" type="line"/>
			<point x="178" y="471" type="line"/>
			<point x="403" y="614" type="line"/>
		</contour>
	</outline>
	<note>
		asteriskmath
	</note>
</glyph>
<glyph name="proportional" format="2">
	<unicode hex="221D"/>
	<advance width="1106"/>
	<outline>
		<contour>
			<point x="406" y="406" type="curve" smooth="yes"/>
			<point x="520" y="406"/>
			<point x="625" y="481"/>
			<point x="705" y="618" type="curve"/>
			<point x="784" y="481"/>
			<point x="883" y="410"/>
			<point x="1001" y="406" type="curve"/>
			<point x="1001" y="535" type="line"/>
			<point x="913" y="539"/>
			<point x="846" y="596"/>
			<point x="778" y="719" type="curve"/>
			<point x="852" y="850"/>
			<point x="915" y="903"/>
			<point x="1001" y="909" type="curve"/>
			<point x="1001" y="1038" type="line"/>
			<point x="887" y="1030"/>
			<point x="788" y="961"/>
			<point x="707" y="823" type="curve"/>
			<point x="627" y="967"/>
			<point x="526" y="1038"/>
			<point x="406" y="1038" type="curve" smooth="yes"/>
			<point x="229" y="1038"/>
			<point x="104" y="905"/>
			<point x="104" y="723" type="curve" smooth="yes"/>
			<point x="104" y="535"/>
			<point x="225" y="406"/>
		</contour>
		<contour>
			<point x="414" y="535" type="curve" smooth="yes"/>
			<point x="307" y="535"/>
			<point x="238" y="614"/>
			<point x="238" y="723" type="curve" smooth="yes"/>
			<point x="238" y="831"/>
			<point x="309" y="909"/>
			<point x="412" y="909" type="curve" smooth="yes"/>
			<point x="504" y="909"/>
			<point x="569" y="848"/>
			<point x="637" y="723" type="curve"/>
			<point x="565" y="594"/>
			<point x="498" y="535"/>
		</contour>
	</outline>
	<note>
		proportional
	</note>
</glyph>
<glyph name="orthogonal" format="2">
	<unicode hex="221F"/>
	<advance width="1335"/>
	<outline>
		<contour>
			<point x="104" y="0" type="line"/>
			<point x="1231" y="0" type="line"/>
			<point x="1231" y="145" type="line"/>
			<point x="250" y="145" type="line"/>
			<point x="250" y="1126" type="line"/>
			<point x="104" y="1126" type="line"/>
		</contour>
	</outline>
	<note>
		orthogonal
	</note>
</glyph>
<glyph name="doesnotdivide" format="2">
	<unicode hex="2224"/>
	<advance width="883"/>
	<outline>
		<contour>
			<point x="199" y="291" type="line"/>
			<point x="778" y="909" type="line"/>
			<point x="680" y="999" type="line"/>
			<point x="104" y="383" type="line"/>
		</contour>
		<contour>
			<point x="377" y="-246" type="line"/>
			<point x="522" y="-246" type="line"/>
			<point x="522" y="1556" type="line"/>
			<point x="377" y="1556" type="line"/>
		</contour>
	</outline>
	<note>
		doesnotdivide
	</note>
</glyph>
<glyph name="logicaland" format="2">
	<unicode hex="2227"/>
	<advance width="1462"/>
	<outline>
		<contour>
			<point x="104" y="0" type="line"/>
			<point x="274" y="0" type="line"/>
			<point x="731" y="979" type="line"/>
			<point x="1188" y="0" type="line"/>
			<point x="1358" y="0" type="line"/>
			<point x="782" y="1188" type="line"/>
			<point x="680" y="1188" type="line"/>
		</contour>
	</outline>
	<note>
		logicaland
	</note>
</glyph>
<glyph name="geometricproportion" format="2">
	<unicode hex="223A"/>
	<advance width="1171"/>
	<outline>
		<contour>
			<point x="104" y="649" type="line"/>
			<point x="1067" y="649" type="line"/>
			<point x="1067" y="795" type="line"/>
			<point x="104" y="795" type="line"/>
		</contour>
		<contour>
			<point x="227" y="250" type="curve" smooth="yes"/>
			<point x="295" y="250"/>
			<point x="350" y="305"/>
			<point x="350" y="373" type="curve" smooth="yes"/>
			<point x="350" y="444"/>
			<point x="291" y="496"/>
			<point x="227" y="496" type="curve" smooth="yes"/>
			<point x="160" y="496"/>
			<point x="104" y="440"/>
			<point x="104" y="373" type="curve" smooth="yes"/>
			<point x="104" y="307"/>
			<point x="158" y="250"/>
		</contour>
		<contour>
			<point x="227" y="948" type="curve" smooth="yes"/>
			<point x="291" y="948"/>
			<point x="350" y="999"/>
			<point x="350" y="1071" type="curve" smooth="yes"/>
			<point x="350" y="1139"/>
			<point x="295" y="1194"/>
			<point x="227" y="1194" type="curve" smooth="yes"/>
			<point x="156" y="1194"/>
			<point x="104" y="1135"/>
			<point x="104" y="1071" type="curve" smooth="yes"/>
			<point x="104" y="1004"/>
			<point x="160" y="948"/>
		</contour>
		<contour>
			<point x="944" y="250" type="curve" smooth="yes"/>
			<point x="1012" y="250"/>
			<point x="1067" y="305"/>
			<point x="1067" y="373" type="curve" smooth="yes"/>
			<point x="1067" y="444"/>
			<point x="1008" y="496"/>
			<point x="944" y="496" type="curve" smooth="yes"/>
			<point x="877" y="496"/>
			<point x="821" y="440"/>
			<point x="821" y="373" type="curve" smooth="yes"/>
			<point x="821" y="307"/>
			<point x="874" y="250"/>
		</contour>
		<contour>
			<point x="944" y="948" type="curve" smooth="yes"/>
			<point x="1008" y="948"/>
			<point x="1067" y="999"/>
			<point x="1067" y="1071" type="curve" smooth="yes"/>
			<point x="1067" y="1139"/>
			<point x="1012" y="1194"/>
			<point x="944" y="1194" type="curve" smooth="yes"/>
			<point x="872" y="1194"/>
			<point x="821" y="1135"/>
			<point x="821" y="1071" type="curve" smooth="yes"/>
			<point x="821" y="1004"/>
			<point x="877" y="948"/>
		</contour>
	</outline>
	<note>
		geometricproportion
	</note>
</glyph>
<glyph name="wreathproduct" format="2">
	<unicode hex="2240"/>
	<advance width="498"/>
	<outline>
		<contour>
			<point x="223" y="207" type="curve"/>
			<point x="393" y="207" type="line"/>
			<point x="313" y="281"/>
			<point x="262" y="379"/>
			<point x="262" y="459" type="curve" smooth="yes"/>
			<point x="262" y="524"/>
			<point x="285" y="604"/>
			<point x="328" y="700" type="curve" smooth="yes"/>
			<point x="371" y="797"/>
			<point x="393" y="889"/>
			<point x="393" y="975" type="curve" smooth="yes"/>
			<point x="393" y="1077"/>
			<point x="354" y="1163"/>
			<point x="276" y="1237" type="curve"/>
			<point x="104" y="1237" type="line"/>
			<point x="178" y="1167"/>
			<point x="236" y="1067"/>
			<point x="236" y="989" type="curve" smooth="yes"/>
			<point x="236" y="922"/>
			<point x="213" y="840"/>
			<point x="170" y="743" type="curve" smooth="yes"/>
			<point x="127" y="645"/>
			<point x="104" y="555"/>
			<point x="104" y="469" type="curve" smooth="yes"/>
			<point x="104" y="367"/>
			<point x="143" y="281"/>
		</contour>
	</outline>
	<note>
		wreathproduct
	</note>
</glyph>
<glyph name="notsimilar" format="2">
	<unicode hex="2241"/>
	<advance width="1171"/>
	<outline>
		<contour>
			<point x="451" y="346" type="line"/>
			<point x="834" y="1038" type="line"/>
			<point x="721" y="1100" type="line"/>
			<point x="338" y="408" type="line"/>
		</contour>
		<contour>
			<point x="104" y="588" type="line"/>
			<point x="178" y="664"/>
			<point x="264" y="709"/>
			<point x="336" y="709" type="curve" smooth="yes"/>
			<point x="399" y="709"/>
			<point x="475" y="688"/>
			<point x="561" y="649" type="curve" smooth="yes"/>
			<point x="649" y="608"/>
			<point x="735" y="588"/>
			<point x="821" y="588" type="curve" smooth="yes"/>
			<point x="918" y="588"/>
			<point x="999" y="625"/>
			<point x="1067" y="698" type="curve"/>
			<point x="1067" y="856" type="line"/>
			<point x="995" y="780"/>
			<point x="903" y="735"/>
			<point x="831" y="735" type="curve" smooth="yes"/>
			<point x="772" y="735"/>
			<point x="698" y="760"/>
			<point x="606" y="797" type="curve" smooth="yes"/>
			<point x="516" y="834"/>
			<point x="430" y="856"/>
			<point x="348" y="856" type="curve" smooth="yes"/>
			<point x="252" y="856"/>
			<point x="170" y="819"/>
			<point x="104" y="748" type="curve"/>
		</contour>
	</outline>
	<note>
		notsimilar
	</note>
</glyph>
<glyph name="minustilde" format="2">
	<unicode hex="2242"/>
	<advance width="1171"/>
	<outline>
		<contour>
			<point x="348" y="457" type="curve" smooth="yes"/>
			<point x="434" y="457"/>
			<point x="518" y="477"/>
			<point x="606" y="518" type="curve" smooth="yes"/>
			<point x="692" y="557"/>
			<point x="768" y="578"/>
			<point x="831" y="578" type="curve" smooth="yes"/>
			<point x="903" y="578"/>
			<point x="991" y="535"/>
			<point x="1067" y="457" type="curve"/>
			<point x="1067" y="614" type="line"/>
			<point x="999" y="688"/>
			<point x="915" y="725"/>
			<point x="821" y="725" type="curve" smooth="yes"/>
			<point x="737" y="725"/>
			<point x="651" y="705"/>
			<point x="563" y="664" type="curve" smooth="yes"/>
			<point x="477" y="625"/>
			<point x="401" y="604"/>
			<point x="336" y="604" type="curve" smooth="yes"/>
			<point x="270" y="604"/>
			<point x="184" y="645"/>
			<point x="104" y="725" type="curve"/>
			<point x="104" y="565" type="line"/>
			<point x="172" y="494"/>
			<point x="252" y="457"/>
		</contour>
		<contour>
			<point x="104" y="852" type="line"/>
			<point x="1067" y="852" type="line"/>
			<point x="1067" y="997" type="line"/>
			<point x="104" y="997" type="line"/>
		</contour>
	</outline>
	<note>
		minustilde
	</note>
</glyph>
<glyph name="neitherapproximatelynoractuallyequalto" format="2">
	<unicode hex="2247"/>
	<advance width="1171"/>
	<outline>
		<contour>
			<point x="426" y="78" type="line"/>
			<point x="901" y="1315" type="line"/>
			<point x="774" y="1362" type="line"/>
			<point x="299" y="125" type="line"/>
		</contour>
		<contour>
			<point x="104" y="324" type="line"/>
			<point x="1067" y="324" type="line"/>
			<point x="1067" y="469" type="line"/>
			<point x="104" y="469" type="line"/>
		</contour>
		<contour>
			<point x="104" y="651" type="line"/>
			<point x="1067" y="651" type="line"/>
			<point x="1067" y="797" type="line"/>
			<point x="104" y="797" type="line"/>
		</contour>
		<contour>
			<point x="104" y="924" type="line"/>
			<point x="184" y="1004"/>
			<point x="270" y="1044"/>
			<point x="336" y="1044" type="curve" smooth="yes"/>
			<point x="401" y="1044"/>
			<point x="477" y="1024"/>
			<point x="563" y="985" type="curve" smooth="yes"/>
			<point x="651" y="944"/>
			<point x="737" y="924"/>
			<point x="821" y="924" type="curve" smooth="yes"/>
			<point x="915" y="924"/>
			<point x="999" y="961"/>
			<point x="1067" y="1034" type="curve"/>
			<point x="1067" y="1192" type="line"/>
			<point x="991" y="1114"/>
			<point x="903" y="1071"/>
			<point x="831" y="1071" type="curve" smooth="yes"/>
			<point x="768" y="1071"/>
			<point x="692" y="1092"/>
			<point x="606" y="1130" type="curve" smooth="yes"/>
			<point x="518" y="1171"/>
			<point x="434" y="1192"/>
			<point x="348" y="1192" type="curve" smooth="yes"/>
			<point x="252" y="1192"/>
			<point x="172" y="1155"/>
			<point x="104" y="1083" type="curve"/>
		</contour>
	</outline>
	<note>
		neitherapproximatelynoractuallyequalto
	</note>
</glyph>
<glyph name="equivalentto" format="2">
	<unicode hex="224D"/>
	<advance width="1171"/>
	<outline>
		<contour>
			<point x="586" y="801" type="curve" smooth="yes"/>
			<point x="750" y="801"/>
			<point x="909" y="848"/>
			<point x="1067" y="938" type="curve"/>
			<point x="991" y="1057" type="line"/>
			<point x="803" y="958"/>
			<point x="711" y="946"/>
			<point x="586" y="946" type="curve" smooth="yes"/>
			<point x="467" y="946"/>
			<point x="373" y="956"/>
			<point x="180" y="1057" type="curve"/>
			<point x="104" y="938" type="line"/>
			<point x="254" y="848"/>
			<point x="414" y="801"/>
		</contour>
		<contour>
			<point x="180" y="397" type="line"/>
			<point x="373" y="498"/>
			<point x="463" y="508"/>
			<point x="586" y="508" type="curve" smooth="yes"/>
			<point x="702" y="508"/>
			<point x="799" y="498"/>
			<point x="991" y="397" type="curve"/>
			<point x="1067" y="516" type="line"/>
			<point x="909" y="606"/>
			<point x="750" y="653"/>
			<point x="586" y="653" type="curve" smooth="yes"/>
			<point x="414" y="653"/>
			<point x="254" y="606"/>
			<point x="104" y="516" type="curve"/>
		</contour>
	</outline>
	<note>
		equivalentto
	</note>
</glyph>
<glyph name="geometricallyequivalentto" format="2">
	<unicode hex="224E"/>
	<advance width="1171"/>
	<outline>
		<contour>
			<point x="104" y="852" type="line"/>
			<point x="442" y="852" type="line"/>
			<point x="442" y="997" type="line" smooth="yes"/>
			<point x="442" y="1085"/>
			<point x="500" y="1145"/>
			<point x="586" y="1145" type="curve" smooth="yes"/>
			<point x="674" y="1145"/>
			<point x="729" y="1085"/>
			<point x="729" y="997" type="curve" smooth="yes"/>
			<point x="729" y="852" type="line"/>
			<point x="1067" y="852" type="line"/>
			<point x="1067" y="997" type="line"/>
			<point x="879" y="997" type="line"/>
			<point x="879" y="1190"/>
			<point x="770" y="1290"/>
			<point x="586" y="1290" type="curve" smooth="yes"/>
			<point x="401" y="1290"/>
			<point x="293" y="1190"/>
			<point x="293" y="997" type="curve"/>
			<point x="104" y="997" type="line"/>
		</contour>
		<contour>
			<point x="586" y="152" type="curve" smooth="yes"/>
			<point x="770" y="152"/>
			<point x="879" y="252"/>
			<point x="879" y="444" type="curve"/>
			<point x="1067" y="444" type="line"/>
			<point x="1067" y="590" type="line"/>
			<point x="729" y="590" type="line"/>
			<point x="729" y="444" type="line" smooth="yes"/>
			<point x="729" y="358"/>
			<point x="674" y="297"/>
			<point x="586" y="297" type="curve" smooth="yes"/>
			<point x="502" y="297"/>
			<point x="442" y="356"/>
			<point x="442" y="444" type="curve" smooth="yes"/>
			<point x="442" y="590" type="line"/>
			<point x="104" y="590" type="line"/>
			<point x="104" y="444" type="line"/>
			<point x="293" y="444" type="line"/>
			<point x="293" y="252"/>
			<point x="399" y="152"/>
		</contour>
	</outline>
	<note>
		geometricallyequivalentto
	</note>
</glyph>
<glyph name="differencebetween" format="2">
	<unicode hex="224F"/>
	<advance width="1171"/>
	<outline>
		<contour>
			<point x="104" y="852" type="line"/>
			<point x="442" y="852" type="line"/>
			<point x="442" y="997" type="line" smooth="yes"/>
			<point x="442" y="1085"/>
			<point x="500" y="1145"/>
			<point x="586" y="1145" type="curve" smooth="yes"/>
			<point x="674" y="1145"/>
			<point x="729" y="1085"/>
			<point x="729" y="997" type="curve" smooth="yes"/>
			<point x="729" y="852" type="line"/>
			<point x="1067" y="852" type="line"/>
			<point x="1067" y="997" type="line"/>
			<point x="879" y="997" type="line"/>
			<point x="879" y="1190"/>
			<point x="770" y="1290"/>
			<point x="586" y="1290" type="curve" smooth="yes"/>
			<point x="401" y="1290"/>
			<point x="293" y="1190"/>
			<point x="293" y="997" type="curve"/>
			<point x="104" y="997" type="line"/>
		</contour>
		<contour>
			<point x="104" y="444" type="line"/>
			<point x="1067" y="444" type="line"/>
			<point x="1067" y="590" type="line"/>
			<point x="104" y="590" type="line"/>
		</contour>
	</outline>
	<note>
		differencebetween
	</note>
</glyph>
<glyph name="approaches" format="2">
	<unicode hex="2250"/>
	<advance width="1171"/>
	<outline>
		<contour>
			<point x="104" y="852" type="line"/>
			<point x="1067" y="852" type="line"/>
			<point x="1067" y="997" type="line"/>
			<point x="104" y="997" type="line"/>
		</contour>
		<contour>
			<point x="104" y="444" type="line"/>
			<point x="1067" y="444" type="line"/>
			<point x="1067" y="590" type="line"/>
			<point x="104" y="590" type="line"/>
		</contour>
		<contour>
			<point x="586" y="1151" type="curve" smooth="yes"/>
			<point x="653" y="1151"/>
			<point x="709" y="1206"/>
			<point x="709" y="1274" type="curve" smooth="yes"/>
			<point x="709" y="1341"/>
			<point x="653" y="1397"/>
			<point x="586" y="1397" type="curve" smooth="yes"/>
			<point x="518" y="1397"/>
			<point x="463" y="1341"/>
			<point x="463" y="1274" type="curve" smooth="yes"/>
			<point x="463" y="1206"/>
			<point x="518" y="1151"/>
		</contour>
	</outline>
	<note>
		approaches
	</note>
</glyph>
<glyph name="colonequals" format="2">
	<unicode hex="2254"/>
	<advance width="1264"/>
	<outline>
		<contour>
			<point x="463" y="852" type="line"/>
			<point x="1159" y="852" type="line"/>
			<point x="1159" y="997" type="line"/>
			<point x="463" y="997" type="line"/>
		</contour>
		<contour>
			<point x="227" y="393" type="curve" smooth="yes"/>
			<point x="295" y="393"/>
			<point x="350" y="449"/>
			<point x="350" y="516" type="curve" smooth="yes"/>
			<point x="350" y="584"/>
			<point x="295" y="639"/>
			<point x="227" y="639" type="curve" smooth="yes"/>
			<point x="160" y="639"/>
			<point x="104" y="584"/>
			<point x="104" y="516" type="curve" smooth="yes"/>
			<point x="104" y="449"/>
			<point x="160" y="393"/>
		</contour>
		<contour>
			<point x="227" y="803" type="curve" smooth="yes"/>
			<point x="295" y="803"/>
			<point x="350" y="858"/>
			<point x="350" y="926" type="curve" smooth="yes"/>
			<point x="350" y="993"/>
			<point x="295" y="1049"/>
			<point x="227" y="1049" type="curve" smooth="yes"/>
			<point x="160" y="1049"/>
			<point x="104" y="993"/>
			<point x="104" y="926" type="curve" smooth="yes"/>
			<point x="104" y="858"/>
			<point x="160" y="803"/>
		</contour>
		<contour>
			<point x="463" y="444" type="line"/>
			<point x="1159" y="444" type="line"/>
			<point x="1159" y="590" type="line"/>
			<point x="463" y="590" type="line"/>
		</contour>
	</outline>
	<note>
		colonequals
	</note>
</glyph>
<glyph name="correspondsto" format="2">
	<unicode hex="2258"/>
	<advance width="1171"/>
	<outline>
		<contour>
			<point x="190" y="821" type="line"/>
			<point x="330" y="922"/>
			<point x="444" y="952"/>
			<point x="586" y="952" type="curve" smooth="yes"/>
			<point x="709" y="952"/>
			<point x="817" y="934"/>
			<point x="981" y="821" type="curve"/>
			<point x="1057" y="940" type="line"/>
			<point x="897" y="1057"/>
			<point x="756" y="1098"/>
			<point x="586" y="1098" type="curve" smooth="yes"/>
			<point x="418" y="1098"/>
			<point x="274" y="1057"/>
			<point x="115" y="940" type="curve"/>
		</contour>
		<contour>
			<point x="104" y="102" type="line"/>
			<point x="1067" y="102" type="line"/>
			<point x="1067" y="248" type="line"/>
			<point x="104" y="248" type="line"/>
		</contour>
		<contour>
			<point x="104" y="510" type="line"/>
			<point x="1067" y="510" type="line"/>
			<point x="1067" y="655" type="line"/>
			<point x="104" y="655" type="line"/>
		</contour>
	</outline>
	<note>
		correspondsto
	</note>
</glyph>
<glyph name="equiangularTo" format="2">
	<unicode hex="225A"/>
	<advance width="1171"/>
	<outline>
		<contour>
			<point x="510" y="797" type="line"/>
			<point x="662" y="797" type="line"/>
			<point x="958" y="1358" type="line"/>
			<point x="797" y="1358" type="line"/>
			<point x="586" y="938" type="line"/>
			<point x="375" y="1358" type="line"/>
			<point x="213" y="1358" type="line"/>
		</contour>
		<contour>
			<point x="104" y="102" type="line"/>
			<point x="1067" y="102" type="line"/>
			<point x="1067" y="248" type="line"/>
			<point x="104" y="248" type="line"/>
		</contour>
		<contour>
			<point x="104" y="510" type="line"/>
			<point x="1067" y="510" type="line"/>
			<point x="1067" y="655" type="line"/>
			<point x="104" y="655" type="line"/>
		</contour>
	</outline>
	<note>
		equiangularTo
	</note>
</glyph>
<glyph name="starequals" format="2">
	<unicode hex="225B"/>
	<advance width="1171"/>
	<outline>
		<contour>
			<point x="348" y="772" type="line"/>
			<point x="586" y="944" type="line"/>
			<point x="823" y="772" type="line"/>
			<point x="729" y="1049" type="line"/>
			<point x="967" y="1221" type="line"/>
			<point x="676" y="1221" type="line"/>
			<point x="586" y="1495" type="line"/>
			<point x="496" y="1221" type="line"/>
			<point x="205" y="1221" type="line"/>
			<point x="440" y="1049" type="line"/>
		</contour>
		<contour>
			<point x="104" y="102" type="line"/>
			<point x="1067" y="102" type="line"/>
			<point x="1067" y="248" type="line"/>
			<point x="104" y="248" type="line"/>
		</contour>
		<contour>
			<point x="104" y="510" type="line"/>
			<point x="1067" y="510" type="line"/>
			<point x="1067" y="655" type="line"/>
			<point x="104" y="655" type="line"/>
		</contour>
	</outline>
	<note>
		starequals
	</note>
</glyph>
<glyph name="notidentical" format="2">
	<unicode hex="2262"/>
	<advance width="1171"/>
	<outline>
		<contour>
			<point x="410" y="82" type="line"/>
			<point x="889" y="1313" type="line"/>
			<point x="762" y="1362" type="line"/>
			<point x="283" y="131" type="line"/>
		</contour>
		<contour>
			<point x="104" y="293" type="line"/>
			<point x="1067" y="293" type="line"/>
			<point x="1067" y="438" type="line"/>
			<point x="104" y="438" type="line"/>
		</contour>
		<contour>
			<point x="104" y="649" type="line"/>
			<point x="1067" y="649" type="line"/>
			<point x="1067" y="795" type="line"/>
			<point x="104" y="795" type="line"/>
		</contour>
		<contour>
			<point x="104" y="1006" type="line"/>
			<point x="1067" y="1006" type="line"/>
			<point x="1067" y="1151" type="line"/>
			<point x="104" y="1151" type="line"/>
		</contour>
	</outline>
	<note>
		notidentical
	</note>
</glyph>
<glyph name="strictlyequivalentto" format="2">
	<unicode hex="2263"/>
	<advance width="1171"/>
	<outline>
		<contour>
			<point x="104" y="1184" type="line"/>
			<point x="1067" y="1184" type="line"/>
			<point x="1067" y="1329" type="line"/>
			<point x="104" y="1329" type="line"/>
		</contour>
		<contour>
			<point x="104" y="115" type="line"/>
			<point x="1067" y="115" type="line"/>
			<point x="1067" y="260" type="line"/>
			<point x="104" y="260" type="line"/>
		</contour>
		<contour>
			<point x="104" y="471" type="line"/>
			<point x="1067" y="471" type="line"/>
			<point x="1067" y="616" type="line"/>
			<point x="104" y="616" type="line"/>
		</contour>
		<contour>
			<point x="104" y="827" type="line"/>
			<point x="1067" y="827" type="line"/>
			<point x="1067" y="973" type="line"/>
			<point x="104" y="973" type="line"/>
		</contour>
	</outline>
	<note>
		strictlyequivalentto
	</note>
</glyph>
<glyph name="lessequal" format="2">
	<unicode hex="2264"/>
	<advance width="960"/>
	<outline>
		<contour>
			<point x="833" y="295" type="line"/>
			<point x="833" y="547" type="line"/>
			<point x="394" y="793" type="line"/>
			<point x="833" y="1035" type="line"/>
			<point x="833" y="1288" type="line"/>
			<point x="128" y="881" type="line"/>
			<point x="128" y="704" type="line"/>
		</contour>
		<contour>
			<point x="128" y="0" type="line"/>
			<point x="833" y="0" type="line"/>
			<point x="833" y="260" type="line"/>
			<point x="128" y="260" type="line"/>
		</contour>
	</outline>
	<note>
		lessequal
	</note>
</glyph>
<glyph name="muchless" format="2">
	<unicode hex="226A"/>
	<advance width="1706"/>
	<outline>
		<contour>
			<point x="1642" y="199" type="line"/>
			<point x="1642" y="358" type="line"/>
			<point x="932" y="723" type="line"/>
			<point x="1642" y="1087" type="line"/>
			<point x="1642" y="1247" type="line"/>
			<point x="719" y="774" type="line"/>
			<point x="719" y="672" type="line"/>
		</contour>
		<contour>
			<point x="987" y="199" type="line"/>
			<point x="987" y="358" type="line"/>
			<point x="276" y="723" type="line"/>
			<point x="987" y="1087" type="line"/>
			<point x="987" y="1247" type="line"/>
			<point x="63" y="774" type="line"/>
			<point x="63" y="672" type="line"/>
		</contour>
	</outline>
	<note>
		muchless
	</note>
</glyph>
<glyph name="between" format="2">
	<unicode hex="226C"/>
	<advance width="713"/>
	<outline>
		<contour>
			<point x="106" y="0" type="curve"/>
			<point x="268" y="0" type="line"/>
			<point x="311" y="43"/>
			<point x="342" y="76"/>
			<point x="354" y="92" type="curve"/>
			<point x="379" y="63"/>
			<point x="408" y="33"/>
			<point x="444" y="0" type="curve"/>
			<point x="604" y="0" type="line"/>
			<point x="541" y="59"/>
			<point x="483" y="125"/>
			<point x="436" y="197" type="curve"/>
			<point x="551" y="369"/>
			<point x="608" y="559"/>
			<point x="608" y="772" type="curve" smooth="yes"/>
			<point x="608" y="985"/>
			<point x="551" y="1180"/>
			<point x="436" y="1356" type="curve"/>
			<point x="483" y="1425"/>
			<point x="539" y="1491"/>
			<point x="606" y="1556" type="curve"/>
			<point x="444" y="1556" type="line"/>
			<point x="424" y="1536"/>
			<point x="393" y="1505"/>
			<point x="354" y="1462" type="curve"/>
			<point x="328" y="1495"/>
			<point x="299" y="1528"/>
			<point x="268" y="1556" type="curve"/>
			<point x="104" y="1556" type="line"/>
			<point x="172" y="1491"/>
			<point x="229" y="1425"/>
			<point x="274" y="1356" type="curve"/>
			<point x="162" y="1184"/>
			<point x="104" y="989"/>
			<point x="104" y="772" type="curve" smooth="yes"/>
			<point x="104" y="555"/>
			<point x="162" y="365"/>
			<point x="274" y="197" type="curve"/>
			<point x="223" y="123"/>
			<point x="168" y="55"/>
		</contour>
		<contour>
			<point x="354" y="317" type="curve"/>
			<point x="264" y="514"/>
			<point x="244" y="629"/>
			<point x="244" y="774" type="curve" smooth="yes"/>
			<point x="244" y="918"/>
			<point x="264" y="1036"/>
			<point x="354" y="1233" type="curve"/>
			<point x="459" y="1004"/>
			<point x="469" y="903"/>
			<point x="469" y="774" type="curve" smooth="yes"/>
			<point x="469" y="649"/>
			<point x="461" y="555"/>
		</contour>
	</outline>
	<note>
		between
	</note>
</glyph>
<glyph name="notequivalentto" format="2">
	<unicode hex="226D"/>
	<advance width="1171"/>
	<outline>
		<contour>
			<point x="414" y="158" type="line"/>
			<point x="578" y="508" type="line"/>
			<point x="592" y="508" type="line" smooth="yes"/>
			<point x="725" y="508"/>
			<point x="815" y="489"/>
			<point x="991" y="397" type="curve"/>
			<point x="1067" y="516" type="line"/>
			<point x="926" y="596"/>
			<point x="784" y="641"/>
			<point x="643" y="647" type="curve"/>
			<point x="717" y="805" type="line"/>
			<point x="834" y="821"/>
			<point x="950" y="864"/>
			<point x="1067" y="930" type="curve"/>
			<point x="991" y="1049" type="line"/>
			<point x="911" y="1006"/>
			<point x="846" y="979"/>
			<point x="791" y="963" type="curve"/>
			<point x="911" y="1219" type="line"/>
			<point x="786" y="1280" type="line"/>
			<point x="627" y="938" type="line"/>
			<point x="612" y="936"/>
			<point x="596" y="936"/>
			<point x="582" y="936" type="curve" smooth="yes"/>
			<point x="449" y="936"/>
			<point x="356" y="956"/>
			<point x="180" y="1049" type="curve"/>
			<point x="104" y="930" type="line"/>
			<point x="242" y="846"/>
			<point x="393" y="801"/>
			<point x="561" y="797" type="curve"/>
			<point x="489" y="645" type="line"/>
			<point x="348" y="631"/>
			<point x="219" y="588"/>
			<point x="104" y="516" type="curve"/>
			<point x="180" y="397" type="line"/>
			<point x="268" y="446"/>
			<point x="348" y="477"/>
			<point x="418" y="492" type="curve"/>
			<point x="291" y="217" type="line"/>
		</contour>
	</outline>
	<note>
		notequivalentto
	</note>
</glyph>
<glyph name="notless" format="2">
	<unicode hex="226E"/>
	<advance width="1171"/>
	<outline>
		<contour>
			<point x="444" y="135" type="line"/>
			<point x="569" y="463" type="line"/>
			<point x="1067" y="244" type="line"/>
			<point x="1067" y="403" type="line"/>
			<point x="618" y="592" type="line"/>
			<point x="754" y="944" type="line"/>
			<point x="1067" y="1092" type="line"/>
			<point x="1067" y="1251" type="line"/>
			<point x="825" y="1130" type="line"/>
			<point x="915" y="1364" type="line"/>
			<point x="791" y="1417" type="line"/>
			<point x="647" y="1040" type="line"/>
			<point x="104" y="770" type="line"/>
			<point x="104" y="668" type="line"/>
			<point x="444" y="516" type="line"/>
			<point x="319" y="188" type="line"/>
		</contour>
		<contour>
			<point x="494" y="643" type="line"/>
			<point x="297" y="727" type="line"/>
			<point x="578" y="860" type="line"/>
		</contour>
	</outline>
	<note>
		notless
	</note>
</glyph>
<glyph name="notgreater" format="2">
	<unicode hex="226F"/>
	<advance width="1171"/>
	<outline>
		<contour>
			<point x="444" y="135" type="line"/>
			<point x="563" y="444" type="line"/>
			<point x="1067" y="668" type="line"/>
			<point x="1067" y="770" type="line"/>
			<point x="748" y="928" type="line"/>
			<point x="915" y="1364" type="line"/>
			<point x="791" y="1417" type="line"/>
			<point x="627" y="989" type="line"/>
			<point x="104" y="1251" type="line"/>
			<point x="104" y="1092" type="line"/>
			<point x="580" y="866" type="line"/>
			<point x="459" y="553" type="line"/>
			<point x="104" y="403" type="line"/>
			<point x="104" y="244" type="line"/>
			<point x="389" y="369" type="line"/>
			<point x="319" y="188" type="line"/>
		</contour>
		<contour>
			<point x="631" y="625" type="line"/>
			<point x="702" y="809" type="line"/>
			<point x="874" y="727" type="line"/>
		</contour>
	</outline>
	<note>
		notgreater
	</note>
</glyph>
<glyph name="notlessnorequal" format="2">
	<unicode hex="2270"/>
	<advance width="1171"/>
	<outline>
		<contour>
			<point x="418" y="-152" type="line"/>
			<point x="481" y="96" type="line"/>
			<point x="1067" y="96" type="line"/>
			<point x="1067" y="242" type="line"/>
			<point x="520" y="242" type="line"/>
			<point x="600" y="545" type="line"/>
			<point x="1067" y="340" type="line"/>
			<point x="1067" y="500" type="line"/>
			<point x="635" y="680" type="line"/>
			<point x="725" y="1026" type="line"/>
			<point x="1067" y="1188" type="line"/>
			<point x="1067" y="1348" type="line"/>
			<point x="770" y="1200" type="line"/>
			<point x="852" y="1509" type="line"/>
			<point x="725" y="1546" type="line"/>
			<point x="612" y="1120" type="line"/>
			<point x="104" y="866" type="line"/>
			<point x="104" y="764" type="line"/>
			<point x="477" y="600" type="line"/>
			<point x="383" y="242" type="line"/>
			<point x="104" y="242" type="line"/>
			<point x="104" y="96" type="line"/>
			<point x="346" y="96" type="line"/>
			<point x="291" y="-115" type="line"/>
		</contour>
		<contour>
			<point x="512" y="733" type="line"/>
			<point x="297" y="823" type="line"/>
			<point x="569" y="952" type="line"/>
		</contour>
	</outline>
	<note>
		notlessnorequal
	</note>
</glyph>
<glyph name="greaterorless" format="2">
	<unicode hex="2277"/>
	<advance width="1171"/>
	<outline>
		<contour>
			<point x="104" y="641" type="line"/>
			<point x="1067" y="987" type="line"/>
			<point x="1067" y="1090" type="line"/>
			<point x="104" y="1438" type="line"/>
			<point x="104" y="1288" type="line"/>
			<point x="846" y="1038" type="line"/>
			<point x="104" y="791" type="line"/>
		</contour>
		<contour>
			<point x="1067" y="4" type="line"/>
			<point x="1067" y="154" type="line"/>
			<point x="326" y="401" type="line"/>
			<point x="1067" y="651" type="line"/>
			<point x="1067" y="801" type="line"/>
			<point x="104" y="453" type="line"/>
			<point x="104" y="350" type="line"/>
		</contour>
	</outline>
	<note>
		greaterorless
	</note>
</glyph>
<glyph name="precedesorequalto" format="2">
	<unicode hex="227C"/>
	<advance width="1110"/>
	<outline>
		<contour>
			<point x="1006" y="375" type="curve"/>
			<point x="1006" y="555" type="line"/>
			<point x="856" y="688"/>
			<point x="639" y="797"/>
			<point x="434" y="844" type="curve"/>
			<point x="434" y="852" type="line"/>
			<point x="639" y="889"/>
			<point x="897" y="1016"/>
			<point x="1006" y="1141" type="curve"/>
			<point x="1006" y="1307" type="line"/>
			<point x="825" y="1122"/>
			<point x="545" y="985"/>
			<point x="104" y="893" type="curve"/>
			<point x="104" y="799" type="line"/>
			<point x="436" y="739"/>
			<point x="811" y="578"/>
		</contour>
		<contour>
			<point x="1006" y="-86" type="curve"/>
			<point x="1006" y="102" type="line"/>
			<point x="803" y="311"/>
			<point x="434" y="506"/>
			<point x="104" y="569" type="curve"/>
			<point x="104" y="424" type="line"/>
			<point x="399" y="377"/>
			<point x="854" y="121"/>
		</contour>
	</outline>
	<note>
		precedesorequalto
	</note>
</glyph>
<glyph name="superset" format="2">
	<unicode hex="2283"/>
	<advance width="1432"/>
	<outline>
		<contour>
			<point x="104" y="127" type="line"/>
			<point x="655" y="127" type="line" smooth="yes"/>
			<point x="1100" y="127"/>
			<point x="1327" y="336"/>
			<point x="1327" y="723" type="curve" smooth="yes"/>
			<point x="1327" y="1112"/>
			<point x="1100" y="1319"/>
			<point x="655" y="1319" type="curve" smooth="yes"/>
			<point x="104" y="1319" type="line"/>
			<point x="104" y="1174" type="line"/>
			<point x="655" y="1174" type="line" smooth="yes"/>
			<point x="1010" y="1174"/>
			<point x="1180" y="1038"/>
			<point x="1180" y="723" type="curve" smooth="yes"/>
			<point x="1180" y="408"/>
			<point x="1012" y="270"/>
			<point x="655" y="270" type="curve" smooth="yes"/>
			<point x="104" y="270" type="line"/>
		</contour>
	</outline>
	<note>
		superset
	</note>
</glyph>
<glyph name="supersetnotequal" format="2">
	<unicode hex="228B"/>
	<advance width="1432"/>
	<outline>
		<contour>
			<point x="104" y="287" type="line"/>
			<point x="655" y="287" type="line" smooth="yes"/>
			<point x="1100" y="287"/>
			<point x="1327" y="496"/>
			<point x="1327" y="883" type="curve" smooth="yes"/>
			<point x="1327" y="1272"/>
			<point x="1100" y="1479"/>
			<point x="655" y="1479" type="curve" smooth="yes"/>
			<point x="104" y="1479" type="line"/>
			<point x="104" y="1333" type="line"/>
			<point x="655" y="1333" type="line" smooth="yes"/>
			<point x="1010" y="1333"/>
			<point x="1180" y="1198"/>
			<point x="1180" y="883" type="curve" smooth="yes"/>
			<point x="1180" y="567"/>
			<point x="1012" y="430"/>
			<point x="655" y="430" type="curve" smooth="yes"/>
			<point x="104" y="430" type="line"/>
		</contour>
		<contour>
			<point x="541" y="-174" type="line"/>
			<point x="729" y="190" type="line"/>
			<point x="608" y="250" type="line"/>
			<point x="420" y="-115" type="line"/>
		</contour>
		<contour>
			<point x="104" y="0" type="line"/>
			<point x="1245" y="0" type="line"/>
			<point x="1245" y="145" type="line"/>
			<point x="104" y="145" type="line"/>
		</contour>
	</outline>
	<note>
		supersetnotequal
	</note>
</glyph>
<glyph name="multisetmultiplication" format="2">
	<unicode hex="228D"/>
	<advance width="1319"/>
	<outline>
		<contour>
			<point x="659" y="0" type="curve" smooth="yes"/>
			<point x="1032" y="0"/>
			<point x="1214" y="193"/>
			<point x="1214" y="596" type="curve" smooth="yes"/>
			<point x="1214" y="1425" type="line"/>
			<point x="1069" y="1425" type="line"/>
			<point x="1069" y="596" type="line" smooth="yes"/>
			<point x="1069" y="285"/>
			<point x="948" y="147"/>
			<point x="659" y="147" type="curve" smooth="yes"/>
			<point x="371" y="147"/>
			<point x="250" y="285"/>
			<point x="250" y="596" type="curve" smooth="yes"/>
			<point x="250" y="1425" type="line"/>
			<point x="104" y="1425" type="line"/>
			<point x="104" y="596" type="line" smooth="yes"/>
			<point x="104" y="193"/>
			<point x="287" y="0"/>
		</contour>
		<contour>
			<point x="659" y="406" type="curve" smooth="yes"/>
			<point x="760" y="406"/>
			<point x="838" y="483"/>
			<point x="838" y="586" type="curve" smooth="yes"/>
			<point x="838" y="682"/>
			<point x="760" y="766"/>
			<point x="659" y="766" type="curve" smooth="yes"/>
			<point x="559" y="766"/>
			<point x="481" y="686"/>
			<point x="481" y="586" type="curve" smooth="yes"/>
			<point x="481" y="481"/>
			<point x="557" y="406"/>
		</contour>
	</outline>
	<note>
		multisetmultiplication
	</note>
</glyph>
<glyph name="squareimageof" format="2">
	<unicode hex="228F"/>
	<advance width="1171"/>
	<outline>
		<contour>
			<point x="104" y="168" type="line"/>
			<point x="1067" y="168" type="line"/>
			<point x="1067" y="313" type="line"/>
			<point x="250" y="313" type="line"/>
			<point x="250" y="1133" type="line"/>
			<point x="1067" y="1133" type="line"/>
			<point x="1067" y="1278" type="line"/>
			<point x="104" y="1278" type="line"/>
		</contour>
	</outline>
	<note>
		squareimageof
	</note>
</glyph>
<glyph name="minus.circled" format="2">
	<unicode hex="2296"/>
	<advance width="1901"/>
	<outline>
		<contour>
			<point x="950" y="-131" type="curve" smooth="yes"/>
			<point x="1417" y="-131"/>
			<point x="1796" y="248"/>
			<point x="1796" y="715" type="curve" smooth="yes"/>
			<point x="1796" y="1182"/>
			<point x="1417" y="1561"/>
			<point x="950" y="1561" type="curve" smooth="yes"/>
			<point x="483" y="1561"/>
			<point x="104" y="1182"/>
			<point x="104" y="715" type="curve" smooth="yes"/>
			<point x="104" y="248"/>
			<point x="483" y="-131"/>
		</contour>
		<contour>
			<point x="950" y="-27" type="curve" smooth="yes"/>
			<point x="541" y="-27"/>
			<point x="209" y="305"/>
			<point x="209" y="715" type="curve" smooth="yes"/>
			<point x="209" y="1124"/>
			<point x="541" y="1456"/>
			<point x="950" y="1456" type="curve" smooth="yes"/>
			<point x="1360" y="1456"/>
			<point x="1692" y="1124"/>
			<point x="1692" y="715" type="curve" smooth="yes"/>
			<point x="1692" y="305"/>
			<point x="1360" y="-27"/>
		</contour>
		<contour>
			<point x="168" y="664" type="line"/>
			<point x="1733" y="664" type="line"/>
			<point x="1733" y="766" type="line"/>
			<point x="168" y="766" type="line"/>
		</contour>
	</outline>
	<note>
		minus.circled
	</note>
</glyph>
<glyph name="operator.circled" format="2">
	<unicode hex="2299"/>
	<advance width="1901"/>
	<outline>
		<contour>
			<point x="950" y="-131" type="curve" smooth="yes"/>
			<point x="1417" y="-131"/>
			<point x="1796" y="248"/>
			<point x="1796" y="715" type="curve" smooth="yes"/>
			<point x="1796" y="1182"/>
			<point x="1417" y="1561"/>
			<point x="950" y="1561" type="curve" smooth="yes"/>
			<point x="483" y="1561"/>
			<point x="104" y="1182"/>
			<point x="104" y="715" type="curve" smooth="yes"/>
			<point x="104" y="248"/>
			<point x="483" y="-131"/>
		</contour>
		<contour>
			<point x="950" y="-27" type="curve" smooth="yes"/>
			<point x="541" y="-27"/>
			<point x="209" y="305"/>
			<point x="209" y="715" type="curve" smooth="yes"/>
			<point x="209" y="1124"/>
			<point x="541" y="1456"/>
			<point x="950" y="1456" type="curve" smooth="yes"/>
			<point x="1360" y="1456"/>
			<point x="1692" y="1124"/>
			<point x="1692" y="715" type="curve" smooth="yes"/>
			<point x="1692" y="305"/>
			<point x="1360" y="-27"/>
		</contour>
		<contour>
			<point x="950" y="524" type="curve" smooth="yes"/>
			<point x="1055" y="524"/>
			<point x="1139" y="610"/>
			<point x="1139" y="715" type="curve" smooth="yes"/>
			<point x="1139" y="819"/>
			<point x="1057" y="907"/>
			<point x="950" y="907" type="curve" smooth="yes"/>
			<point x="842" y="907"/>
			<point x="760" y="819"/>
			<point x="760" y="715" type="curve" smooth="yes"/>
			<point x="760" y="610"/>
			<point x="842" y="524"/>
		</contour>
	</outline>
	<note>
		operator.circled
	</note>
</glyph>
<glyph name="righttack" format="2">
	<unicode hex="22A2"/>
	<advance width="1548"/>
	<outline>
		<contour>
			<point x="104" y="53" type="line"/>
			<point x="250" y="53" type="line"/>
			<point x="250" y="651" type="line"/>
			<point x="1444" y="651" type="line"/>
			<point x="1444" y="797" type="line"/>
			<point x="250" y="797" type="line"/>
			<point x="250" y="1393" type="line"/>
			<point x="104" y="1393" type="line"/>
		</contour>
	</outline>
	<note>
		righttack
	</note>
</glyph>
<glyph name="tackleft" format="2">
	<unicode hex="22A3"/>
	<advance width="1548"/>
	<outline>
		<contour>
			<point x="1298" y="53" type="line"/>
			<point x="1444" y="53" type="line"/>
			<point x="1444" y="1393" type="line"/>
			<point x="1298" y="1393" type="line"/>
			<point x="1298" y="797" type="line"/>
			<point x="104" y="797" type="line"/>
			<point x="104" y="651" type="line"/>
			<point x="1298" y="651" type="line"/>
		</contour>
	</outline>
	<note>
		tackleft
	</note>
</glyph>
<glyph name="tackdown" format="2">
	<unicode hex="22A4"/>
	<advance width="1548"/>
	<outline>
		<contour>
			<point x="702" y="53" type="line"/>
			<point x="848" y="53" type="line"/>
			<point x="848" y="1247" type="line"/>
			<point x="1444" y="1247" type="line"/>
			<point x="1444" y="1393" type="line"/>
			<point x="104" y="1393" type="line"/>
			<point x="104" y="1247" type="line"/>
			<point x="702" y="1247" type="line"/>
		</contour>
	</outline>
	<note>
		tackdown
	</note>
</glyph>
<glyph name="doubleverticalbardoublerightturnstile" format="2">
	<unicode hex="22AB"/>
	<advance width="1712"/>
	<outline>
		<contour>
			<point x="494" y="53" type="line"/>
			<point x="639" y="53" type="line"/>
			<point x="639" y="412" type="line"/>
			<point x="1608" y="412" type="line"/>
			<point x="1608" y="557" type="line"/>
			<point x="639" y="557" type="line"/>
			<point x="639" y="889" type="line"/>
			<point x="1608" y="889" type="line"/>
			<point x="1608" y="1034" type="line"/>
			<point x="639" y="1034" type="line"/>
			<point x="639" y="1393" type="line"/>
			<point x="494" y="1393" type="line"/>
		</contour>
		<contour>
			<point x="104" y="55" type="line"/>
			<point x="250" y="55" type="line"/>
			<point x="250" y="1393" type="line"/>
			<point x="104" y="1393" type="line"/>
		</contour>
	</outline>
	<note>
		doubleverticalbardoublerightturnstile
	</note>
</glyph>
<glyph name="negateddoubleverticalbardoublerightturnstile" format="2">
	<unicode hex="22AF"/>
	<advance width="1712"/>
	<outline>
		<contour>
			<point x="907" y="-20" type="line"/>
			<point x="1075" y="412" type="line"/>
			<point x="1608" y="412" type="line"/>
			<point x="1608" y="557" type="line"/>
			<point x="1130" y="557" type="line"/>
			<point x="1260" y="889" type="line"/>
			<point x="1608" y="889" type="line"/>
			<point x="1608" y="1034" type="line"/>
			<point x="1317" y="1034" type="line"/>
			<point x="1464" y="1413" type="line"/>
			<point x="1339" y="1466" type="line"/>
			<point x="1171" y="1034" type="line"/>
			<point x="639" y="1034" type="line"/>
			<point x="639" y="1393" type="line"/>
			<point x="494" y="1393" type="line"/>
			<point x="494" y="53" type="line"/>
			<point x="639" y="53" type="line"/>
			<point x="639" y="412" type="line"/>
			<point x="930" y="412" type="line"/>
			<point x="782" y="33" type="line"/>
		</contour>
		<contour>
			<point x="104" y="55" type="line"/>
			<point x="250" y="55" type="line"/>
			<point x="250" y="1393" type="line"/>
			<point x="104" y="1393" type="line"/>
		</contour>
		<contour>
			<point x="639" y="557" type="line"/>
			<point x="639" y="889" type="line"/>
			<point x="1114" y="889" type="line"/>
			<point x="985" y="557" type="line"/>
		</contour>
	</outline>
	<note>
		negateddoubleverticalbardoublerightturnstile
	</note>
</glyph>
<glyph name="succeedsunderrelation" format="2">
	<unicode hex="22B1"/>
	<advance width="1161"/>
	<outline>
		<contour>
			<point x="340" y="135" type="curve" smooth="yes"/>
			<point x="449" y="135"/>
			<point x="520" y="186"/>
			<point x="584" y="319" type="curve"/>
			<point x="467" y="381" type="line"/>
			<point x="432" y="309"/>
			<point x="391" y="274"/>
			<point x="344" y="274" type="curve" smooth="yes"/>
			<point x="287" y="274"/>
			<point x="250" y="313"/>
			<point x="250" y="369" type="curve" smooth="yes"/>
			<point x="250" y="483"/>
			<point x="385" y="551"/>
			<point x="586" y="596" type="curve" smooth="yes"/>
			<point x="684" y="618"/>
			<point x="842" y="645"/>
			<point x="1057" y="680" type="curve"/>
			<point x="1057" y="762" type="line"/>
			<point x="725" y="817" type="line" smooth="yes"/>
			<point x="575" y="842"/>
			<point x="459" y="877"/>
			<point x="375" y="915" type="curve" smooth="yes"/>
			<point x="293" y="954"/>
			<point x="250" y="1008"/>
			<point x="250" y="1073" type="curve" smooth="yes"/>
			<point x="250" y="1126"/>
			<point x="287" y="1169"/>
			<point x="344" y="1169" type="curve" smooth="yes"/>
			<point x="393" y="1169"/>
			<point x="434" y="1133"/>
			<point x="467" y="1061" type="curve"/>
			<point x="584" y="1120" type="line"/>
			<point x="535" y="1243"/>
			<point x="444" y="1307"/>
			<point x="328" y="1307" type="curve" smooth="yes"/>
			<point x="190" y="1307"/>
			<point x="104" y="1212"/>
			<point x="104" y="1081" type="curve" smooth="yes"/>
			<point x="104" y="891"/>
			<point x="272" y="766"/>
			<point x="598" y="721" type="curve"/>
			<point x="274" y="678"/>
			<point x="104" y="553"/>
			<point x="104" y="360" type="curve" smooth="yes"/>
			<point x="104" y="231"/>
			<point x="209" y="135"/>
		</contour>
	</outline>
	<note>
		succeedsunderrelation
	</note>
</glyph>
<glyph name="normalsubgroupoforequalto" format="2">
	<unicode hex="22B4"/>
	<advance width="1171"/>
	<outline>
		<contour>
			<point x="1067" y="453" type="line"/>
			<point x="1067" y="1225" type="line"/>
			<point x="104" y="872" type="line"/>
			<point x="104" y="803" type="line"/>
		</contour>
		<contour>
			<point x="104" y="209" type="line"/>
			<point x="1067" y="209" type="line"/>
			<point x="1067" y="354" type="line"/>
			<point x="104" y="354" type="line"/>
		</contour>
		<contour>
			<point x="930" y="641" type="line"/>
			<point x="346" y="836" type="line"/>
			<point x="930" y="1036" type="line"/>
		</contour>
	</outline>
	<note>
		normalsubgroupoforequalto
	</note>
</glyph>
<glyph name="imageof" format="2">
	<unicode hex="22B7"/>
	<advance width="1872"/>
	<outline>
		<contour>
			<point x="385" y="444" type="curve" smooth="yes"/>
			<point x="512" y="444"/>
			<point x="629" y="532"/>
			<point x="659" y="664" type="curve"/>
			<point x="1214" y="664" type="line"/>
			<point x="1243" y="537"/>
			<point x="1360" y="444"/>
			<point x="1487" y="444" type="curve" smooth="yes"/>
			<point x="1640" y="444"/>
			<point x="1767" y="569"/>
			<point x="1767" y="725" type="curve" smooth="yes"/>
			<point x="1767" y="881"/>
			<point x="1638" y="1006"/>
			<point x="1487" y="1006" type="curve" smooth="yes"/>
			<point x="1360" y="1006"/>
			<point x="1243" y="913"/>
			<point x="1214" y="786" type="curve"/>
			<point x="659" y="786" type="line"/>
			<point x="629" y="918"/>
			<point x="512" y="1006"/>
			<point x="385" y="1006" type="curve" smooth="yes"/>
			<point x="233" y="1006"/>
			<point x="104" y="881"/>
			<point x="104" y="725" type="curve" smooth="yes"/>
			<point x="104" y="569"/>
			<point x="229" y="444"/>
		</contour>
		<contour>
			<point x="1487" y="573" type="curve" smooth="yes"/>
			<point x="1405" y="573"/>
			<point x="1335" y="641"/>
			<point x="1335" y="725" type="curve" smooth="yes"/>
			<point x="1335" y="809"/>
			<point x="1403" y="877"/>
			<point x="1487" y="877" type="curve" smooth="yes"/>
			<point x="1571" y="877"/>
			<point x="1638" y="807"/>
			<point x="1638" y="725" type="curve" smooth="yes"/>
			<point x="1638" y="643"/>
			<point x="1571" y="573"/>
		</contour>
	</outline>
	<note>
		imageof
	</note>
</glyph>
<glyph name="intercalate" format="2">
	<unicode hex="22BA"/>
	<advance width="1139"/>
	<outline>
		<contour>
			<point x="498" y="0" type="line"/>
			<point x="643" y="0" type="line"/>
			<point x="643" y="1194" type="line"/>
			<point x="1034" y="1194" type="line"/>
			<point x="1034" y="1339" type="line"/>
			<point x="104" y="1339" type="line"/>
			<point x="104" y="1194" type="line"/>
			<point x="498" y="1194" type="line"/>
		</contour>
	</outline>
	<note>
		intercalate
	</note>
</glyph>
<glyph name="righttriangle" format="2">
	<unicode hex="22BF"/>
	<advance width="1440"/>
	<outline>
		<contour>
			<point x="104" y="0" type="line"/>
			<point x="1335" y="0" type="line"/>
			<point x="1335" y="1231" type="line"/>
		</contour>
		<contour>
			<point x="436" y="145" type="line"/>
			<point x="1190" y="899" type="line"/>
			<point x="1190" y="145" type="line"/>
		</contour>
	</outline>
	<note>
		righttriangle
	</note>
</glyph>
<glyph name="n-arylogicalor" format="2">
	<unicode hex="22C1"/>
	<advance width="1884"/>
	<outline>
		<contour>
			<point x="881" y="-188" type="line"/>
			<point x="1004" y="-188" type="line"/>
			<point x="1780" y="1462" type="line"/>
			<point x="1624" y="1462" type="line"/>
			<point x="942" y="6" type="line"/>
			<point x="260" y="1462" type="line"/>
			<point x="104" y="1462" type="line"/>
		</contour>
	</outline>
	<note>
		narylogicalor
	</note>
</glyph>
<glyph name="n-aryintersection" format="2">
	<unicode hex="22C2"/>
	<advance width="1577"/>
	<outline>
		<contour>
			<point x="104" y="-168" type="line"/>
			<point x="250" y="-168" type="line"/>
			<point x="250" y="786" type="line" smooth="yes"/>
			<point x="250" y="1122"/>
			<point x="442" y="1315"/>
			<point x="788" y="1315" type="curve" smooth="yes"/>
			<point x="1137" y="1315"/>
			<point x="1327" y="1124"/>
			<point x="1327" y="786" type="curve" smooth="yes"/>
			<point x="1327" y="-168" type="line"/>
			<point x="1473" y="-168" type="line"/>
			<point x="1473" y="786" type="line" smooth="yes"/>
			<point x="1473" y="1219"/>
			<point x="1212" y="1462"/>
			<point x="788" y="1462" type="curve" smooth="yes"/>
			<point x="365" y="1462"/>
			<point x="104" y="1223"/>
			<point x="104" y="786" type="curve" smooth="yes"/>
		</contour>
	</outline>
	<note>
		naryintersection
	</note>
</glyph>
<glyph name="rightnormalfactorsemidirectproduct" format="2">
	<unicode hex="22CA"/>
	<advance width="1503"/>
	<outline>
		<contour>
			<point x="1321" y="0" type="line"/>
			<point x="1401" y="29" type="line"/>
			<point x="1401" y="1311" type="line"/>
			<point x="1321" y="1339" type="line"/>
			<point x="754" y="774" type="line"/>
			<point x="201" y="1323" type="line"/>
			<point x="104" y="1217" type="line"/>
			<point x="649" y="672" type="line"/>
			<point x="106" y="125" type="line"/>
			<point x="201" y="16" type="line"/>
			<point x="756" y="565" type="line"/>
		</contour>
		<contour>
			<point x="1255" y="272" type="line"/>
			<point x="858" y="672" type="line"/>
			<point x="1255" y="1065" type="line"/>
		</contour>
	</outline>
	<note>
		rightnormalfactorsemidirectproduct
	</note>
</glyph>
<glyph name="leftsemidirectproduct" format="2">
	<unicode hex="22CB"/>
	<advance width="1507"/>
	<outline>
		<contour>
			<point x="201" y="16" type="line"/>
			<point x="756" y="565" type="line"/>
			<point x="1307" y="16" type="line"/>
			<point x="1403" y="125" type="line"/>
			<point x="201" y="1323" type="line"/>
			<point x="104" y="1217" type="line"/>
			<point x="649" y="672" type="line"/>
			<point x="106" y="125" type="line"/>
		</contour>
	</outline>
	<note>
		leftsemidirectproduct
	</note>
</glyph>
<glyph name="reversedtildeequals" format="2">
	<unicode hex="22CD"/>
	<advance width="1171"/>
	<outline>
		<contour>
			<point x="350" y="776" type="curve" smooth="yes"/>
			<point x="434" y="776"/>
			<point x="520" y="797"/>
			<point x="608" y="838" type="curve" smooth="yes"/>
			<point x="694" y="877"/>
			<point x="770" y="897"/>
			<point x="836" y="897" type="curve" smooth="yes"/>
			<point x="901" y="897"/>
			<point x="987" y="856"/>
			<point x="1067" y="776" type="curve"/>
			<point x="1067" y="936" type="line"/>
			<point x="999" y="1008"/>
			<point x="920" y="1044"/>
			<point x="823" y="1044" type="curve" smooth="yes"/>
			<point x="737" y="1044"/>
			<point x="653" y="1024"/>
			<point x="565" y="983" type="curve" smooth="yes"/>
			<point x="479" y="944"/>
			<point x="403" y="924"/>
			<point x="340" y="924" type="curve" smooth="yes"/>
			<point x="268" y="924"/>
			<point x="180" y="967"/>
			<point x="104" y="1044" type="curve"/>
			<point x="104" y="887" type="line"/>
			<point x="172" y="813"/>
			<point x="256" y="776"/>
		</contour>
		<contour>
			<point x="104" y="504" type="line"/>
			<point x="1067" y="504" type="line"/>
			<point x="1067" y="649" type="line"/>
			<point x="104" y="649" type="line"/>
		</contour>
	</outline>
	<note>
		reversedtildeequals
	</note>
</glyph>
<glyph name="curlyor" format="2">
	<unicode hex="22CE"/>
	<advance width="1495"/>
	<outline>
		<contour>
			<point x="700" y="0" type="curve"/>
			<point x="795" y="0" type="line"/>
			<point x="887" y="397"/>
			<point x="1128" y="881"/>
			<point x="1391" y="1155" type="curve"/>
			<point x="1214" y="1155" type="line"/>
			<point x="1094" y="1030"/>
			<point x="834" y="590"/>
			<point x="754" y="309" type="curve"/>
			<point x="741" y="309" type="line"/>
			<point x="664" y="582"/>
			<point x="406" y="1020"/>
			<point x="281" y="1155" type="curve"/>
			<point x="104" y="1155" type="line"/>
			<point x="385" y="852"/>
			<point x="612" y="383"/>
		</contour>
	</outline>
	<note>
		curlyor
	</note>
</glyph>
